<ttFont>
    <TTGlyph name=".notdef" xMin="79" yMin="-220" xMax="620" yMax="1030">
      <contour>
        <pt x="79" y="1030" on="1"/>
        <pt x="620" y="1030" on="1"/>
        <pt x="620" y="-220" on="1"/>
        <pt x="79" y="-220" on="1"/>
      </contour>
      <contour>
        <pt x="514" y="-121" on="1"/>
        <pt x="514" y="932" on="1"/>
        <pt x="184" y="932" on="1"/>
        <pt x="184" y="-121" on="1"/>
      </contour>
    </TTGlyph>
    <TTGlyph name="A" xMin="2" yMin="0" xMax="629" yMax="740">
      <contour>
        <pt x="2" y="7" on="1"/>
        <pt x="220" y="740" on="1"/>
        <pt x="411" y="740" on="1"/>
        <pt x="629" y="7" on="1"/>
        <pt x="629" y="0" on="1"/>
        <pt x="506" y="0" on="1"/>
        <pt x="446" y="198" on="1"/>
        <pt x="184" y="198" on="1"/>
        <pt x="125" y="0" on="1"/>
        <pt x="2" y="0" on="1"/>
      </contour>
      <contour>
        <pt x="419" y="302" on="1"/>
        <pt x="354" y="523" on="1"/>
        <pt x="321" y="642" on="1"/>
        <pt x="310" y="642" on="1"/>
        <pt x="277" y="523" on="1"/>
        <pt x="211" y="302" on="1"/>
      </contour>
    </TTGlyph>
    <TTGlyph name="A.sc" xMin="6" yMin="0" xMax="572" yMax="577">
      <contour>
        <pt x="6" y="6" on="1"/>
        <pt x="198" y="577" on="1"/>
        <pt x="380" y="577" on="1"/>
        <pt x="572" y="6" on="1"/>
        <pt x="572" y="0" on="1"/>
        <pt x="455" y="0" on="1"/>
        <pt x="405" y="140" on="1"/>
        <pt x="172" y="140" on="1"/>
        <pt x="123" y="0" on="1"/>
        <pt x="6" y="0" on="1"/>
      </contour>
      <contour>
        <pt x="383" y="225" on="1"/>
        <pt x="323" y="400" on="1"/>
        <pt x="294" y="488" on="1"/>
        <pt x="284" y="488" on="1"/>
        <pt x="255" y="399" on="1"/>
        <pt x="194" y="225" on="1"/>
      </contour>
    </TTGlyph>
    <TTGlyph name="AE" xMin="0" yMin="0" xMax="807" yMax="740">
      <contour>
        <pt x="0" y="7" on="1"/>
        <pt x="251" y="740" on="1"/>
        <pt x="797" y="740" on="1"/>
        <pt x="797" y="633" on="1"/>
        <pt x="512" y="633" on="1"/>
        <pt x="524" y="426" on="1"/>
        <pt x="778" y="426" on="1"/>
        <pt x="778" y="319" on="1"/>
        <pt x="530" y="319" on="1"/>
        <pt x="542" y="107" on="1"/>
        <pt x="807" y="107" on="1"/>
        <pt x="807" y="0" on="1"/>
        <pt x="417" y="0" on="1"/>
        <pt x="409" y="196" on="1"/>
        <pt x="196" y="196" on="1"/>
        <pt x="130" y="0" on="1"/>
        <pt x="0" y="0" on="1"/>
      </contour>
      <contour>
        <pt x="233" y="304" on="1"/>
        <pt x="404" y="304" on="1"/>
        <pt x="391" y="641" on="1"/>
        <pt x="348" y="641" on="1"/>
      </contour>
    </TTGlyph>
    <TTGlyph name="AE.sc" xMin="6" yMin="0" xMax="734" yMax="577">
      <contour>
        <pt x="6" y="6" on="1"/>
        <pt x="230" y="577" on="1"/>
        <pt x="725" y="577" on="1"/>
        <pt x="725" y="480" on="1"/>
        <pt x="473" y="480" on="1"/>
        <pt x="481" y="336" on="1"/>
        <pt x="708" y="336" on="1"/>
        <pt x="708" y="245" on="1"/>
        <pt x="490" y="245" on="1"/>
        <pt x="499" y="97" on="1"/>
        <pt x="734" y="97" on="1"/>
        <pt x="734" y="0" on="1"/>
        <pt x="380" y="0" on="1"/>
        <pt x="374" y="140" on="1"/>
        <pt x="184" y="140" on="1"/>
        <pt x="129" y="0" on="1"/>
        <pt x="6" y="0" on="1"/>
      </contour>
      <contour>
        <pt x="218" y="228" on="1"/>
        <pt x="369" y="228" on="1"/>
        <pt x="358" y="486" on="1"/>
        <pt x="321" y="486" on="1"/>
      </contour>
    </TTGlyph>
    <TTGlyph name="AEacute" xMin="0" yMin="0" xMax="807" yMax="958">
      <contour>
        <pt x="438" y="799" on="1"/>
        <pt x="508" y="958" on="1"/>
        <pt x="638" y="958" on="1"/>
        <pt x="531" y="792" on="1"/>
      </contour>
      <contour>
        <pt x="0" y="7" on="1"/>
        <pt x="251" y="740" on="1"/>
        <pt x="797" y="740" on="1"/>
        <pt x="797" y="633" on="1"/>
        <pt x="512" y="633" on="1"/>
        <pt x="524" y="426" on="1"/>
        <pt x="778" y="426" on="1"/>
        <pt x="778" y="319" on="1"/>
        <pt x="530" y="319" on="1"/>
        <pt x="542" y="107" on="1"/>
        <pt x="807" y="107" on="1"/>
        <pt x="807" y="0" on="1"/>
        <pt x="417" y="0" on="1"/>
        <pt x="409" y="196" on="1"/>
        <pt x="196" y="196" on="1"/>
        <pt x="130" y="0" on="1"/>
        <pt x="0" y="0" on="1"/>
      </contour>
      <contour>
        <pt x="233" y="304" on="1"/>
        <pt x="404" y="304" on="1"/>
        <pt x="391" y="641" on="1"/>
        <pt x="348" y="641" on="1"/>
      </contour>
    </TTGlyph>
    <TTGlyph name="AEacute.sc" xMin="6" yMin="0" xMax="734" yMax="758">
      <contour>
        <pt x="6" y="6" on="1"/>
        <pt x="230" y="577" on="1"/>
        <pt x="725" y="577" on="1"/>
        <pt x="725" y="480" on="1"/>
        <pt x="473" y="480" on="1"/>
        <pt x="481" y="336" on="1"/>
        <pt x="708" y="336" on="1"/>
        <pt x="708" y="245" on="1"/>
        <pt x="490" y="245" on="1"/>
        <pt x="499" y="97" on="1"/>
        <pt x="734" y="97" on="1"/>
        <pt x="734" y="0" on="1"/>
        <pt x="380" y="0" on="1"/>
        <pt x="374" y="140" on="1"/>
        <pt x="184" y="140" on="1"/>
        <pt x="129" y="0" on="1"/>
        <pt x="6" y="0" on="1"/>
      </contour>
      <contour>
        <pt x="369" y="228" on="1"/>
        <pt x="358" y="486" on="1"/>
        <pt x="321" y="486" on="1"/>
        <pt x="218" y="228" on="1"/>
      </contour>
      <contour>
        <pt x="394" y="626" on="1"/>
        <pt x="456" y="758" on="1"/>
        <pt x="579" y="758" on="1"/>
        <pt x="482" y="619" on="1"/>
      </contour>
    </TTGlyph>
    <TTGlyph name="Aacute" xMin="2" yMin="0" xMax="629" yMax="958">
      <contour>
        <pt x="2" y="7" on="1"/>
        <pt x="220" y="740" on="1"/>
        <pt x="411" y="740" on="1"/>
        <pt x="629" y="7" on="1"/>
        <pt x="629" y="0" on="1"/>
        <pt x="506" y="0" on="1"/>
        <pt x="446" y="198" on="1"/>
        <pt x="184" y="198" on="1"/>
        <pt x="125" y="0" on="1"/>
        <pt x="2" y="0" on="1"/>
      </contour>
      <contour>
        <pt x="419" y="302" on="1"/>
        <pt x="354" y="523" on="1"/>
        <pt x="321" y="642" on="1"/>
        <pt x="310" y="642" on="1"/>
        <pt x="277" y="523" on="1"/>
        <pt x="211" y="302" on="1"/>
      </contour>
      <contour>
        <pt x="265" y="799" on="1"/>
        <pt x="335" y="958" on="1"/>
        <pt x="465" y="958" on="1"/>
        <pt x="358" y="792" on="1"/>
      </contour>
    </TTGlyph>
    <TTGlyph name="Aacute.sc" xMin="6" yMin="0" xMax="572" yMax="758">
      <contour>
        <pt x="6" y="6" on="1"/>
        <pt x="198" y="577" on="1"/>
        <pt x="380" y="577" on="1"/>
        <pt x="572" y="6" on="1"/>
        <pt x="572" y="0" on="1"/>
        <pt x="455" y="0" on="1"/>
        <pt x="405" y="140" on="1"/>
        <pt x="172" y="140" on="1"/>
        <pt x="123" y="0" on="1"/>
        <pt x="6" y="0" on="1"/>
      </contour>
      <contour>
        <pt x="382" y="226" on="1"/>
        <pt x="323" y="400" on="1"/>
        <pt x="294" y="488" on="1"/>
        <pt x="284" y="488" on="1"/>
        <pt x="255" y="399" on="1"/>
        <pt x="195" y="226" on="1"/>
      </contour>
      <contour>
        <pt x="241" y="626" on="1"/>
        <pt x="302" y="758" on="1"/>
        <pt x="425" y="758" on="1"/>
        <pt x="329" y="619" on="1"/>
      </contour>
    </TTGlyph>
    <TTGlyph name="Abreve" xMin="2" yMin="0" xMax="629" yMax="967">
      <contour>
        <pt x="2" y="7" on="1"/>
        <pt x="220" y="740" on="1"/>
        <pt x="411" y="740" on="1"/>
        <pt x="629" y="7" on="1"/>
        <pt x="629" y="0" on="1"/>
        <pt x="506" y="0" on="1"/>
        <pt x="446" y="198" on="1"/>
        <pt x="184" y="198" on="1"/>
        <pt x="125" y="0" on="1"/>
        <pt x="2" y="0" on="1"/>
      </contour>
      <contour>
        <pt x="419" y="302" on="1"/>
        <pt x="354" y="523" on="1"/>
        <pt x="321" y="642" on="1"/>
        <pt x="310" y="642" on="1"/>
        <pt x="277" y="523" on="1"/>
        <pt x="211" y="302" on="1"/>
      </contour>
      <contour>
        <pt x="317" y="804" on="1"/>
        <pt x="227" y="804" on="0"/>
        <pt x="139" y="892" on="0"/>
        <pt x="139" y="967" on="1"/>
        <pt x="227" y="967" on="1"/>
        <pt x="227" y="917" on="0"/>
        <pt x="269" y="870" on="0"/>
        <pt x="317" y="870" on="1"/>
        <pt x="363" y="870" on="0"/>
        <pt x="405" y="917" on="0"/>
        <pt x="405" y="967" on="1"/>
        <pt x="494" y="967" on="1"/>
        <pt x="494" y="892" on="0"/>
        <pt x="405" y="804" on="0"/>
      </contour>
    </TTGlyph>
    <TTGlyph name="Abreve.sc" xMin="6" yMin="0" xMax="572" yMax="760">
      <contour>
        <pt x="290" y="625" on="1"/>
        <pt x="208" y="625" on="0"/>
        <pt x="128" y="699" on="0"/>
        <pt x="128" y="760" on="1"/>
        <pt x="211" y="760" on="1"/>
        <pt x="211" y="720" on="0"/>
        <pt x="247" y="684" on="0"/>
        <pt x="290" y="684" on="1"/>
        <pt x="332" y="684" on="0"/>
        <pt x="368" y="720" on="0"/>
        <pt x="368" y="760" on="1"/>
        <pt x="451" y="760" on="1"/>
        <pt x="451" y="699" on="0"/>
        <pt x="371" y="625" on="0"/>
      </contour>
      <contour>
        <pt x="6" y="6" on="1"/>
        <pt x="198" y="577" on="1"/>
        <pt x="380" y="577" on="1"/>
        <pt x="572" y="6" on="1"/>
        <pt x="572" y="0" on="1"/>
        <pt x="455" y="0" on="1"/>
        <pt x="405" y="140" on="1"/>
        <pt x="172" y="140" on="1"/>
        <pt x="123" y="0" on="1"/>
        <pt x="6" y="0" on="1"/>
      </contour>
      <contour>
        <pt x="382" y="226" on="1"/>
        <pt x="323" y="400" on="1"/>
        <pt x="294" y="488" on="1"/>
        <pt x="284" y="488" on="1"/>
        <pt x="255" y="399" on="1"/>
        <pt x="195" y="226" on="1"/>
      </contour>
    </TTGlyph>
    <TTGlyph name="Acircumflex" xMin="2" yMin="0" xMax="629" yMax="966">
      <contour>
        <pt x="2" y="7" on="1"/>
        <pt x="220" y="740" on="1"/>
        <pt x="411" y="740" on="1"/>
        <pt x="629" y="7" on="1"/>
        <pt x="629" y="0" on="1"/>
        <pt x="506" y="0" on="1"/>
        <pt x="446" y="198" on="1"/>
        <pt x="184" y="198" on="1"/>
        <pt x="125" y="0" on="1"/>
        <pt x="2" y="0" on="1"/>
      </contour>
      <contour>
        <pt x="419" y="302" on="1"/>
        <pt x="354" y="523" on="1"/>
        <pt x="321" y="642" on="1"/>
        <pt x="310" y="642" on="1"/>
        <pt x="277" y="523" on="1"/>
        <pt x="211" y="302" on="1"/>
      </contour>
      <contour>
        <pt x="156" y="893" on="1"/>
        <pt x="317" y="966" on="1"/>
        <pt x="478" y="893" on="1"/>
        <pt x="478" y="802" on="1"/>
        <pt x="317" y="875" on="1"/>
        <pt x="156" y="802" on="1"/>
      </contour>
    </TTGlyph>
    <TTGlyph name="Acircumflex.sc" xMin="6" yMin="0" xMax="572" yMax="762">
      <contour>
        <pt x="6" y="6" on="1"/>
        <pt x="198" y="577" on="1"/>
        <pt x="380" y="577" on="1"/>
        <pt x="572" y="6" on="1"/>
        <pt x="572" y="0" on="1"/>
        <pt x="455" y="0" on="1"/>
        <pt x="405" y="140" on="1"/>
        <pt x="172" y="140" on="1"/>
        <pt x="123" y="0" on="1"/>
        <pt x="6" y="0" on="1"/>
      </contour>
      <contour>
        <pt x="382" y="226" on="1"/>
        <pt x="323" y="400" on="1"/>
        <pt x="294" y="488" on="1"/>
        <pt x="284" y="488" on="1"/>
        <pt x="255" y="399" on="1"/>
        <pt x="195" y="226" on="1"/>
      </contour>
      <contour>
        <pt x="144" y="704" on="1"/>
        <pt x="290" y="762" on="1"/>
        <pt x="437" y="704" on="1"/>
        <pt x="437" y="622" on="1"/>
        <pt x="290" y="680" on="1"/>
        <pt x="144" y="622" on="1"/>
      </contour>
    </TTGlyph>
    <TTGlyph name="Adblgrave" xMin="2" yMin="0" xMax="629" yMax="957">
      <contour>
        <pt x="2" y="7" on="1"/>
        <pt x="220" y="740" on="1"/>
        <pt x="411" y="740" on="1"/>
        <pt x="629" y="7" on="1"/>
        <pt x="629" y="0" on="1"/>
        <pt x="506" y="0" on="1"/>
        <pt x="446" y="198" on="1"/>
        <pt x="184" y="198" on="1"/>
        <pt x="125" y="0" on="1"/>
        <pt x="2" y="0" on="1"/>
      </contour>
      <contour>
        <pt x="419" y="302" on="1"/>
        <pt x="354" y="523" on="1"/>
        <pt x="321" y="642" on="1"/>
        <pt x="310" y="642" on="1"/>
        <pt x="277" y="523" on="1"/>
        <pt x="211" y="302" on="1"/>
      </contour>
      <contour>
        <pt x="194" y="791" on="1"/>
        <pt x="87" y="957" on="1"/>
        <pt x="201" y="957" on="1"/>
        <pt x="271" y="803" on="1"/>
      </contour>
      <contour>
        <pt x="368" y="791" on="1"/>
        <pt x="260" y="957" on="1"/>
        <pt x="375" y="957" on="1"/>
        <pt x="445" y="803" on="1"/>
      </contour>
    </TTGlyph>
    <TTGlyph name="Adblgrave.sc" xMin="6" yMin="0" xMax="572" yMax="757">
      <contour>
        <pt x="6" y="6" on="1"/>
        <pt x="198" y="577" on="1"/>
        <pt x="380" y="577" on="1"/>
        <pt x="572" y="6" on="1"/>
        <pt x="572" y="0" on="1"/>
        <pt x="455" y="0" on="1"/>
        <pt x="405" y="140" on="1"/>
        <pt x="172" y="140" on="1"/>
        <pt x="123" y="0" on="1"/>
        <pt x="6" y="0" on="1"/>
      </contour>
      <contour>
        <pt x="382" y="226" on="1"/>
        <pt x="323" y="400" on="1"/>
        <pt x="294" y="488" on="1"/>
        <pt x="284" y="488" on="1"/>
        <pt x="255" y="399" on="1"/>
        <pt x="195" y="226" on="1"/>
      </contour>
      <contour>
        <pt x="79" y="757" on="1"/>
        <pt x="188" y="757" on="1"/>
        <pt x="249" y="627" on="1"/>
        <pt x="176" y="618" on="1"/>
      </contour>
      <contour>
        <pt x="237" y="757" on="1"/>
        <pt x="346" y="757" on="1"/>
        <pt x="407" y="627" on="1"/>
        <pt x="334" y="618" on="1"/>
      </contour>
    </TTGlyph>
    <TTGlyph name="Adieresis" xMin="2" yMin="0" xMax="629" yMax="949">
      <contour>
        <pt x="2" y="7" on="1"/>
        <pt x="220" y="740" on="1"/>
        <pt x="411" y="740" on="1"/>
        <pt x="629" y="7" on="1"/>
        <pt x="629" y="0" on="1"/>
        <pt x="506" y="0" on="1"/>
        <pt x="446" y="198" on="1"/>
        <pt x="184" y="198" on="1"/>
        <pt x="125" y="0" on="1"/>
        <pt x="2" y="0" on="1"/>
      </contour>
      <contour>
        <pt x="419" y="302" on="1"/>
        <pt x="354" y="523" on="1"/>
        <pt x="321" y="642" on="1"/>
        <pt x="310" y="642" on="1"/>
        <pt x="277" y="523" on="1"/>
        <pt x="211" y="302" on="1"/>
      </contour>
      <contour>
        <pt x="196" y="807" on="1"/>
        <pt x="124" y="807" on="0"/>
        <pt x="124" y="878" on="1"/>
        <pt x="124" y="916" on="0"/>
        <pt x="159" y="949" on="0"/>
        <pt x="196" y="949" on="1"/>
        <pt x="234" y="949" on="0"/>
        <pt x="270" y="916" on="0"/>
        <pt x="270" y="878" on="1"/>
        <pt x="270" y="840" on="0"/>
        <pt x="234" y="807" on="0"/>
      </contour>
      <contour>
        <pt x="436" y="807" on="1"/>
        <pt x="363" y="807" on="0"/>
        <pt x="363" y="878" on="1"/>
        <pt x="363" y="916" on="0"/>
        <pt x="398" y="949" on="0"/>
        <pt x="436" y="949" on="1"/>
        <pt x="473" y="949" on="0"/>
        <pt x="509" y="916" on="0"/>
        <pt x="509" y="878" on="1"/>
        <pt x="509" y="840" on="0"/>
        <pt x="473" y="807" on="0"/>
      </contour>
    </TTGlyph>
    <TTGlyph name="Adieresis.sc" xMin="6" yMin="0" xMax="572" yMax="757">
      <contour>
        <pt x="180" y="627" on="1"/>
        <pt x="113" y="627" on="0"/>
        <pt x="113" y="692" on="1"/>
        <pt x="113" y="727" on="0"/>
        <pt x="145" y="757" on="0"/>
        <pt x="180" y="757" on="1"/>
        <pt x="216" y="757" on="0"/>
        <pt x="249" y="726" on="0"/>
        <pt x="249" y="692" on="1"/>
        <pt x="249" y="658" on="0"/>
        <pt x="216" y="627" on="0"/>
      </contour>
      <contour>
        <pt x="399" y="627" on="1"/>
        <pt x="331" y="627" on="0"/>
        <pt x="331" y="692" on="1"/>
        <pt x="331" y="727" on="0"/>
        <pt x="364" y="757" on="0"/>
        <pt x="399" y="757" on="1"/>
        <pt x="467" y="757" on="0"/>
        <pt x="467" y="692" on="1"/>
        <pt x="467" y="627" on="0"/>
      </contour>
      <contour>
        <pt x="6" y="6" on="1"/>
        <pt x="198" y="577" on="1"/>
        <pt x="380" y="577" on="1"/>
        <pt x="572" y="6" on="1"/>
        <pt x="572" y="0" on="1"/>
        <pt x="455" y="0" on="1"/>
        <pt x="405" y="140" on="1"/>
        <pt x="172" y="140" on="1"/>
        <pt x="123" y="0" on="1"/>
        <pt x="6" y="0" on="1"/>
      </contour>
      <contour>
        <pt x="382" y="226" on="1"/>
        <pt x="323" y="400" on="1"/>
        <pt x="294" y="488" on="1"/>
        <pt x="284" y="488" on="1"/>
        <pt x="255" y="399" on="1"/>
        <pt x="195" y="226" on="1"/>
      </contour>
    </TTGlyph>
    <TTGlyph name="Agrave" xMin="2" yMin="0" xMax="629" yMax="958">
      <contour>
        <pt x="2" y="7" on="1"/>
        <pt x="220" y="740" on="1"/>
        <pt x="411" y="740" on="1"/>
        <pt x="629" y="7" on="1"/>
        <pt x="629" y="0" on="1"/>
        <pt x="506" y="0" on="1"/>
        <pt x="446" y="198" on="1"/>
        <pt x="184" y="198" on="1"/>
        <pt x="125" y="0" on="1"/>
        <pt x="2" y="0" on="1"/>
      </contour>
      <contour>
        <pt x="419" y="302" on="1"/>
        <pt x="354" y="523" on="1"/>
        <pt x="321" y="642" on="1"/>
        <pt x="310" y="642" on="1"/>
        <pt x="277" y="523" on="1"/>
        <pt x="211" y="302" on="1"/>
      </contour>
      <contour>
        <pt x="265" y="792" on="1"/>
        <pt x="158" y="958" on="1"/>
        <pt x="288" y="958" on="1"/>
        <pt x="358" y="804" on="1"/>
      </contour>
    </TTGlyph>
    <TTGlyph name="Agrave.sc" xMin="6" yMin="0" xMax="572" yMax="758">
      <contour>
        <pt x="6" y="6" on="1"/>
        <pt x="198" y="577" on="1"/>
        <pt x="380" y="577" on="1"/>
        <pt x="572" y="6" on="1"/>
        <pt x="572" y="0" on="1"/>
        <pt x="455" y="0" on="1"/>
        <pt x="405" y="140" on="1"/>
        <pt x="172" y="140" on="1"/>
        <pt x="123" y="0" on="1"/>
        <pt x="6" y="0" on="1"/>
      </contour>
      <contour>
        <pt x="382" y="226" on="1"/>
        <pt x="323" y="400" on="1"/>
        <pt x="294" y="488" on="1"/>
        <pt x="284" y="488" on="1"/>
        <pt x="255" y="399" on="1"/>
        <pt x="195" y="226" on="1"/>
      </contour>
      <contour>
        <pt x="240" y="619" on="1"/>
        <pt x="144" y="758" on="1"/>
        <pt x="267" y="758" on="1"/>
        <pt x="328" y="628" on="1"/>
      </contour>
    </TTGlyph>
    <TTGlyph name="Ainvertedbreve" xMin="2" yMin="0" xMax="629" yMax="976">
      <contour>
        <pt x="2" y="7" on="1"/>
        <pt x="220" y="740" on="1"/>
        <pt x="411" y="740" on="1"/>
        <pt x="629" y="7" on="1"/>
        <pt x="629" y="0" on="1"/>
        <pt x="506" y="0" on="1"/>
        <pt x="446" y="198" on="1"/>
        <pt x="184" y="198" on="1"/>
        <pt x="125" y="0" on="1"/>
        <pt x="2" y="0" on="1"/>
      </contour>
      <contour>
        <pt x="419" y="302" on="1"/>
        <pt x="354" y="523" on="1"/>
        <pt x="321" y="642" on="1"/>
        <pt x="310" y="642" on="1"/>
        <pt x="277" y="523" on="1"/>
        <pt x="211" y="302" on="1"/>
      </contour>
      <contour>
        <pt x="406" y="813" on="1"/>
        <pt x="406" y="864" on="0"/>
        <pt x="364" y="911" on="0"/>
        <pt x="317" y="911" on="1"/>
        <pt x="269" y="911" on="0"/>
        <pt x="228" y="864" on="0"/>
        <pt x="228" y="813" on="1"/>
        <pt x="139" y="813" on="1"/>
        <pt x="139" y="888" on="0"/>
        <pt x="228" y="976" on="0"/>
        <pt x="317" y="976" on="1"/>
        <pt x="405" y="976" on="0"/>
        <pt x="495" y="888" on="0"/>
        <pt x="495" y="813" on="1"/>
      </contour>
    </TTGlyph>
    <TTGlyph name="Ainvertedbreve.sc" xMin="6" yMin="0" xMax="572" yMax="767">
      <contour>
        <pt x="129" y="633" on="1"/>
        <pt x="129" y="694" on="0"/>
        <pt x="208" y="767" on="0"/>
        <pt x="290" y="767" on="1"/>
        <pt x="372" y="767" on="0"/>
        <pt x="452" y="695" on="0"/>
        <pt x="452" y="633" on="1"/>
        <pt x="368" y="633" on="1"/>
        <pt x="368" y="672" on="0"/>
        <pt x="332" y="708" on="0"/>
        <pt x="290" y="708" on="1"/>
        <pt x="248" y="708" on="0"/>
        <pt x="212" y="672" on="0"/>
        <pt x="212" y="633" on="1"/>
      </contour>
      <contour>
        <pt x="6" y="6" on="1"/>
        <pt x="198" y="577" on="1"/>
        <pt x="380" y="577" on="1"/>
        <pt x="572" y="6" on="1"/>
        <pt x="572" y="0" on="1"/>
        <pt x="455" y="0" on="1"/>
        <pt x="405" y="140" on="1"/>
        <pt x="172" y="140" on="1"/>
        <pt x="123" y="0" on="1"/>
        <pt x="6" y="0" on="1"/>
      </contour>
      <contour>
        <pt x="382" y="226" on="1"/>
        <pt x="323" y="400" on="1"/>
        <pt x="294" y="488" on="1"/>
        <pt x="284" y="488" on="1"/>
        <pt x="255" y="399" on="1"/>
        <pt x="195" y="226" on="1"/>
      </contour>
    </TTGlyph>
    <TTGlyph name="Amacron" xMin="2" yMin="0" xMax="629" yMax="927">
      <contour>
        <pt x="2" y="7" on="1"/>
        <pt x="220" y="740" on="1"/>
        <pt x="411" y="740" on="1"/>
        <pt x="629" y="7" on="1"/>
        <pt x="629" y="0" on="1"/>
        <pt x="506" y="0" on="1"/>
        <pt x="446" y="198" on="1"/>
        <pt x="184" y="198" on="1"/>
        <pt x="125" y="0" on="1"/>
        <pt x="2" y="0" on="1"/>
      </contour>
      <contour>
        <pt x="419" y="302" on="1"/>
        <pt x="354" y="523" on="1"/>
        <pt x="321" y="642" on="1"/>
        <pt x="310" y="642" on="1"/>
        <pt x="277" y="523" on="1"/>
        <pt x="211" y="302" on="1"/>
      </contour>
      <contour>
        <pt x="158" y="927" on="1"/>
        <pt x="468" y="927" on="1"/>
        <pt x="468" y="840" on="1"/>
        <pt x="158" y="840" on="1"/>
      </contour>
    </TTGlyph>
    <TTGlyph name="Amacron.sc" xMin="6" yMin="0" xMax="572" yMax="735">
      <contour>
        <pt x="6" y="6" on="1"/>
        <pt x="198" y="577" on="1"/>
        <pt x="380" y="577" on="1"/>
        <pt x="572" y="6" on="1"/>
        <pt x="572" y="0" on="1"/>
        <pt x="455" y="0" on="1"/>
        <pt x="405" y="140" on="1"/>
        <pt x="172" y="140" on="1"/>
        <pt x="123" y="0" on="1"/>
        <pt x="6" y="0" on="1"/>
      </contour>
      <contour>
        <pt x="382" y="226" on="1"/>
        <pt x="323" y="400" on="1"/>
        <pt x="294" y="488" on="1"/>
        <pt x="284" y="488" on="1"/>
        <pt x="255" y="399" on="1"/>
        <pt x="195" y="226" on="1"/>
      </contour>
      <contour>
        <pt x="145" y="735" on="1"/>
        <pt x="430" y="735" on="1"/>
        <pt x="430" y="655" on="1"/>
        <pt x="145" y="655" on="1"/>
      </contour>
    </TTGlyph>
    <TTGlyph name="Aogonek" xMin="2" yMin="-220" xMax="629" yMax="740">
      <contour>
        <pt x="554" y="-220" on="1"/>
        <pt x="438" y="-220" on="0"/>
        <pt x="438" y="-127" on="1"/>
        <pt x="438" y="-92" on="0"/>
        <pt x="480" y="-30" on="0"/>
        <pt x="525" y="0" on="1"/>
        <pt x="506" y="0" on="1"/>
        <pt x="446" y="198" on="1"/>
        <pt x="184" y="198" on="1"/>
        <pt x="125" y="0" on="1"/>
        <pt x="2" y="0" on="1"/>
        <pt x="2" y="7" on="1"/>
        <pt x="220" y="740" on="1"/>
        <pt x="411" y="740" on="1"/>
        <pt x="629" y="7" on="1"/>
        <pt x="629" y="-12" on="1"/>
        <pt x="572" y="-35" on="0"/>
        <pt x="523" y="-90" on="0"/>
        <pt x="523" y="-114" on="1"/>
        <pt x="523" y="-145" on="0"/>
        <pt x="563" y="-145" on="1"/>
        <pt x="578" y="-145" on="0"/>
        <pt x="614" y="-138" on="0"/>
        <pt x="629" y="-133" on="1"/>
        <pt x="629" y="-208" on="1"/>
        <pt x="610" y="-214" on="0"/>
        <pt x="574" y="-220" on="0"/>
      </contour>
      <contour>
        <pt x="419" y="302" on="1"/>
        <pt x="354" y="523" on="1"/>
        <pt x="321" y="642" on="1"/>
        <pt x="310" y="642" on="1"/>
        <pt x="277" y="523" on="1"/>
        <pt x="211" y="302" on="1"/>
      </contour>
    </TTGlyph>
    <TTGlyph name="Aogonek.sc" xMin="5" yMin="-168" xMax="572" yMax="577">
      <contour>
        <pt x="502" y="-168" on="1"/>
        <pt x="397" y="-168" on="0"/>
        <pt x="397" y="-94" on="1"/>
        <pt x="397" y="-68" on="0"/>
        <pt x="430" y="-22" on="0"/>
        <pt x="465" y="0" on="1"/>
        <pt x="455" y="0" on="1"/>
        <pt x="404" y="140" on="1"/>
        <pt x="172" y="140" on="1"/>
        <pt x="122" y="0" on="1"/>
        <pt x="5" y="0" on="1"/>
        <pt x="5" y="6" on="1"/>
        <pt x="198" y="577" on="1"/>
        <pt x="380" y="577" on="1"/>
        <pt x="572" y="6" on="1"/>
        <pt x="572" y="-7" on="1"/>
        <pt x="517" y="-26" on="0"/>
        <pt x="477" y="-64" on="0"/>
        <pt x="477" y="-79" on="1"/>
        <pt x="477" y="-91" on="0"/>
        <pt x="494" y="-100" on="0"/>
        <pt x="510" y="-100" on="1"/>
        <pt x="524" y="-100" on="0"/>
        <pt x="559" y="-95" on="0"/>
        <pt x="572" y="-90" on="1"/>
        <pt x="572" y="-159" on="1"/>
        <pt x="536" y="-168" on="0"/>
      </contour>
      <contour>
        <pt x="381" y="226" on="1"/>
        <pt x="322" y="403" on="1"/>
        <pt x="293" y="488" on="1"/>
        <pt x="283" y="488" on="1"/>
        <pt x="255" y="403" on="1"/>
        <pt x="193" y="226" on="1"/>
      </contour>
    </TTGlyph>
    <TTGlyph name="Aring" xMin="2" yMin="0" xMax="629" yMax="973">
      <contour>
        <pt x="2" y="7" on="1"/>
        <pt x="220" y="740" on="1"/>
        <pt x="411" y="740" on="1"/>
        <pt x="629" y="7" on="1"/>
        <pt x="629" y="0" on="1"/>
        <pt x="506" y="0" on="1"/>
        <pt x="446" y="198" on="1"/>
        <pt x="184" y="198" on="1"/>
        <pt x="125" y="0" on="1"/>
        <pt x="2" y="0" on="1"/>
      </contour>
      <contour>
        <pt x="419" y="302" on="1"/>
        <pt x="354" y="523" on="1"/>
        <pt x="321" y="642" on="1"/>
        <pt x="310" y="642" on="1"/>
        <pt x="277" y="523" on="1"/>
        <pt x="211" y="302" on="1"/>
      </contour>
      <contour>
        <pt x="315" y="753" on="1"/>
        <pt x="264" y="753" on="0"/>
        <pt x="200" y="815" on="0"/>
        <pt x="200" y="862" on="1"/>
        <pt x="200" y="886" on="0"/>
        <pt x="217" y="926" on="0"/>
        <pt x="247" y="956" on="0"/>
        <pt x="289" y="973" on="0"/>
        <pt x="315" y="973" on="1"/>
        <pt x="340" y="973" on="0"/>
        <pt x="382" y="956" on="0"/>
        <pt x="412" y="926" on="0"/>
        <pt x="429" y="886" on="0"/>
        <pt x="429" y="862" on="1"/>
        <pt x="429" y="815" on="0"/>
        <pt x="366" y="753" on="0"/>
      </contour>
      <contour>
        <pt x="315" y="804" on="1"/>
        <pt x="374" y="804" on="0"/>
        <pt x="374" y="862" on="1"/>
        <pt x="374" y="922" on="0"/>
        <pt x="315" y="922" on="1"/>
        <pt x="283" y="922" on="0"/>
        <pt x="256" y="891" on="0"/>
        <pt x="256" y="862" on="1"/>
        <pt x="256" y="834" on="0"/>
        <pt x="283" y="804" on="0"/>
      </contour>
    </TTGlyph>
    <TTGlyph name="Aring.sc" xMin="6" yMin="0" xMax="572" yMax="788">
      <contour>
        <pt x="6" y="6" on="1"/>
        <pt x="198" y="577" on="1"/>
        <pt x="380" y="577" on="1"/>
        <pt x="572" y="6" on="1"/>
        <pt x="572" y="0" on="1"/>
        <pt x="455" y="0" on="1"/>
        <pt x="405" y="140" on="1"/>
        <pt x="172" y="140" on="1"/>
        <pt x="123" y="0" on="1"/>
        <pt x="6" y="0" on="1"/>
      </contour>
      <contour>
        <pt x="382" y="226" on="1"/>
        <pt x="323" y="400" on="1"/>
        <pt x="294" y="488" on="1"/>
        <pt x="284" y="488" on="1"/>
        <pt x="255" y="399" on="1"/>
        <pt x="194" y="226" on="1"/>
      </contour>
      <contour>
        <pt x="288" y="612" on="1"/>
        <pt x="242" y="612" on="0"/>
        <pt x="185" y="661" on="0"/>
        <pt x="185" y="699" on="1"/>
        <pt x="185" y="737" on="0"/>
        <pt x="242" y="788" on="0"/>
        <pt x="288" y="788" on="1"/>
        <pt x="335" y="788" on="0"/>
        <pt x="392" y="737" on="0"/>
        <pt x="392" y="699" on="1"/>
        <pt x="392" y="661" on="0"/>
        <pt x="335" y="612" on="0"/>
      </contour>
      <contour>
        <pt x="288" y="656" on="1"/>
        <pt x="341" y="656" on="0"/>
        <pt x="341" y="699" on="1"/>
        <pt x="341" y="722" on="0"/>
        <pt x="317" y="744" on="0"/>
        <pt x="288" y="744" on="1"/>
        <pt x="260" y="744" on="0"/>
        <pt x="236" y="722" on="0"/>
        <pt x="236" y="699" on="1"/>
        <pt x="236" y="677" on="0"/>
        <pt x="260" y="656" on="0"/>
      </contour>
    </TTGlyph>
    <TTGlyph name="Aringacute" xMin="2" yMin="0" xMax="629" yMax="982">
      <contour>
        <pt x="2" y="7" on="1"/>
        <pt x="201" y="662" on="1"/>
        <pt x="170" y="693" on="0"/>
        <pt x="170" y="745" on="1"/>
        <pt x="170" y="795" on="0"/>
        <pt x="228" y="865" on="0"/>
        <pt x="280" y="874" on="1"/>
        <pt x="332" y="982" on="1"/>
        <pt x="462" y="982" on="1"/>
        <pt x="384" y="862" on="1"/>
        <pt x="420" y="847" on="0"/>
        <pt x="461" y="786" on="0"/>
        <pt x="461" y="745" on="1"/>
        <pt x="461" y="721" on="0"/>
        <pt x="444" y="679" on="0"/>
        <pt x="430" y="663" on="1"/>
        <pt x="629" y="7" on="1"/>
        <pt x="629" y="0" on="1"/>
        <pt x="506" y="0" on="1"/>
        <pt x="447" y="196" on="1"/>
        <pt x="184" y="196" on="1"/>
        <pt x="125" y="0" on="1"/>
        <pt x="2" y="0" on="1"/>
      </contour>
      <contour>
        <pt x="314" y="680" on="1"/>
        <pt x="346" y="680" on="0"/>
        <pt x="384" y="716" on="0"/>
        <pt x="384" y="745" on="1"/>
        <pt x="384" y="774" on="0"/>
        <pt x="346" y="811" on="0"/>
        <pt x="314" y="811" on="1"/>
        <pt x="282" y="811" on="0"/>
        <pt x="247" y="774" on="0"/>
        <pt x="247" y="745" on="1"/>
        <pt x="247" y="716" on="0"/>
        <pt x="283" y="680" on="0"/>
      </contour>
      <contour>
        <pt x="418" y="304" on="1"/>
        <pt x="355" y="523" on="1"/>
        <pt x="331" y="610" on="1"/>
        <pt x="300" y="610" on="1"/>
        <pt x="276" y="523" on="1"/>
        <pt x="212" y="304" on="1"/>
      </contour>
    </TTGlyph>
    <TTGlyph name="Aringacute.sc" xMin="6" yMin="0" xMax="572" yMax="780">
      <contour>
        <pt x="6" y="6" on="1"/>
        <pt x="182" y="521" on="1"/>
        <pt x="155" y="546" on="0"/>
        <pt x="155" y="586" on="1"/>
        <pt x="155" y="628" on="0"/>
        <pt x="207" y="684" on="0"/>
        <pt x="255" y="692" on="1"/>
        <pt x="300" y="780" on="1"/>
        <pt x="423" y="780" on="1"/>
        <pt x="353" y="681" on="1"/>
        <pt x="385" y="668" on="0"/>
        <pt x="422" y="618" on="0"/>
        <pt x="422" y="586" on="1"/>
        <pt x="422" y="547" on="0"/>
        <pt x="395" y="522" on="1"/>
        <pt x="572" y="6" on="1"/>
        <pt x="572" y="0" on="1"/>
        <pt x="455" y="0" on="1"/>
        <pt x="405" y="140" on="1"/>
        <pt x="172" y="140" on="1"/>
        <pt x="122" y="0" on="1"/>
        <pt x="6" y="0" on="1"/>
      </contour>
      <contour>
        <pt x="288" y="536" on="1"/>
        <pt x="317" y="536" on="0"/>
        <pt x="350" y="564" on="0"/>
        <pt x="350" y="586" on="1"/>
        <pt x="350" y="609" on="0"/>
        <pt x="317" y="636" on="0"/>
        <pt x="288" y="636" on="1"/>
        <pt x="259" y="636" on="0"/>
        <pt x="227" y="609" on="0"/>
        <pt x="227" y="586" on="1"/>
        <pt x="227" y="563" on="0"/>
        <pt x="259" y="536" on="0"/>
      </contour>
      <contour>
        <pt x="382" y="226" on="1"/>
        <pt x="322" y="400" on="1"/>
        <pt x="301" y="471" on="1"/>
        <pt x="275" y="471" on="1"/>
        <pt x="255" y="399" on="1"/>
        <pt x="195" y="226" on="1"/>
      </contour>
    </TTGlyph>
    <TTGlyph name="Atilde" xMin="2" yMin="0" xMax="629" yMax="944">
      <contour>
        <pt x="2" y="7" on="1"/>
        <pt x="220" y="740" on="1"/>
        <pt x="411" y="740" on="1"/>
        <pt x="629" y="7" on="1"/>
        <pt x="629" y="0" on="1"/>
        <pt x="506" y="0" on="1"/>
        <pt x="446" y="198" on="1"/>
        <pt x="184" y="198" on="1"/>
        <pt x="125" y="0" on="1"/>
        <pt x="2" y="0" on="1"/>
      </contour>
      <contour>
        <pt x="419" y="302" on="1"/>
        <pt x="354" y="523" on="1"/>
        <pt x="321" y="642" on="1"/>
        <pt x="310" y="642" on="1"/>
        <pt x="277" y="523" on="1"/>
        <pt x="211" y="302" on="1"/>
      </contour>
      <contour>
        <pt x="133" y="847" on="1"/>
        <pt x="159" y="894" on="0"/>
        <pt x="228" y="944" on="0"/>
        <pt x="261" y="944" on="1"/>
        <pt x="282" y="944" on="0"/>
        <pt x="321" y="931" on="0"/>
        <pt x="358" y="916" on="0"/>
        <pt x="396" y="903" on="0"/>
        <pt x="416" y="903" on="1"/>
        <pt x="453" y="903" on="0"/>
        <pt x="491" y="942" on="1"/>
        <pt x="516" y="918" on="1"/>
        <pt x="491" y="870" on="0"/>
        <pt x="422" y="820" on="0"/>
        <pt x="388" y="820" on="1"/>
        <pt x="367" y="820" on="0"/>
        <pt x="329" y="832" on="0"/>
        <pt x="291" y="847" on="0"/>
        <pt x="254" y="859" on="0"/>
        <pt x="234" y="859" on="1"/>
        <pt x="214" y="859" on="0"/>
        <pt x="176" y="842" on="0"/>
        <pt x="156" y="822" on="1"/>
      </contour>
    </TTGlyph>
    <TTGlyph name="Atilde.sc" xMin="6" yMin="0" xMax="572" yMax="747">
      <contour>
        <pt x="6" y="6" on="1"/>
        <pt x="198" y="577" on="1"/>
        <pt x="380" y="577" on="1"/>
        <pt x="572" y="6" on="1"/>
        <pt x="572" y="0" on="1"/>
        <pt x="455" y="0" on="1"/>
        <pt x="405" y="140" on="1"/>
        <pt x="172" y="140" on="1"/>
        <pt x="123" y="0" on="1"/>
        <pt x="6" y="0" on="1"/>
      </contour>
      <contour>
        <pt x="382" y="226" on="1"/>
        <pt x="323" y="400" on="1"/>
        <pt x="294" y="488" on="1"/>
        <pt x="284" y="488" on="1"/>
        <pt x="255" y="399" on="1"/>
        <pt x="194" y="226" on="1"/>
      </contour>
      <contour>
        <pt x="123" y="660" on="1"/>
        <pt x="146" y="702" on="0"/>
        <pt x="210" y="747" on="0"/>
        <pt x="240" y="747" on="1"/>
        <pt x="259" y="747" on="0"/>
        <pt x="294" y="738" on="0"/>
        <pt x="328" y="726" on="0"/>
        <pt x="362" y="717" on="0"/>
        <pt x="380" y="717" on="1"/>
        <pt x="398" y="717" on="0"/>
        <pt x="431" y="729" on="0"/>
        <pt x="450" y="746" on="1"/>
        <pt x="471" y="726" on="1"/>
        <pt x="448" y="682" on="0"/>
        <pt x="384" y="638" on="0"/>
        <pt x="354" y="638" on="1"/>
        <pt x="335" y="638" on="0"/>
        <pt x="300" y="648" on="0"/>
        <pt x="265" y="659" on="0"/>
        <pt x="231" y="669" on="0"/>
        <pt x="213" y="669" on="1"/>
        <pt x="195" y="669" on="0"/>
        <pt x="161" y="656" on="0"/>
        <pt x="142" y="640" on="1"/>
      </contour>
    </TTGlyph>
    <TTGlyph name="B" xMin="69" yMin="-10" xMax="581" yMax="750">
      <contour>
        <pt x="287" y="-10" on="1"/>
        <pt x="235" y="-10" on="0"/>
        <pt x="120" y="-3" on="0"/>
        <pt x="69" y="5" on="1"/>
        <pt x="69" y="735" on="1"/>
        <pt x="137" y="742" on="0"/>
        <pt x="235" y="750" on="0"/>
        <pt x="281" y="750" on="1"/>
        <pt x="426" y="750" on="0"/>
        <pt x="559" y="651" on="0"/>
        <pt x="559" y="545" on="1"/>
        <pt x="559" y="479" on="0"/>
        <pt x="500" y="395" on="0"/>
        <pt x="443" y="381" on="1"/>
        <pt x="443" y="377" on="1"/>
        <pt x="509" y="365" on="0"/>
        <pt x="581" y="273" on="0"/>
        <pt x="581" y="199" on="1"/>
        <pt x="581" y="-10" on="0"/>
      </contour>
      <contour>
        <pt x="299" y="87" on="1"/>
        <pt x="450" y="88" on="0"/>
        <pt x="450" y="207" on="1"/>
        <pt x="450" y="271" on="0"/>
        <pt x="378" y="327" on="0"/>
        <pt x="294" y="327" on="1"/>
        <pt x="189" y="327" on="1"/>
        <pt x="189" y="94" on="1"/>
        <pt x="203" y="91" on="0"/>
        <pt x="262" y="87" on="0"/>
      </contour>
      <contour>
        <pt x="290" y="419" on="1"/>
        <pt x="366" y="419" on="0"/>
        <pt x="428" y="472" on="0"/>
        <pt x="428" y="537" on="1"/>
        <pt x="428" y="597" on="0"/>
        <pt x="363" y="652" on="0"/>
        <pt x="292" y="652" on="1"/>
        <pt x="264" y="652" on="0"/>
        <pt x="215" y="649" on="0"/>
        <pt x="189" y="645" on="1"/>
        <pt x="189" y="419" on="1"/>
      </contour>
    </TTGlyph>
    <TTGlyph name="B.sc" xMin="65" yMin="-8" xMax="528" yMax="585">
      <contour>
        <pt x="265" y="-8" on="1"/>
        <pt x="217" y="-8" on="0"/>
        <pt x="113" y="-2" on="0"/>
        <pt x="65" y="4" on="1"/>
        <pt x="65" y="573" on="1"/>
        <pt x="126" y="579" on="0"/>
        <pt x="216" y="585" on="0"/>
        <pt x="258" y="585" on="1"/>
        <pt x="389" y="585" on="0"/>
        <pt x="509" y="508" on="0"/>
        <pt x="509" y="423" on="1"/>
        <pt x="509" y="321" on="0"/>
        <pt x="405" y="298" on="1"/>
        <pt x="405" y="295" on="1"/>
        <pt x="465" y="284" on="0"/>
        <pt x="528" y="214" on="0"/>
        <pt x="528" y="157" on="1"/>
        <pt x="528" y="-8" on="0"/>
      </contour>
      <contour>
        <pt x="276" y="81" on="1"/>
        <pt x="408" y="81" on="0"/>
        <pt x="408" y="166" on="1"/>
        <pt x="408" y="212" on="0"/>
        <pt x="346" y="250" on="0"/>
        <pt x="273" y="250" on="1"/>
        <pt x="180" y="250" on="1"/>
        <pt x="180" y="86" on="1"/>
        <pt x="208" y="81" on="0"/>
      </contour>
      <contour>
        <pt x="269" y="331" on="1"/>
        <pt x="335" y="331" on="0"/>
        <pt x="388" y="368" on="0"/>
        <pt x="388" y="415" on="1"/>
        <pt x="388" y="458" on="0"/>
        <pt x="332" y="496" on="0"/>
        <pt x="270" y="496" on="1"/>
        <pt x="246" y="496" on="0"/>
        <pt x="202" y="493" on="0"/>
        <pt x="180" y="491" on="1"/>
        <pt x="180" y="331" on="1"/>
      </contour>
    </TTGlyph>
    <TTGlyph name="C" xMin="39" yMin="-10" xMax="500" yMax="749">
      <contour>
        <pt x="361" y="-10" on="1"/>
        <pt x="197" y="-9" on="0"/>
        <pt x="39" y="175" on="0"/>
        <pt x="39" y="369" on="1"/>
        <pt x="39" y="566" on="0"/>
        <pt x="196" y="749" on="0"/>
        <pt x="357" y="749" on="1"/>
        <pt x="389" y="749" on="0"/>
        <pt x="460" y="743" on="0"/>
        <pt x="500" y="735" on="1"/>
        <pt x="500" y="631" on="1"/>
        <pt x="465" y="637" on="0"/>
        <pt x="402" y="642" on="0"/>
        <pt x="375" y="642" on="1"/>
        <pt x="319" y="642" on="0"/>
        <pt x="241" y="615" on="0"/>
        <pt x="193" y="552" on="0"/>
        <pt x="171" y="447" on="0"/>
        <pt x="171" y="369" on="1"/>
        <pt x="171" y="293" on="0"/>
        <pt x="193" y="189" on="0"/>
        <pt x="242" y="126" on="0"/>
        <pt x="318" y="98" on="0"/>
        <pt x="372" y="98" on="1"/>
        <pt x="399" y="98" on="0"/>
        <pt x="472" y="105" on="0"/>
        <pt x="500" y="111" on="1"/>
        <pt x="500" y="8" on="1"/>
        <pt x="474" y="0" on="0"/>
        <pt x="399" y="-10" on="0"/>
      </contour>
    </TTGlyph>
    <TTGlyph name="C.sc" xMin="38" yMin="-8" xMax="452" yMax="585">
      <contour>
        <pt x="326" y="-8" on="1"/>
        <pt x="180" y="-7" on="0"/>
        <pt x="38" y="136" on="0"/>
        <pt x="38" y="288" on="1"/>
        <pt x="38" y="441" on="0"/>
        <pt x="178" y="585" on="0"/>
        <pt x="322" y="585" on="1"/>
        <pt x="351" y="585" on="0"/>
        <pt x="416" y="578" on="0"/>
        <pt x="452" y="573" on="1"/>
        <pt x="452" y="476" on="1"/>
        <pt x="389" y="485" on="0"/>
        <pt x="338" y="485" on="1"/>
        <pt x="290" y="485" on="0"/>
        <pt x="223" y="466" on="0"/>
        <pt x="182" y="421" on="0"/>
        <pt x="164" y="345" on="0"/>
        <pt x="164" y="288" on="1"/>
        <pt x="164" y="232" on="0"/>
        <pt x="182" y="157" on="0"/>
        <pt x="223" y="112" on="0"/>
        <pt x="289" y="93" on="0"/>
        <pt x="336" y="93" on="1"/>
        <pt x="362" y="93" on="0"/>
        <pt x="427" y="98" on="0"/>
        <pt x="452" y="103" on="1"/>
        <pt x="452" y="8" on="1"/>
        <pt x="429" y="0" on="0"/>
        <pt x="361" y="-8" on="0"/>
      </contour>
    </TTGlyph>
    <TTGlyph name="Cacute" xMin="39" yMin="-10" xMax="500" yMax="958">
      <contour>
        <pt x="361" y="-10" on="1"/>
        <pt x="197" y="-9" on="0"/>
        <pt x="39" y="175" on="0"/>
        <pt x="39" y="369" on="1"/>
        <pt x="39" y="566" on="0"/>
        <pt x="196" y="749" on="0"/>
        <pt x="357" y="749" on="1"/>
        <pt x="389" y="749" on="0"/>
        <pt x="460" y="743" on="0"/>
        <pt x="500" y="735" on="1"/>
        <pt x="500" y="631" on="1"/>
        <pt x="465" y="637" on="0"/>
        <pt x="402" y="642" on="0"/>
        <pt x="375" y="642" on="1"/>
        <pt x="319" y="642" on="0"/>
        <pt x="241" y="615" on="0"/>
        <pt x="193" y="552" on="0"/>
        <pt x="171" y="447" on="0"/>
        <pt x="171" y="369" on="1"/>
        <pt x="171" y="293" on="0"/>
        <pt x="193" y="189" on="0"/>
        <pt x="242" y="126" on="0"/>
        <pt x="318" y="98" on="0"/>
        <pt x="372" y="98" on="1"/>
        <pt x="399" y="98" on="0"/>
        <pt x="472" y="105" on="0"/>
        <pt x="500" y="111" on="1"/>
        <pt x="500" y="8" on="1"/>
        <pt x="474" y="0" on="0"/>
        <pt x="399" y="-10" on="0"/>
      </contour>
      <contour>
        <pt x="258" y="799" on="1"/>
        <pt x="328" y="958" on="1"/>
        <pt x="458" y="958" on="1"/>
        <pt x="351" y="792" on="1"/>
      </contour>
    </TTGlyph>
    <TTGlyph name="Cacute.sc" xMin="38" yMin="-8" xMax="452" yMax="758">
      <contour>
        <pt x="326" y="-8" on="1"/>
        <pt x="180" y="-7" on="0"/>
        <pt x="38" y="136" on="0"/>
        <pt x="38" y="288" on="1"/>
        <pt x="38" y="441" on="0"/>
        <pt x="178" y="585" on="0"/>
        <pt x="322" y="585" on="1"/>
        <pt x="377" y="585" on="0"/>
        <pt x="452" y="573" on="1"/>
        <pt x="452" y="476" on="1"/>
        <pt x="417" y="481" on="0"/>
        <pt x="362" y="485" on="0"/>
        <pt x="338" y="485" on="1"/>
        <pt x="290" y="485" on="0"/>
        <pt x="224" y="466" on="0"/>
        <pt x="182" y="421" on="0"/>
        <pt x="164" y="345" on="0"/>
        <pt x="164" y="288" on="1"/>
        <pt x="164" y="231" on="0"/>
        <pt x="183" y="156" on="0"/>
        <pt x="224" y="111" on="0"/>
        <pt x="289" y="93" on="0"/>
        <pt x="336" y="93" on="1"/>
        <pt x="361" y="93" on="0"/>
        <pt x="427" y="98" on="0"/>
        <pt x="452" y="103" on="1"/>
        <pt x="452" y="8" on="1"/>
        <pt x="428" y="0" on="0"/>
        <pt x="361" y="-8" on="0"/>
      </contour>
      <contour>
        <pt x="230" y="626" on="1"/>
        <pt x="291" y="758" on="1"/>
        <pt x="414" y="758" on="1"/>
        <pt x="318" y="619" on="1"/>
      </contour>
    </TTGlyph>
    <TTGlyph name="Ccaron" xMin="39" yMin="-10" xMax="500" yMax="959">
      <contour>
        <pt x="361" y="-10" on="1"/>
        <pt x="197" y="-9" on="0"/>
        <pt x="39" y="175" on="0"/>
        <pt x="39" y="369" on="1"/>
        <pt x="39" y="566" on="0"/>
        <pt x="196" y="749" on="0"/>
        <pt x="357" y="749" on="1"/>
        <pt x="389" y="749" on="0"/>
        <pt x="460" y="743" on="0"/>
        <pt x="500" y="735" on="1"/>
        <pt x="500" y="631" on="1"/>
        <pt x="465" y="637" on="0"/>
        <pt x="402" y="642" on="0"/>
        <pt x="375" y="642" on="1"/>
        <pt x="319" y="642" on="0"/>
        <pt x="241" y="615" on="0"/>
        <pt x="193" y="552" on="0"/>
        <pt x="171" y="447" on="0"/>
        <pt x="171" y="369" on="1"/>
        <pt x="171" y="293" on="0"/>
        <pt x="193" y="189" on="0"/>
        <pt x="242" y="126" on="0"/>
        <pt x="318" y="98" on="0"/>
        <pt x="372" y="98" on="1"/>
        <pt x="399" y="98" on="0"/>
        <pt x="472" y="105" on="0"/>
        <pt x="500" y="111" on="1"/>
        <pt x="500" y="8" on="1"/>
        <pt x="474" y="0" on="0"/>
        <pt x="399" y="-10" on="0"/>
      </contour>
      <contour>
        <pt x="154" y="959" on="1"/>
        <pt x="315" y="886" on="1"/>
        <pt x="476" y="959" on="1"/>
        <pt x="476" y="868" on="1"/>
        <pt x="315" y="795" on="1"/>
        <pt x="154" y="868" on="1"/>
      </contour>
    </TTGlyph>
    <TTGlyph name="Ccaron.sc" xMin="38" yMin="-8" xMax="452" yMax="759">
      <contour>
        <pt x="326" y="-8" on="1"/>
        <pt x="180" y="-7" on="0"/>
        <pt x="38" y="136" on="0"/>
        <pt x="38" y="288" on="1"/>
        <pt x="38" y="441" on="0"/>
        <pt x="178" y="585" on="0"/>
        <pt x="322" y="585" on="1"/>
        <pt x="377" y="585" on="0"/>
        <pt x="452" y="573" on="1"/>
        <pt x="452" y="476" on="1"/>
        <pt x="417" y="481" on="0"/>
        <pt x="362" y="485" on="0"/>
        <pt x="338" y="485" on="1"/>
        <pt x="290" y="485" on="0"/>
        <pt x="224" y="466" on="0"/>
        <pt x="182" y="421" on="0"/>
        <pt x="164" y="345" on="0"/>
        <pt x="164" y="288" on="1"/>
        <pt x="164" y="231" on="0"/>
        <pt x="183" y="156" on="0"/>
        <pt x="224" y="111" on="0"/>
        <pt x="289" y="93" on="0"/>
        <pt x="336" y="93" on="1"/>
        <pt x="361" y="93" on="0"/>
        <pt x="427" y="98" on="0"/>
        <pt x="452" y="103" on="1"/>
        <pt x="452" y="8" on="1"/>
        <pt x="428" y="0" on="0"/>
        <pt x="361" y="-8" on="0"/>
      </contour>
      <contour>
        <pt x="138" y="759" on="1"/>
        <pt x="284" y="701" on="1"/>
        <pt x="431" y="759" on="1"/>
        <pt x="431" y="677" on="1"/>
        <pt x="284" y="619" on="1"/>
        <pt x="138" y="677" on="1"/>
      </contour>
    </TTGlyph>
    <TTGlyph name="Ccedilla" xMin="39" yMin="-220" xMax="500" yMax="749">
      <contour>
        <pt x="287" y="-220" on="1"/>
        <pt x="269" y="-220" on="0"/>
        <pt x="226" y="-214" on="0"/>
        <pt x="203" y="-208" on="1"/>
        <pt x="203" y="-130" on="1"/>
        <pt x="220" y="-135" on="0"/>
        <pt x="255" y="-140" on="0"/>
        <pt x="267" y="-140" on="1"/>
        <pt x="318" y="-140" on="0"/>
        <pt x="318" y="-94" on="1"/>
        <pt x="318" y="-57" on="0"/>
        <pt x="285" y="-4" on="1"/>
        <pt x="160" y="16" on="0"/>
        <pt x="39" y="198" on="0"/>
        <pt x="39" y="369" on="1"/>
        <pt x="39" y="566" on="0"/>
        <pt x="196" y="749" on="0"/>
        <pt x="357" y="749" on="1"/>
        <pt x="389" y="749" on="0"/>
        <pt x="460" y="743" on="0"/>
        <pt x="500" y="735" on="1"/>
        <pt x="500" y="631" on="1"/>
        <pt x="465" y="637" on="0"/>
        <pt x="402" y="642" on="0"/>
        <pt x="375" y="642" on="1"/>
        <pt x="319" y="642" on="0"/>
        <pt x="241" y="615" on="0"/>
        <pt x="193" y="552" on="0"/>
        <pt x="171" y="447" on="0"/>
        <pt x="171" y="369" on="1"/>
        <pt x="171" y="293" on="0"/>
        <pt x="193" y="189" on="0"/>
        <pt x="242" y="126" on="0"/>
        <pt x="318" y="98" on="0"/>
        <pt x="372" y="98" on="1"/>
        <pt x="399" y="98" on="0"/>
        <pt x="472" y="105" on="0"/>
        <pt x="500" y="111" on="1"/>
        <pt x="500" y="8" on="1"/>
        <pt x="475" y="0" on="0"/>
        <pt x="407" y="-9" on="0"/>
        <pt x="371" y="-10" on="1"/>
        <pt x="389" y="-39" on="0"/>
        <pt x="404" y="-86" on="0"/>
        <pt x="404" y="-112" on="1"/>
        <pt x="404" y="-163" on="0"/>
        <pt x="344" y="-220" on="0"/>
      </contour>
    </TTGlyph>
    <TTGlyph name="Ccedilla.sc" xMin="38" yMin="-172" xMax="452" yMax="585">
      <contour>
        <pt x="261" y="-172" on="1"/>
        <pt x="245" y="-172" on="0"/>
        <pt x="206" y="-167" on="0"/>
        <pt x="185" y="-162" on="1"/>
        <pt x="185" y="-92" on="1"/>
        <pt x="202" y="-95" on="0"/>
        <pt x="233" y="-99" on="0"/>
        <pt x="244" y="-99" on="1"/>
        <pt x="267" y="-99" on="0"/>
        <pt x="286" y="-83" on="0"/>
        <pt x="286" y="-69" on="1"/>
        <pt x="286" y="-43" on="0"/>
        <pt x="260" y="-3" on="1"/>
        <pt x="148" y="11" on="0"/>
        <pt x="38" y="154" on="0"/>
        <pt x="38" y="288" on="1"/>
        <pt x="38" y="441" on="0"/>
        <pt x="178" y="585" on="0"/>
        <pt x="322" y="585" on="1"/>
        <pt x="377" y="585" on="0"/>
        <pt x="452" y="573" on="1"/>
        <pt x="452" y="476" on="1"/>
        <pt x="417" y="481" on="0"/>
        <pt x="362" y="485" on="0"/>
        <pt x="338" y="485" on="1"/>
        <pt x="290" y="485" on="0"/>
        <pt x="224" y="466" on="0"/>
        <pt x="182" y="421" on="0"/>
        <pt x="164" y="345" on="0"/>
        <pt x="164" y="288" on="1"/>
        <pt x="164" y="231" on="0"/>
        <pt x="183" y="156" on="0"/>
        <pt x="224" y="111" on="0"/>
        <pt x="289" y="93" on="0"/>
        <pt x="336" y="93" on="1"/>
        <pt x="362" y="93" on="0"/>
        <pt x="427" y="98" on="0"/>
        <pt x="452" y="103" on="1"/>
        <pt x="452" y="8" on="1"/>
        <pt x="429" y="1" on="0"/>
        <pt x="370" y="-7" on="0"/>
        <pt x="341" y="-8" on="1"/>
        <pt x="366" y="-51" on="0"/>
        <pt x="366" y="-86" on="1"/>
        <pt x="366" y="-127" on="0"/>
        <pt x="312" y="-172" on="0"/>
      </contour>
    </TTGlyph>
    <TTGlyph name="Ccircumflex" xMin="39" yMin="-10" xMax="500" yMax="966">
      <contour>
        <pt x="361" y="-10" on="1"/>
        <pt x="197" y="-9" on="0"/>
        <pt x="39" y="175" on="0"/>
        <pt x="39" y="369" on="1"/>
        <pt x="39" y="566" on="0"/>
        <pt x="196" y="749" on="0"/>
        <pt x="357" y="749" on="1"/>
        <pt x="389" y="749" on="0"/>
        <pt x="460" y="743" on="0"/>
        <pt x="500" y="735" on="1"/>
        <pt x="500" y="631" on="1"/>
        <pt x="465" y="637" on="0"/>
        <pt x="402" y="642" on="0"/>
        <pt x="375" y="642" on="1"/>
        <pt x="319" y="642" on="0"/>
        <pt x="241" y="615" on="0"/>
        <pt x="193" y="552" on="0"/>
        <pt x="171" y="447" on="0"/>
        <pt x="171" y="369" on="1"/>
        <pt x="171" y="293" on="0"/>
        <pt x="193" y="189" on="0"/>
        <pt x="242" y="126" on="0"/>
        <pt x="318" y="98" on="0"/>
        <pt x="372" y="98" on="1"/>
        <pt x="399" y="98" on="0"/>
        <pt x="472" y="105" on="0"/>
        <pt x="500" y="111" on="1"/>
        <pt x="500" y="8" on="1"/>
        <pt x="474" y="0" on="0"/>
        <pt x="399" y="-10" on="0"/>
      </contour>
      <contour>
        <pt x="149" y="893" on="1"/>
        <pt x="310" y="966" on="1"/>
        <pt x="471" y="893" on="1"/>
        <pt x="471" y="802" on="1"/>
        <pt x="310" y="875" on="1"/>
        <pt x="149" y="802" on="1"/>
      </contour>
    </TTGlyph>
    <TTGlyph name="Ccircumflex.sc" xMin="38" yMin="-8" xMax="452" yMax="762">
      <contour>
        <pt x="326" y="-8" on="1"/>
        <pt x="180" y="-7" on="0"/>
        <pt x="38" y="136" on="0"/>
        <pt x="38" y="288" on="1"/>
        <pt x="38" y="441" on="0"/>
        <pt x="178" y="585" on="0"/>
        <pt x="322" y="585" on="1"/>
        <pt x="377" y="585" on="0"/>
        <pt x="452" y="573" on="1"/>
        <pt x="452" y="476" on="1"/>
        <pt x="417" y="481" on="0"/>
        <pt x="362" y="485" on="0"/>
        <pt x="338" y="485" on="1"/>
        <pt x="290" y="485" on="0"/>
        <pt x="224" y="466" on="0"/>
        <pt x="182" y="421" on="0"/>
        <pt x="164" y="345" on="0"/>
        <pt x="164" y="288" on="1"/>
        <pt x="164" y="231" on="0"/>
        <pt x="183" y="156" on="0"/>
        <pt x="224" y="111" on="0"/>
        <pt x="289" y="93" on="0"/>
        <pt x="336" y="93" on="1"/>
        <pt x="361" y="93" on="0"/>
        <pt x="427" y="98" on="0"/>
        <pt x="452" y="103" on="1"/>
        <pt x="452" y="8" on="1"/>
        <pt x="428" y="0" on="0"/>
        <pt x="361" y="-8" on="0"/>
      </contour>
      <contour>
        <pt x="132" y="704" on="1"/>
        <pt x="279" y="762" on="1"/>
        <pt x="426" y="704" on="1"/>
        <pt x="426" y="622" on="1"/>
        <pt x="279" y="680" on="1"/>
        <pt x="132" y="622" on="1"/>
      </contour>
    </TTGlyph>
    <TTGlyph name="Cdotaccent" xMin="39" yMin="-10" xMax="500" yMax="944">
      <contour>
        <pt x="314" y="801" on="1"/>
        <pt x="241" y="801" on="0"/>
        <pt x="241" y="872" on="1"/>
        <pt x="241" y="910" on="0"/>
        <pt x="276" y="944" on="0"/>
        <pt x="314" y="944" on="1"/>
        <pt x="351" y="944" on="0"/>
        <pt x="387" y="910" on="0"/>
        <pt x="387" y="872" on="1"/>
        <pt x="387" y="801" on="0"/>
      </contour>
      <contour>
        <pt x="361" y="-10" on="1"/>
        <pt x="197" y="-9" on="0"/>
        <pt x="39" y="175" on="0"/>
        <pt x="39" y="369" on="1"/>
        <pt x="39" y="566" on="0"/>
        <pt x="196" y="749" on="0"/>
        <pt x="357" y="749" on="1"/>
        <pt x="389" y="749" on="0"/>
        <pt x="460" y="743" on="0"/>
        <pt x="500" y="735" on="1"/>
        <pt x="500" y="631" on="1"/>
        <pt x="465" y="637" on="0"/>
        <pt x="402" y="642" on="0"/>
        <pt x="375" y="642" on="1"/>
        <pt x="319" y="642" on="0"/>
        <pt x="241" y="615" on="0"/>
        <pt x="193" y="552" on="0"/>
        <pt x="171" y="447" on="0"/>
        <pt x="171" y="369" on="1"/>
        <pt x="171" y="293" on="0"/>
        <pt x="193" y="189" on="0"/>
        <pt x="242" y="126" on="0"/>
        <pt x="318" y="98" on="0"/>
        <pt x="372" y="98" on="1"/>
        <pt x="399" y="98" on="0"/>
        <pt x="472" y="105" on="0"/>
        <pt x="500" y="111" on="1"/>
        <pt x="500" y="8" on="1"/>
        <pt x="474" y="0" on="0"/>
        <pt x="399" y="-10" on="0"/>
      </contour>
    </TTGlyph>
    <TTGlyph name="Cdotaccent.sc" xMin="38" yMin="-8" xMax="452" yMax="754">
      <contour>
        <pt x="326" y="-8" on="1"/>
        <pt x="180" y="-7" on="0"/>
        <pt x="38" y="136" on="0"/>
        <pt x="38" y="288" on="1"/>
        <pt x="38" y="441" on="0"/>
        <pt x="178" y="585" on="0"/>
        <pt x="322" y="585" on="1"/>
        <pt x="377" y="585" on="0"/>
        <pt x="452" y="573" on="1"/>
        <pt x="452" y="476" on="1"/>
        <pt x="417" y="481" on="0"/>
        <pt x="362" y="485" on="0"/>
        <pt x="338" y="485" on="1"/>
        <pt x="290" y="485" on="0"/>
        <pt x="224" y="466" on="0"/>
        <pt x="182" y="421" on="0"/>
        <pt x="164" y="345" on="0"/>
        <pt x="164" y="288" on="1"/>
        <pt x="164" y="231" on="0"/>
        <pt x="183" y="156" on="0"/>
        <pt x="224" y="111" on="0"/>
        <pt x="289" y="93" on="0"/>
        <pt x="336" y="93" on="1"/>
        <pt x="361" y="93" on="0"/>
        <pt x="427" y="98" on="0"/>
        <pt x="452" y="103" on="1"/>
        <pt x="452" y="8" on="1"/>
        <pt x="428" y="0" on="0"/>
        <pt x="361" y="-8" on="0"/>
      </contour>
      <contour>
        <pt x="284" y="624" on="1"/>
        <pt x="249" y="624" on="0"/>
        <pt x="216" y="655" on="0"/>
        <pt x="216" y="690" on="1"/>
        <pt x="216" y="724" on="0"/>
        <pt x="249" y="754" on="0"/>
        <pt x="284" y="754" on="1"/>
        <pt x="319" y="754" on="0"/>
        <pt x="353" y="724" on="0"/>
        <pt x="353" y="690" on="1"/>
        <pt x="353" y="655" on="0"/>
        <pt x="319" y="624" on="0"/>
      </contour>
    </TTGlyph>
    <TTGlyph name="D" xMin="69" yMin="-13" xMax="622" yMax="750">
      <contour>
        <pt x="239" y="-13" on="1"/>
        <pt x="197" y="-13" on="0"/>
        <pt x="113" y="-8" on="0"/>
        <pt x="69" y="-2" on="1"/>
        <pt x="69" y="737" on="1"/>
        <pt x="130" y="743" on="0"/>
        <pt x="224" y="750" on="0"/>
        <pt x="262" y="750" on="1"/>
        <pt x="357" y="750" on="0"/>
        <pt x="494" y="706" on="0"/>
        <pt x="581" y="614" on="0"/>
        <pt x="622" y="469" on="0"/>
        <pt x="622" y="369" on="1"/>
        <pt x="622" y="267" on="0"/>
        <pt x="579" y="123" on="0"/>
        <pt x="487" y="30" on="0"/>
        <pt x="341" y="-13" on="0"/>
      </contour>
      <contour>
        <pt x="282" y="92" on="1"/>
        <pt x="338" y="92" on="0"/>
        <pt x="417" y="121" on="0"/>
        <pt x="467" y="187" on="0"/>
        <pt x="490" y="293" on="0"/>
        <pt x="490" y="369" on="1"/>
        <pt x="490" y="445" on="0"/>
        <pt x="468" y="550" on="0"/>
        <pt x="418" y="616" on="0"/>
        <pt x="338" y="645" on="0"/>
        <pt x="281" y="645" on="1"/>
        <pt x="259" y="645" on="0"/>
        <pt x="217" y="642" on="0"/>
        <pt x="196" y="638" on="1"/>
        <pt x="196" y="98" on="1"/>
        <pt x="222" y="95" on="0"/>
        <pt x="262" y="92" on="0"/>
      </contour>
    </TTGlyph>
    <TTGlyph name="D.sc" xMin="65" yMin="-10" xMax="566" yMax="585">
      <contour>
        <pt x="230" y="-10" on="1"/>
        <pt x="190" y="-10" on="0"/>
        <pt x="106" y="-5" on="0"/>
        <pt x="65" y="0" on="1"/>
        <pt x="65" y="576" on="1"/>
        <pt x="121" y="580" on="0"/>
        <pt x="208" y="585" on="0"/>
        <pt x="242" y="585" on="1"/>
        <pt x="328" y="585" on="0"/>
        <pt x="451" y="551" on="0"/>
        <pt x="529" y="479" on="0"/>
        <pt x="566" y="366" on="0"/>
        <pt x="566" y="288" on="1"/>
        <pt x="566" y="208" on="0"/>
        <pt x="528" y="95" on="0"/>
        <pt x="447" y="23" on="0"/>
        <pt x="319" y="-10" on="0"/>
      </contour>
      <contour>
        <pt x="264" y="89" on="1"/>
        <pt x="312" y="89" on="0"/>
        <pt x="379" y="109" on="0"/>
        <pt x="422" y="155" on="0"/>
        <pt x="441" y="232" on="0"/>
        <pt x="441" y="288" on="1"/>
        <pt x="441" y="344" on="0"/>
        <pt x="422" y="420" on="0"/>
        <pt x="379" y="467" on="0"/>
        <pt x="310" y="487" on="0"/>
        <pt x="261" y="487" on="1"/>
        <pt x="241" y="487" on="0"/>
        <pt x="204" y="484" on="0"/>
        <pt x="186" y="482" on="1"/>
        <pt x="186" y="94" on="1"/>
        <pt x="209" y="91" on="0"/>
        <pt x="245" y="89" on="0"/>
      </contour>
    </TTGlyph>
    <TTGlyph name="Dcaron" xMin="69" yMin="-13" xMax="622" yMax="959">
      <contour>
        <pt x="153" y="959" on="1"/>
        <pt x="314" y="886" on="1"/>
        <pt x="475" y="959" on="1"/>
        <pt x="475" y="868" on="1"/>
        <pt x="314" y="795" on="1"/>
        <pt x="153" y="868" on="1"/>
      </contour>
      <contour>
        <pt x="239" y="-13" on="1"/>
        <pt x="197" y="-13" on="0"/>
        <pt x="113" y="-8" on="0"/>
        <pt x="69" y="-2" on="1"/>
        <pt x="69" y="737" on="1"/>
        <pt x="130" y="743" on="0"/>
        <pt x="224" y="750" on="0"/>
        <pt x="262" y="750" on="1"/>
        <pt x="357" y="750" on="0"/>
        <pt x="494" y="706" on="0"/>
        <pt x="581" y="614" on="0"/>
        <pt x="622" y="469" on="0"/>
        <pt x="622" y="369" on="1"/>
        <pt x="622" y="267" on="0"/>
        <pt x="579" y="123" on="0"/>
        <pt x="487" y="30" on="0"/>
        <pt x="341" y="-13" on="0"/>
      </contour>
      <contour>
        <pt x="282" y="92" on="1"/>
        <pt x="338" y="92" on="0"/>
        <pt x="417" y="121" on="0"/>
        <pt x="467" y="187" on="0"/>
        <pt x="490" y="293" on="0"/>
        <pt x="490" y="369" on="1"/>
        <pt x="490" y="445" on="0"/>
        <pt x="468" y="550" on="0"/>
        <pt x="418" y="616" on="0"/>
        <pt x="338" y="645" on="0"/>
        <pt x="281" y="645" on="1"/>
        <pt x="259" y="645" on="0"/>
        <pt x="217" y="642" on="0"/>
        <pt x="196" y="638" on="1"/>
        <pt x="196" y="98" on="1"/>
        <pt x="222" y="95" on="0"/>
        <pt x="262" y="92" on="0"/>
      </contour>
    </TTGlyph>
    <TTGlyph name="Dcaron.sc" xMin="65" yMin="-10" xMax="566" yMax="759">
      <contour>
        <pt x="230" y="-10" on="1"/>
        <pt x="190" y="-10" on="0"/>
        <pt x="106" y="-5" on="0"/>
        <pt x="65" y="0" on="1"/>
        <pt x="65" y="576" on="1"/>
        <pt x="121" y="580" on="0"/>
        <pt x="208" y="585" on="0"/>
        <pt x="242" y="585" on="1"/>
        <pt x="328" y="585" on="0"/>
        <pt x="451" y="551" on="0"/>
        <pt x="529" y="479" on="0"/>
        <pt x="566" y="366" on="0"/>
        <pt x="566" y="288" on="1"/>
        <pt x="566" y="208" on="0"/>
        <pt x="528" y="95" on="0"/>
        <pt x="447" y="23" on="0"/>
        <pt x="319" y="-10" on="0"/>
      </contour>
      <contour>
        <pt x="264" y="89" on="1"/>
        <pt x="312" y="89" on="0"/>
        <pt x="379" y="109" on="0"/>
        <pt x="422" y="155" on="0"/>
        <pt x="441" y="232" on="0"/>
        <pt x="441" y="288" on="1"/>
        <pt x="441" y="344" on="0"/>
        <pt x="422" y="420" on="0"/>
        <pt x="379" y="467" on="0"/>
        <pt x="310" y="487" on="0"/>
        <pt x="261" y="487" on="1"/>
        <pt x="241" y="487" on="0"/>
        <pt x="204" y="484" on="0"/>
        <pt x="186" y="482" on="1"/>
        <pt x="186" y="94" on="1"/>
        <pt x="209" y="91" on="0"/>
        <pt x="245" y="89" on="0"/>
      </contour>
      <contour>
        <pt x="143" y="677" on="1"/>
        <pt x="143" y="759" on="1"/>
        <pt x="290" y="701" on="1"/>
        <pt x="436" y="759" on="1"/>
        <pt x="436" y="677" on="1"/>
        <pt x="290" y="619" on="1"/>
      </contour>
    </TTGlyph>
    <TTGlyph name="Dcroat" xMin="0" yMin="-13" xMax="640" yMax="750">
      <contour>
        <pt x="0" y="421" on="1"/>
        <pt x="87" y="421" on="1"/>
        <pt x="87" y="737" on="1"/>
        <pt x="148" y="743" on="0"/>
        <pt x="242" y="750" on="0"/>
        <pt x="280" y="750" on="1"/>
        <pt x="375" y="750" on="0"/>
        <pt x="512" y="706" on="0"/>
        <pt x="599" y="614" on="0"/>
        <pt x="640" y="469" on="0"/>
        <pt x="640" y="369" on="1"/>
        <pt x="640" y="267" on="0"/>
        <pt x="597" y="123" on="0"/>
        <pt x="505" y="30" on="0"/>
        <pt x="359" y="-13" on="0"/>
        <pt x="257" y="-13" on="1"/>
        <pt x="215" y="-13" on="0"/>
        <pt x="131" y="-8" on="0"/>
        <pt x="87" y="-2" on="1"/>
        <pt x="87" y="322" on="1"/>
        <pt x="0" y="322" on="1"/>
      </contour>
      <contour>
        <pt x="300" y="92" on="1"/>
        <pt x="356" y="92" on="0"/>
        <pt x="435" y="121" on="0"/>
        <pt x="485" y="187" on="0"/>
        <pt x="508" y="293" on="0"/>
        <pt x="508" y="369" on="1"/>
        <pt x="508" y="445" on="0"/>
        <pt x="486" y="550" on="0"/>
        <pt x="436" y="616" on="0"/>
        <pt x="356" y="645" on="0"/>
        <pt x="299" y="645" on="1"/>
        <pt x="277" y="645" on="0"/>
        <pt x="235" y="642" on="0"/>
        <pt x="214" y="638" on="1"/>
        <pt x="214" y="421" on="1"/>
        <pt x="338" y="421" on="1"/>
        <pt x="338" y="322" on="1"/>
        <pt x="214" y="322" on="1"/>
        <pt x="214" y="98" on="1"/>
        <pt x="240" y="95" on="0"/>
        <pt x="280" y="92" on="0"/>
      </contour>
    </TTGlyph>
    <TTGlyph name="Dcroat.sc" xMin="7" yMin="-10" xMax="584" yMax="585">
      <contour>
        <pt x="7" y="337" on="1"/>
        <pt x="83" y="337" on="1"/>
        <pt x="83" y="576" on="1"/>
        <pt x="139" y="580" on="0"/>
        <pt x="226" y="585" on="0"/>
        <pt x="260" y="585" on="1"/>
        <pt x="346" y="585" on="0"/>
        <pt x="469" y="551" on="0"/>
        <pt x="547" y="479" on="0"/>
        <pt x="584" y="367" on="0"/>
        <pt x="584" y="288" on="1"/>
        <pt x="584" y="208" on="0"/>
        <pt x="545" y="95" on="0"/>
        <pt x="462" y="23" on="0"/>
        <pt x="331" y="-10" on="0"/>
        <pt x="239" y="-10" on="1"/>
        <pt x="201" y="-10" on="0"/>
        <pt x="122" y="-5" on="0"/>
        <pt x="83" y="0" on="1"/>
        <pt x="83" y="244" on="1"/>
        <pt x="7" y="244" on="1"/>
      </contour>
      <contour>
        <pt x="282" y="89" on="1"/>
        <pt x="330" y="89" on="0"/>
        <pt x="397" y="109" on="0"/>
        <pt x="439" y="155" on="0"/>
        <pt x="459" y="232" on="0"/>
        <pt x="459" y="288" on="1"/>
        <pt x="459" y="344" on="0"/>
        <pt x="440" y="420" on="0"/>
        <pt x="397" y="467" on="0"/>
        <pt x="328" y="487" on="0"/>
        <pt x="278" y="487" on="1"/>
        <pt x="259" y="487" on="0"/>
        <pt x="223" y="484" on="0"/>
        <pt x="204" y="482" on="1"/>
        <pt x="204" y="337" on="1"/>
        <pt x="309" y="337" on="1"/>
        <pt x="309" y="244" on="1"/>
        <pt x="204" y="244" on="1"/>
        <pt x="204" y="94" on="1"/>
        <pt x="227" y="91" on="0"/>
        <pt x="264" y="89" on="0"/>
      </contour>
    </TTGlyph>
    <TTGlyph name="Ddotbelow" xMin="69" yMin="-194" xMax="622" yMax="750">
      <contour>
        <pt x="315" y="-194" on="1"/>
        <pt x="283" y="-194" on="0"/>
        <pt x="254" y="-166" on="0"/>
        <pt x="254" y="-134" on="1"/>
        <pt x="254" y="-102" on="0"/>
        <pt x="283" y="-75" on="0"/>
        <pt x="315" y="-75" on="1"/>
        <pt x="347" y="-75" on="0"/>
        <pt x="376" y="-102" on="0"/>
        <pt x="376" y="-134" on="1"/>
        <pt x="376" y="-166" on="0"/>
        <pt x="347" y="-194" on="0"/>
      </contour>
      <contour>
        <pt x="239" y="-13" on="1"/>
        <pt x="197" y="-13" on="0"/>
        <pt x="113" y="-8" on="0"/>
        <pt x="69" y="-2" on="1"/>
        <pt x="69" y="737" on="1"/>
        <pt x="130" y="743" on="0"/>
        <pt x="224" y="750" on="0"/>
        <pt x="262" y="750" on="1"/>
        <pt x="357" y="750" on="0"/>
        <pt x="494" y="706" on="0"/>
        <pt x="581" y="614" on="0"/>
        <pt x="622" y="469" on="0"/>
        <pt x="622" y="369" on="1"/>
        <pt x="622" y="267" on="0"/>
        <pt x="579" y="123" on="0"/>
        <pt x="487" y="30" on="0"/>
        <pt x="341" y="-13" on="0"/>
      </contour>
      <contour>
        <pt x="282" y="92" on="1"/>
        <pt x="338" y="92" on="0"/>
        <pt x="417" y="121" on="0"/>
        <pt x="467" y="187" on="0"/>
        <pt x="490" y="293" on="0"/>
        <pt x="490" y="369" on="1"/>
        <pt x="490" y="445" on="0"/>
        <pt x="468" y="550" on="0"/>
        <pt x="418" y="616" on="0"/>
        <pt x="338" y="645" on="0"/>
        <pt x="281" y="645" on="1"/>
        <pt x="259" y="645" on="0"/>
        <pt x="217" y="642" on="0"/>
        <pt x="196" y="638" on="1"/>
        <pt x="196" y="98" on="1"/>
        <pt x="222" y="95" on="0"/>
        <pt x="262" y="92" on="0"/>
      </contour>
    </TTGlyph>
    <TTGlyph name="Ddotbelow.sc" xMin="65" yMin="-158" xMax="566" yMax="585">
      <contour>
        <pt x="230" y="-10" on="1"/>
        <pt x="190" y="-10" on="0"/>
        <pt x="106" y="-5" on="0"/>
        <pt x="65" y="0" on="1"/>
        <pt x="65" y="576" on="1"/>
        <pt x="121" y="580" on="0"/>
        <pt x="208" y="585" on="0"/>
        <pt x="242" y="585" on="1"/>
        <pt x="328" y="585" on="0"/>
        <pt x="451" y="551" on="0"/>
        <pt x="529" y="479" on="0"/>
        <pt x="566" y="366" on="0"/>
        <pt x="566" y="288" on="1"/>
        <pt x="566" y="208" on="0"/>
        <pt x="528" y="95" on="0"/>
        <pt x="447" y="23" on="0"/>
        <pt x="319" y="-10" on="0"/>
      </contour>
      <contour>
        <pt x="264" y="89" on="1"/>
        <pt x="312" y="89" on="0"/>
        <pt x="379" y="109" on="0"/>
        <pt x="422" y="155" on="0"/>
        <pt x="441" y="232" on="0"/>
        <pt x="441" y="288" on="1"/>
        <pt x="441" y="344" on="0"/>
        <pt x="422" y="420" on="0"/>
        <pt x="379" y="467" on="0"/>
        <pt x="310" y="487" on="0"/>
        <pt x="261" y="487" on="1"/>
        <pt x="241" y="487" on="0"/>
        <pt x="204" y="484" on="0"/>
        <pt x="186" y="482" on="1"/>
        <pt x="186" y="94" on="1"/>
        <pt x="209" y="91" on="0"/>
        <pt x="245" y="89" on="0"/>
      </contour>
      <contour>
        <pt x="290" y="-158" on="1"/>
        <pt x="261" y="-158" on="0"/>
        <pt x="233" y="-134" on="0"/>
        <pt x="233" y="-107" on="1"/>
        <pt x="233" y="-78" on="0"/>
        <pt x="261" y="-54" on="0"/>
        <pt x="290" y="-54" on="1"/>
        <pt x="346" y="-54" on="0"/>
        <pt x="346" y="-107" on="1"/>
        <pt x="346" y="-134" on="0"/>
        <pt x="319" y="-158" on="0"/>
      </contour>
    </TTGlyph>
    <TTGlyph name="Delta" xMin="20" yMin="0" xMax="681" yMax="740">
      <contour>
        <pt x="270" y="740" on="1"/>
        <pt x="431" y="740" on="1"/>
        <pt x="681" y="0" on="1"/>
        <pt x="20" y="0" on="1"/>
      </contour>
      <contour>
        <pt x="527" y="106" on="1"/>
        <pt x="350" y="628" on="1"/>
        <pt x="174" y="106" on="1"/>
      </contour>
    </TTGlyph>
    <TTGlyph name="E" xMin="69" yMin="0" xMax="529" yMax="740">
      <contour>
        <pt x="69" y="740" on="1"/>
        <pt x="520" y="740" on="1"/>
        <pt x="520" y="633" on="1"/>
        <pt x="197" y="633" on="1"/>
        <pt x="197" y="426" on="1"/>
        <pt x="488" y="426" on="1"/>
        <pt x="488" y="319" on="1"/>
        <pt x="197" y="319" on="1"/>
        <pt x="197" y="107" on="1"/>
        <pt x="529" y="107" on="1"/>
        <pt x="529" y="0" on="1"/>
        <pt x="69" y="0" on="1"/>
      </contour>
    </TTGlyph>
    <TTGlyph name="E.sc" xMin="65" yMin="0" xMax="481" yMax="577">
      <contour>
        <pt x="65" y="577" on="1"/>
        <pt x="474" y="577" on="1"/>
        <pt x="474" y="480" on="1"/>
        <pt x="188" y="480" on="1"/>
        <pt x="188" y="336" on="1"/>
        <pt x="446" y="336" on="1"/>
        <pt x="446" y="245" on="1"/>
        <pt x="188" y="245" on="1"/>
        <pt x="188" y="97" on="1"/>
        <pt x="481" y="97" on="1"/>
        <pt x="481" y="0" on="1"/>
        <pt x="65" y="0" on="1"/>
      </contour>
    </TTGlyph>
    <TTGlyph name="Eacute" xMin="69" yMin="0" xMax="529" yMax="958">
      <contour>
        <pt x="243" y="799" on="1"/>
        <pt x="313" y="958" on="1"/>
        <pt x="443" y="958" on="1"/>
        <pt x="336" y="792" on="1"/>
      </contour>
      <contour>
        <pt x="69" y="740" on="1"/>
        <pt x="520" y="740" on="1"/>
        <pt x="520" y="633" on="1"/>
        <pt x="197" y="633" on="1"/>
        <pt x="197" y="426" on="1"/>
        <pt x="488" y="426" on="1"/>
        <pt x="488" y="319" on="1"/>
        <pt x="197" y="319" on="1"/>
        <pt x="197" y="107" on="1"/>
        <pt x="529" y="107" on="1"/>
        <pt x="529" y="0" on="1"/>
        <pt x="69" y="0" on="1"/>
      </contour>
    </TTGlyph>
    <TTGlyph name="Eacute.sc" xMin="65" yMin="0" xMax="481" yMax="758">
      <contour>
        <pt x="65" y="577" on="1"/>
        <pt x="474" y="577" on="1"/>
        <pt x="474" y="480" on="1"/>
        <pt x="188" y="480" on="1"/>
        <pt x="188" y="336" on="1"/>
        <pt x="446" y="336" on="1"/>
        <pt x="446" y="245" on="1"/>
        <pt x="188" y="245" on="1"/>
        <pt x="188" y="97" on="1"/>
        <pt x="481" y="97" on="1"/>
        <pt x="481" y="0" on="1"/>
        <pt x="65" y="0" on="1"/>
      </contour>
      <contour>
        <pt x="221" y="626" on="1"/>
        <pt x="282" y="758" on="1"/>
        <pt x="405" y="758" on="1"/>
        <pt x="309" y="619" on="1"/>
      </contour>
    </TTGlyph>
    <TTGlyph name="Ebreve" xMin="69" yMin="0" xMax="529" yMax="967">
      <contour>
        <pt x="296" y="804" on="1"/>
        <pt x="206" y="804" on="0"/>
        <pt x="118" y="892" on="0"/>
        <pt x="118" y="967" on="1"/>
        <pt x="206" y="967" on="1"/>
        <pt x="206" y="917" on="0"/>
        <pt x="248" y="870" on="0"/>
        <pt x="296" y="870" on="1"/>
        <pt x="342" y="870" on="0"/>
        <pt x="384" y="917" on="0"/>
        <pt x="384" y="967" on="1"/>
        <pt x="473" y="967" on="1"/>
        <pt x="473" y="892" on="0"/>
        <pt x="384" y="804" on="0"/>
      </contour>
      <contour>
        <pt x="69" y="740" on="1"/>
        <pt x="520" y="740" on="1"/>
        <pt x="520" y="633" on="1"/>
        <pt x="197" y="633" on="1"/>
        <pt x="197" y="426" on="1"/>
        <pt x="488" y="426" on="1"/>
        <pt x="488" y="319" on="1"/>
        <pt x="197" y="319" on="1"/>
        <pt x="197" y="107" on="1"/>
        <pt x="529" y="107" on="1"/>
        <pt x="529" y="0" on="1"/>
        <pt x="69" y="0" on="1"/>
      </contour>
    </TTGlyph>
    <TTGlyph name="Ebreve.sc" xMin="65" yMin="0" xMax="481" yMax="760">
      <contour>
        <pt x="270" y="625" on="1"/>
        <pt x="188" y="625" on="0"/>
        <pt x="109" y="699" on="0"/>
        <pt x="109" y="760" on="1"/>
        <pt x="192" y="760" on="1"/>
        <pt x="192" y="720" on="0"/>
        <pt x="228" y="684" on="0"/>
        <pt x="270" y="684" on="1"/>
        <pt x="312" y="684" on="0"/>
        <pt x="349" y="720" on="0"/>
        <pt x="349" y="760" on="1"/>
        <pt x="431" y="760" on="1"/>
        <pt x="431" y="699" on="0"/>
        <pt x="352" y="625" on="0"/>
      </contour>
      <contour>
        <pt x="65" y="577" on="1"/>
        <pt x="474" y="577" on="1"/>
        <pt x="474" y="480" on="1"/>
        <pt x="188" y="480" on="1"/>
        <pt x="188" y="336" on="1"/>
        <pt x="446" y="336" on="1"/>
        <pt x="446" y="245" on="1"/>
        <pt x="188" y="245" on="1"/>
        <pt x="188" y="97" on="1"/>
        <pt x="481" y="97" on="1"/>
        <pt x="481" y="0" on="1"/>
        <pt x="65" y="0" on="1"/>
      </contour>
    </TTGlyph>
    <TTGlyph name="Ecaron" xMin="69" yMin="0" xMax="529" yMax="959">
      <contour>
        <pt x="140" y="959" on="1"/>
        <pt x="301" y="886" on="1"/>
        <pt x="462" y="959" on="1"/>
        <pt x="462" y="868" on="1"/>
        <pt x="301" y="795" on="1"/>
        <pt x="140" y="868" on="1"/>
      </contour>
      <contour>
        <pt x="69" y="740" on="1"/>
        <pt x="520" y="740" on="1"/>
        <pt x="520" y="633" on="1"/>
        <pt x="197" y="633" on="1"/>
        <pt x="197" y="426" on="1"/>
        <pt x="488" y="426" on="1"/>
        <pt x="488" y="319" on="1"/>
        <pt x="197" y="319" on="1"/>
        <pt x="197" y="107" on="1"/>
        <pt x="529" y="107" on="1"/>
        <pt x="529" y="0" on="1"/>
        <pt x="69" y="0" on="1"/>
      </contour>
    </TTGlyph>
    <TTGlyph name="Ecaron.sc" xMin="65" yMin="0" xMax="481" yMax="759">
      <contour>
        <pt x="65" y="577" on="1"/>
        <pt x="474" y="577" on="1"/>
        <pt x="474" y="480" on="1"/>
        <pt x="188" y="480" on="1"/>
        <pt x="188" y="336" on="1"/>
        <pt x="446" y="336" on="1"/>
        <pt x="446" y="245" on="1"/>
        <pt x="188" y="245" on="1"/>
        <pt x="188" y="97" on="1"/>
        <pt x="481" y="97" on="1"/>
        <pt x="481" y="0" on="1"/>
        <pt x="65" y="0" on="1"/>
      </contour>
      <contour>
        <pt x="130" y="677" on="1"/>
        <pt x="130" y="759" on="1"/>
        <pt x="276" y="701" on="1"/>
        <pt x="423" y="759" on="1"/>
        <pt x="423" y="677" on="1"/>
        <pt x="276" y="619" on="1"/>
      </contour>
    </TTGlyph>
    <TTGlyph name="Ecircumflex" xMin="69" yMin="0" xMax="529" yMax="966">
      <contour>
        <pt x="69" y="740" on="1"/>
        <pt x="520" y="740" on="1"/>
        <pt x="520" y="633" on="1"/>
        <pt x="197" y="633" on="1"/>
        <pt x="197" y="426" on="1"/>
        <pt x="488" y="426" on="1"/>
        <pt x="488" y="319" on="1"/>
        <pt x="197" y="319" on="1"/>
        <pt x="197" y="107" on="1"/>
        <pt x="529" y="107" on="1"/>
        <pt x="529" y="0" on="1"/>
        <pt x="69" y="0" on="1"/>
      </contour>
      <contour>
        <pt x="138" y="893" on="1"/>
        <pt x="299" y="966" on="1"/>
        <pt x="460" y="893" on="1"/>
        <pt x="460" y="802" on="1"/>
        <pt x="299" y="875" on="1"/>
        <pt x="138" y="802" on="1"/>
      </contour>
    </TTGlyph>
    <TTGlyph name="Ecircumflex.sc" xMin="65" yMin="0" xMax="481" yMax="762">
      <contour>
        <pt x="65" y="577" on="1"/>
        <pt x="474" y="577" on="1"/>
        <pt x="474" y="480" on="1"/>
        <pt x="188" y="480" on="1"/>
        <pt x="188" y="336" on="1"/>
        <pt x="446" y="336" on="1"/>
        <pt x="446" y="245" on="1"/>
        <pt x="188" y="245" on="1"/>
        <pt x="188" y="97" on="1"/>
        <pt x="481" y="97" on="1"/>
        <pt x="481" y="0" on="1"/>
        <pt x="65" y="0" on="1"/>
      </contour>
      <contour>
        <pt x="128" y="704" on="1"/>
        <pt x="275" y="762" on="1"/>
        <pt x="422" y="704" on="1"/>
        <pt x="422" y="622" on="1"/>
        <pt x="275" y="680" on="1"/>
        <pt x="128" y="622" on="1"/>
      </contour>
    </TTGlyph>
    <TTGlyph name="Edblgrave" xMin="68" yMin="0" xMax="529" yMax="957">
      <contour>
        <pt x="69" y="740" on="1"/>
        <pt x="520" y="740" on="1"/>
        <pt x="520" y="633" on="1"/>
        <pt x="197" y="633" on="1"/>
        <pt x="197" y="426" on="1"/>
        <pt x="488" y="426" on="1"/>
        <pt x="488" y="319" on="1"/>
        <pt x="197" y="319" on="1"/>
        <pt x="197" y="107" on="1"/>
        <pt x="529" y="107" on="1"/>
        <pt x="529" y="0" on="1"/>
        <pt x="69" y="0" on="1"/>
      </contour>
      <contour>
        <pt x="175" y="791" on="1"/>
        <pt x="68" y="957" on="1"/>
        <pt x="182" y="957" on="1"/>
        <pt x="252" y="803" on="1"/>
      </contour>
      <contour>
        <pt x="349" y="791" on="1"/>
        <pt x="241" y="957" on="1"/>
        <pt x="356" y="957" on="1"/>
        <pt x="426" y="803" on="1"/>
      </contour>
    </TTGlyph>
    <TTGlyph name="Edblgrave.sc" xMin="62" yMin="0" xMax="481" yMax="757">
      <contour>
        <pt x="65" y="577" on="1"/>
        <pt x="474" y="577" on="1"/>
        <pt x="474" y="480" on="1"/>
        <pt x="188" y="480" on="1"/>
        <pt x="188" y="336" on="1"/>
        <pt x="446" y="336" on="1"/>
        <pt x="446" y="245" on="1"/>
        <pt x="188" y="245" on="1"/>
        <pt x="188" y="97" on="1"/>
        <pt x="481" y="97" on="1"/>
        <pt x="481" y="0" on="1"/>
        <pt x="65" y="0" on="1"/>
      </contour>
      <contour>
        <pt x="62" y="757" on="1"/>
        <pt x="172" y="757" on="1"/>
        <pt x="232" y="627" on="1"/>
        <pt x="159" y="618" on="1"/>
      </contour>
      <contour>
        <pt x="221" y="757" on="1"/>
        <pt x="329" y="757" on="1"/>
        <pt x="390" y="627" on="1"/>
        <pt x="317" y="618" on="1"/>
      </contour>
    </TTGlyph>
    <TTGlyph name="Edieresis" xMin="69" yMin="0" xMax="529" yMax="949">
      <contour>
        <pt x="177" y="807" on="1"/>
        <pt x="105" y="807" on="0"/>
        <pt x="105" y="878" on="1"/>
        <pt x="105" y="916" on="0"/>
        <pt x="140" y="949" on="0"/>
        <pt x="177" y="949" on="1"/>
        <pt x="215" y="949" on="0"/>
        <pt x="251" y="916" on="0"/>
        <pt x="251" y="878" on="1"/>
        <pt x="251" y="840" on="0"/>
        <pt x="215" y="807" on="0"/>
      </contour>
      <contour>
        <pt x="417" y="807" on="1"/>
        <pt x="344" y="807" on="0"/>
        <pt x="344" y="878" on="1"/>
        <pt x="344" y="916" on="0"/>
        <pt x="379" y="949" on="0"/>
        <pt x="417" y="949" on="1"/>
        <pt x="454" y="949" on="0"/>
        <pt x="490" y="916" on="0"/>
        <pt x="490" y="878" on="1"/>
        <pt x="490" y="840" on="0"/>
        <pt x="454" y="807" on="0"/>
      </contour>
      <contour>
        <pt x="69" y="740" on="1"/>
        <pt x="520" y="740" on="1"/>
        <pt x="520" y="633" on="1"/>
        <pt x="197" y="633" on="1"/>
        <pt x="197" y="426" on="1"/>
        <pt x="488" y="426" on="1"/>
        <pt x="488" y="319" on="1"/>
        <pt x="197" y="319" on="1"/>
        <pt x="197" y="107" on="1"/>
        <pt x="529" y="107" on="1"/>
        <pt x="529" y="0" on="1"/>
        <pt x="69" y="0" on="1"/>
      </contour>
    </TTGlyph>
    <TTGlyph name="Edieresis.sc" xMin="65" yMin="0" xMax="481" yMax="757">
      <contour>
        <pt x="165" y="627" on="1"/>
        <pt x="129" y="627" on="0"/>
        <pt x="96" y="658" on="0"/>
        <pt x="96" y="692" on="1"/>
        <pt x="96" y="727" on="0"/>
        <pt x="129" y="757" on="0"/>
        <pt x="165" y="757" on="1"/>
        <pt x="233" y="757" on="0"/>
        <pt x="233" y="692" on="1"/>
        <pt x="233" y="627" on="0"/>
      </contour>
      <contour>
        <pt x="382" y="627" on="1"/>
        <pt x="314" y="627" on="0"/>
        <pt x="314" y="692" on="1"/>
        <pt x="314" y="727" on="0"/>
        <pt x="347" y="757" on="0"/>
        <pt x="382" y="757" on="1"/>
        <pt x="451" y="757" on="0"/>
        <pt x="451" y="692" on="1"/>
        <pt x="451" y="627" on="0"/>
      </contour>
      <contour>
        <pt x="65" y="577" on="1"/>
        <pt x="474" y="577" on="1"/>
        <pt x="474" y="480" on="1"/>
        <pt x="188" y="480" on="1"/>
        <pt x="188" y="336" on="1"/>
        <pt x="446" y="336" on="1"/>
        <pt x="446" y="245" on="1"/>
        <pt x="188" y="245" on="1"/>
        <pt x="188" y="97" on="1"/>
        <pt x="481" y="97" on="1"/>
        <pt x="481" y="0" on="1"/>
        <pt x="65" y="0" on="1"/>
      </contour>
    </TTGlyph>
    <TTGlyph name="Edotaccent" xMin="69" yMin="0" xMax="529" yMax="944">
      <contour>
        <pt x="295" y="801" on="1"/>
        <pt x="222" y="801" on="0"/>
        <pt x="222" y="872" on="1"/>
        <pt x="222" y="910" on="0"/>
        <pt x="257" y="944" on="0"/>
        <pt x="295" y="944" on="1"/>
        <pt x="332" y="944" on="0"/>
        <pt x="368" y="910" on="0"/>
        <pt x="368" y="872" on="1"/>
        <pt x="368" y="801" on="0"/>
      </contour>
      <contour>
        <pt x="69" y="740" on="1"/>
        <pt x="520" y="740" on="1"/>
        <pt x="520" y="633" on="1"/>
        <pt x="197" y="633" on="1"/>
        <pt x="197" y="426" on="1"/>
        <pt x="488" y="426" on="1"/>
        <pt x="488" y="319" on="1"/>
        <pt x="197" y="319" on="1"/>
        <pt x="197" y="107" on="1"/>
        <pt x="529" y="107" on="1"/>
        <pt x="529" y="0" on="1"/>
        <pt x="69" y="0" on="1"/>
      </contour>
    </TTGlyph>
    <TTGlyph name="Edotaccent.sc" xMin="65" yMin="0" xMax="481" yMax="754">
      <contour>
        <pt x="270" y="624" on="1"/>
        <pt x="234" y="624" on="0"/>
        <pt x="202" y="655" on="0"/>
        <pt x="202" y="690" on="1"/>
        <pt x="202" y="724" on="0"/>
        <pt x="234" y="754" on="0"/>
        <pt x="270" y="754" on="1"/>
        <pt x="305" y="754" on="0"/>
        <pt x="338" y="724" on="0"/>
        <pt x="338" y="690" on="1"/>
        <pt x="338" y="655" on="0"/>
        <pt x="305" y="624" on="0"/>
      </contour>
      <contour>
        <pt x="65" y="577" on="1"/>
        <pt x="474" y="577" on="1"/>
        <pt x="474" y="480" on="1"/>
        <pt x="188" y="480" on="1"/>
        <pt x="188" y="336" on="1"/>
        <pt x="446" y="336" on="1"/>
        <pt x="446" y="245" on="1"/>
        <pt x="188" y="245" on="1"/>
        <pt x="188" y="97" on="1"/>
        <pt x="481" y="97" on="1"/>
        <pt x="481" y="0" on="1"/>
        <pt x="65" y="0" on="1"/>
      </contour>
    </TTGlyph>
    <TTGlyph name="Edotbelow" xMin="69" yMin="-194" xMax="529" yMax="740">
      <contour>
        <pt x="69" y="740" on="1"/>
        <pt x="520" y="740" on="1"/>
        <pt x="520" y="633" on="1"/>
        <pt x="197" y="633" on="1"/>
        <pt x="197" y="426" on="1"/>
        <pt x="488" y="426" on="1"/>
        <pt x="488" y="319" on="1"/>
        <pt x="197" y="319" on="1"/>
        <pt x="197" y="107" on="1"/>
        <pt x="529" y="107" on="1"/>
        <pt x="529" y="0" on="1"/>
        <pt x="69" y="0" on="1"/>
      </contour>
      <contour>
        <pt x="309" y="-194" on="1"/>
        <pt x="277" y="-194" on="0"/>
        <pt x="248" y="-166" on="0"/>
        <pt x="248" y="-134" on="1"/>
        <pt x="248" y="-102" on="0"/>
        <pt x="277" y="-75" on="0"/>
        <pt x="309" y="-75" on="1"/>
        <pt x="341" y="-75" on="0"/>
        <pt x="370" y="-102" on="0"/>
        <pt x="370" y="-134" on="1"/>
        <pt x="370" y="-166" on="0"/>
        <pt x="341" y="-194" on="0"/>
      </contour>
    </TTGlyph>
    <TTGlyph name="Edotbelow.sc" xMin="65" yMin="-158" xMax="481" yMax="577">
      <contour>
        <pt x="282" y="-158" on="1"/>
        <pt x="253" y="-158" on="0"/>
        <pt x="226" y="-135" on="0"/>
        <pt x="226" y="-107" on="1"/>
        <pt x="226" y="-78" on="0"/>
        <pt x="253" y="-54" on="0"/>
        <pt x="282" y="-54" on="1"/>
        <pt x="339" y="-54" on="0"/>
        <pt x="339" y="-107" on="1"/>
        <pt x="339" y="-134" on="0"/>
        <pt x="311" y="-158" on="0"/>
      </contour>
      <contour>
        <pt x="65" y="577" on="1"/>
        <pt x="474" y="577" on="1"/>
        <pt x="474" y="480" on="1"/>
        <pt x="188" y="480" on="1"/>
        <pt x="188" y="336" on="1"/>
        <pt x="446" y="336" on="1"/>
        <pt x="446" y="245" on="1"/>
        <pt x="188" y="245" on="1"/>
        <pt x="188" y="97" on="1"/>
        <pt x="481" y="97" on="1"/>
        <pt x="481" y="0" on="1"/>
        <pt x="65" y="0" on="1"/>
      </contour>
    </TTGlyph>
    <TTGlyph name="Egrave" xMin="69" yMin="0" xMax="529" yMax="958">
      <contour>
        <pt x="252" y="792" on="1"/>
        <pt x="145" y="958" on="1"/>
        <pt x="275" y="958" on="1"/>
        <pt x="345" y="804" on="1"/>
      </contour>
      <contour>
        <pt x="69" y="740" on="1"/>
        <pt x="520" y="740" on="1"/>
        <pt x="520" y="633" on="1"/>
        <pt x="197" y="633" on="1"/>
        <pt x="197" y="426" on="1"/>
        <pt x="488" y="426" on="1"/>
        <pt x="488" y="319" on="1"/>
        <pt x="197" y="319" on="1"/>
        <pt x="197" y="107" on="1"/>
        <pt x="529" y="107" on="1"/>
        <pt x="529" y="0" on="1"/>
        <pt x="69" y="0" on="1"/>
      </contour>
    </TTGlyph>
    <TTGlyph name="Egrave.sc" xMin="65" yMin="0" xMax="481" yMax="758">
      <contour>
        <pt x="65" y="577" on="1"/>
        <pt x="474" y="577" on="1"/>
        <pt x="474" y="480" on="1"/>
        <pt x="188" y="480" on="1"/>
        <pt x="188" y="336" on="1"/>
        <pt x="446" y="336" on="1"/>
        <pt x="446" y="245" on="1"/>
        <pt x="188" y="245" on="1"/>
        <pt x="188" y="97" on="1"/>
        <pt x="481" y="97" on="1"/>
        <pt x="481" y="0" on="1"/>
        <pt x="65" y="0" on="1"/>
      </contour>
      <contour>
        <pt x="135" y="758" on="1"/>
        <pt x="257" y="758" on="1"/>
        <pt x="318" y="628" on="1"/>
        <pt x="231" y="619" on="1"/>
      </contour>
    </TTGlyph>
    <TTGlyph name="Einvertedbreve" xMin="69" yMin="0" xMax="529" yMax="976">
      <contour>
        <pt x="69" y="740" on="1"/>
        <pt x="520" y="740" on="1"/>
        <pt x="520" y="633" on="1"/>
        <pt x="197" y="633" on="1"/>
        <pt x="197" y="426" on="1"/>
        <pt x="488" y="426" on="1"/>
        <pt x="488" y="319" on="1"/>
        <pt x="197" y="319" on="1"/>
        <pt x="197" y="107" on="1"/>
        <pt x="529" y="107" on="1"/>
        <pt x="529" y="0" on="1"/>
        <pt x="69" y="0" on="1"/>
      </contour>
      <contour>
        <pt x="386" y="813" on="1"/>
        <pt x="386" y="864" on="0"/>
        <pt x="344" y="911" on="0"/>
        <pt x="297" y="911" on="1"/>
        <pt x="249" y="911" on="0"/>
        <pt x="208" y="864" on="0"/>
        <pt x="208" y="813" on="1"/>
        <pt x="119" y="813" on="1"/>
        <pt x="119" y="888" on="0"/>
        <pt x="208" y="976" on="0"/>
        <pt x="297" y="976" on="1"/>
        <pt x="385" y="976" on="0"/>
        <pt x="475" y="888" on="0"/>
        <pt x="475" y="813" on="1"/>
      </contour>
    </TTGlyph>
    <TTGlyph name="Einvertedbreve.sc" xMin="65" yMin="0" xMax="481" yMax="767">
      <contour>
        <pt x="110" y="633" on="1"/>
        <pt x="110" y="694" on="0"/>
        <pt x="189" y="767" on="0"/>
        <pt x="272" y="767" on="1"/>
        <pt x="353" y="767" on="0"/>
        <pt x="434" y="695" on="0"/>
        <pt x="434" y="633" on="1"/>
        <pt x="350" y="633" on="1"/>
        <pt x="350" y="672" on="0"/>
        <pt x="314" y="708" on="0"/>
        <pt x="272" y="708" on="1"/>
        <pt x="230" y="708" on="0"/>
        <pt x="193" y="672" on="0"/>
        <pt x="193" y="633" on="1"/>
      </contour>
      <contour>
        <pt x="65" y="577" on="1"/>
        <pt x="474" y="577" on="1"/>
        <pt x="474" y="480" on="1"/>
        <pt x="188" y="480" on="1"/>
        <pt x="188" y="336" on="1"/>
        <pt x="446" y="336" on="1"/>
        <pt x="446" y="245" on="1"/>
        <pt x="188" y="245" on="1"/>
        <pt x="188" y="97" on="1"/>
        <pt x="481" y="97" on="1"/>
        <pt x="481" y="0" on="1"/>
        <pt x="65" y="0" on="1"/>
      </contour>
    </TTGlyph>
    <TTGlyph name="Emacron" xMin="69" yMin="0" xMax="529" yMax="927">
      <contour>
        <pt x="138" y="927" on="1"/>
        <pt x="448" y="927" on="1"/>
        <pt x="448" y="840" on="1"/>
        <pt x="138" y="840" on="1"/>
      </contour>
      <contour>
        <pt x="69" y="740" on="1"/>
        <pt x="520" y="740" on="1"/>
        <pt x="520" y="633" on="1"/>
        <pt x="197" y="633" on="1"/>
        <pt x="197" y="426" on="1"/>
        <pt x="488" y="426" on="1"/>
        <pt x="488" y="319" on="1"/>
        <pt x="197" y="319" on="1"/>
        <pt x="197" y="107" on="1"/>
        <pt x="529" y="107" on="1"/>
        <pt x="529" y="0" on="1"/>
        <pt x="69" y="0" on="1"/>
      </contour>
    </TTGlyph>
    <TTGlyph name="Emacron.sc" xMin="65" yMin="0" xMax="481" yMax="735">
      <contour>
        <pt x="65" y="577" on="1"/>
        <pt x="474" y="577" on="1"/>
        <pt x="474" y="480" on="1"/>
        <pt x="188" y="480" on="1"/>
        <pt x="188" y="336" on="1"/>
        <pt x="446" y="336" on="1"/>
        <pt x="446" y="245" on="1"/>
        <pt x="188" y="245" on="1"/>
        <pt x="188" y="97" on="1"/>
        <pt x="481" y="97" on="1"/>
        <pt x="481" y="0" on="1"/>
        <pt x="65" y="0" on="1"/>
      </contour>
      <contour>
        <pt x="128" y="735" on="1"/>
        <pt x="412" y="735" on="1"/>
        <pt x="412" y="655" on="1"/>
        <pt x="128" y="655" on="1"/>
      </contour>
    </TTGlyph>
    <TTGlyph name="Eng" xMin="69" yMin="-198" xMax="643" yMax="740">
      <contour>
        <pt x="445" y="-170" on="1"/>
        <pt x="494" y="-59" on="0"/>
        <pt x="509" y="39" on="1"/>
        <pt x="240" y="443" on="1"/>
        <pt x="192" y="529" on="1"/>
        <pt x="184" y="529" on="1"/>
        <pt x="184" y="0" on="1"/>
        <pt x="69" y="0" on="1"/>
        <pt x="69" y="740" on="1"/>
        <pt x="176" y="740" on="1"/>
        <pt x="473" y="295" on="1"/>
        <pt x="519" y="212" on="1"/>
        <pt x="527" y="212" on="1"/>
        <pt x="527" y="740" on="1"/>
        <pt x="643" y="740" on="1"/>
        <pt x="643" y="97" on="1"/>
        <pt x="643" y="71" on="0"/>
        <pt x="626" y="-1" on="0"/>
        <pt x="596" y="-81" on="0"/>
        <pt x="555" y="-162" on="0"/>
        <pt x="531" y="-198" on="1"/>
      </contour>
    </TTGlyph>
    <TTGlyph name="Eng.sc" xMin="66" yMin="-159" xMax="578" yMax="577">
      <contour>
        <pt x="399" y="-133" on="1"/>
        <pt x="443" y="-40" on="0"/>
        <pt x="455" y="34" on="1"/>
        <pt x="226" y="315" on="1"/>
        <pt x="182" y="381" on="1"/>
        <pt x="175" y="382" on="1"/>
        <pt x="175" y="0" on="1"/>
        <pt x="66" y="0" on="1"/>
        <pt x="66" y="577" on="1"/>
        <pt x="166" y="577" on="1"/>
        <pt x="420" y="262" on="1"/>
        <pt x="462" y="196" on="1"/>
        <pt x="469" y="197" on="1"/>
        <pt x="469" y="577" on="1"/>
        <pt x="578" y="577" on="1"/>
        <pt x="578" y="86" on="1"/>
        <pt x="578" y="64" on="0"/>
        <pt x="563" y="5" on="0"/>
        <pt x="537" y="-61" on="0"/>
        <pt x="501" y="-129" on="0"/>
        <pt x="480" y="-159" on="1"/>
      </contour>
    </TTGlyph>
    <TTGlyph name="Eogonek" xMin="69" yMin="-220" xMax="529" yMax="740">
      <contour>
        <pt x="69" y="740" on="1"/>
        <pt x="520" y="740" on="1"/>
        <pt x="520" y="633" on="1"/>
        <pt x="197" y="633" on="1"/>
        <pt x="197" y="426" on="1"/>
        <pt x="488" y="426" on="1"/>
        <pt x="488" y="319" on="1"/>
        <pt x="197" y="319" on="1"/>
        <pt x="197" y="107" on="1"/>
        <pt x="529" y="107" on="1"/>
        <pt x="529" y="0" on="1"/>
        <pt x="528" y="0" on="1"/>
        <pt x="528" y="-12" on="1"/>
        <pt x="471" y="-35" on="0"/>
        <pt x="422" y="-90" on="0"/>
        <pt x="422" y="-114" on="1"/>
        <pt x="422" y="-145" on="0"/>
        <pt x="462" y="-145" on="1"/>
        <pt x="477" y="-145" on="0"/>
        <pt x="513" y="-138" on="0"/>
        <pt x="528" y="-133" on="1"/>
        <pt x="528" y="-208" on="1"/>
        <pt x="509" y="-214" on="0"/>
        <pt x="473" y="-220" on="0"/>
        <pt x="453" y="-220" on="1"/>
        <pt x="337" y="-220" on="0"/>
        <pt x="337" y="-127" on="1"/>
        <pt x="337" y="-92" on="0"/>
        <pt x="379" y="-30" on="0"/>
        <pt x="424" y="0" on="1"/>
        <pt x="69" y="0" on="1"/>
      </contour>
    </TTGlyph>
    <TTGlyph name="Eogonek.sc" xMin="66" yMin="-172" xMax="482" yMax="577">
      <contour>
        <pt x="413" y="-172" on="1"/>
        <pt x="307" y="-172" on="0"/>
        <pt x="307" y="-97" on="1"/>
        <pt x="307" y="-68" on="0"/>
        <pt x="342" y="-23" on="0"/>
        <pt x="380" y="0" on="1"/>
        <pt x="66" y="0" on="1"/>
        <pt x="66" y="577" on="1"/>
        <pt x="474" y="577" on="1"/>
        <pt x="474" y="480" on="1"/>
        <pt x="188" y="480" on="1"/>
        <pt x="188" y="336" on="1"/>
        <pt x="446" y="336" on="1"/>
        <pt x="446" y="245" on="1"/>
        <pt x="188" y="245" on="1"/>
        <pt x="188" y="97" on="1"/>
        <pt x="482" y="97" on="1"/>
        <pt x="482" y="-7" on="1"/>
        <pt x="428" y="-27" on="0"/>
        <pt x="387" y="-67" on="0"/>
        <pt x="387" y="-83" on="1"/>
        <pt x="387" y="-103" on="0"/>
        <pt x="421" y="-103" on="1"/>
        <pt x="435" y="-103" on="0"/>
        <pt x="470" y="-98" on="0"/>
        <pt x="482" y="-94" on="1"/>
        <pt x="482" y="-162" on="1"/>
        <pt x="464" y="-167" on="0"/>
        <pt x="431" y="-172" on="0"/>
      </contour>
    </TTGlyph>
    <TTGlyph name="Eth" xMin="0" yMin="-13" xMax="640" yMax="750">
      <contour>
        <pt x="0" y="421" on="1"/>
        <pt x="87" y="421" on="1"/>
        <pt x="87" y="737" on="1"/>
        <pt x="148" y="743" on="0"/>
        <pt x="242" y="750" on="0"/>
        <pt x="280" y="750" on="1"/>
        <pt x="375" y="750" on="0"/>
        <pt x="512" y="706" on="0"/>
        <pt x="599" y="614" on="0"/>
        <pt x="640" y="469" on="0"/>
        <pt x="640" y="369" on="1"/>
        <pt x="640" y="267" on="0"/>
        <pt x="597" y="123" on="0"/>
        <pt x="505" y="30" on="0"/>
        <pt x="359" y="-13" on="0"/>
        <pt x="257" y="-13" on="1"/>
        <pt x="215" y="-13" on="0"/>
        <pt x="131" y="-8" on="0"/>
        <pt x="87" y="-2" on="1"/>
        <pt x="87" y="322" on="1"/>
        <pt x="0" y="322" on="1"/>
      </contour>
      <contour>
        <pt x="300" y="92" on="1"/>
        <pt x="356" y="92" on="0"/>
        <pt x="435" y="121" on="0"/>
        <pt x="485" y="187" on="0"/>
        <pt x="508" y="293" on="0"/>
        <pt x="508" y="369" on="1"/>
        <pt x="508" y="445" on="0"/>
        <pt x="486" y="550" on="0"/>
        <pt x="436" y="616" on="0"/>
        <pt x="356" y="645" on="0"/>
        <pt x="299" y="645" on="1"/>
        <pt x="277" y="645" on="0"/>
        <pt x="235" y="642" on="0"/>
        <pt x="214" y="638" on="1"/>
        <pt x="214" y="421" on="1"/>
        <pt x="338" y="421" on="1"/>
        <pt x="338" y="322" on="1"/>
        <pt x="214" y="322" on="1"/>
        <pt x="214" y="98" on="1"/>
        <pt x="240" y="95" on="0"/>
        <pt x="280" y="92" on="0"/>
      </contour>
    </TTGlyph>
    <TTGlyph name="Eth.sc" xMin="6" yMin="-10" xMax="583" yMax="585">
      <contour>
        <pt x="6" y="335" on="1"/>
        <pt x="82" y="335" on="1"/>
        <pt x="82" y="576" on="1"/>
        <pt x="139" y="580" on="0"/>
        <pt x="226" y="585" on="0"/>
        <pt x="260" y="585" on="1"/>
        <pt x="345" y="585" on="0"/>
        <pt x="468" y="551" on="0"/>
        <pt x="546" y="479" on="0"/>
        <pt x="583" y="367" on="0"/>
        <pt x="583" y="288" on="1"/>
        <pt x="583" y="208" on="0"/>
        <pt x="545" y="95" on="0"/>
        <pt x="462" y="23" on="0"/>
        <pt x="331" y="-10" on="0"/>
        <pt x="239" y="-10" on="1"/>
        <pt x="201" y="-10" on="0"/>
        <pt x="121" y="-5" on="0"/>
        <pt x="82" y="0" on="1"/>
        <pt x="82" y="244" on="1"/>
        <pt x="6" y="244" on="1"/>
      </contour>
      <contour>
        <pt x="281" y="89" on="1"/>
        <pt x="329" y="89" on="0"/>
        <pt x="396" y="109" on="0"/>
        <pt x="439" y="155" on="0"/>
        <pt x="458" y="232" on="0"/>
        <pt x="458" y="288" on="1"/>
        <pt x="458" y="344" on="0"/>
        <pt x="439" y="420" on="0"/>
        <pt x="396" y="467" on="0"/>
        <pt x="327" y="487" on="0"/>
        <pt x="278" y="487" on="1"/>
        <pt x="259" y="487" on="0"/>
        <pt x="223" y="484" on="0"/>
        <pt x="203" y="482" on="1"/>
        <pt x="203" y="335" on="1"/>
        <pt x="309" y="335" on="1"/>
        <pt x="309" y="244" on="1"/>
        <pt x="203" y="244" on="1"/>
        <pt x="203" y="94" on="1"/>
        <pt x="226" y="91" on="0"/>
        <pt x="263" y="89" on="0"/>
      </contour>
    </TTGlyph>
    <TTGlyph name="Etilde" xMin="69" yMin="0" xMax="529" yMax="944">
      <contour>
        <pt x="112" y="847" on="1"/>
        <pt x="138" y="894" on="0"/>
        <pt x="207" y="944" on="0"/>
        <pt x="240" y="944" on="1"/>
        <pt x="261" y="944" on="0"/>
        <pt x="300" y="931" on="0"/>
        <pt x="337" y="916" on="0"/>
        <pt x="375" y="903" on="0"/>
        <pt x="395" y="903" on="1"/>
        <pt x="432" y="903" on="0"/>
        <pt x="470" y="942" on="1"/>
        <pt x="495" y="918" on="1"/>
        <pt x="470" y="870" on="0"/>
        <pt x="401" y="820" on="0"/>
        <pt x="367" y="820" on="1"/>
        <pt x="346" y="820" on="0"/>
        <pt x="308" y="832" on="0"/>
        <pt x="270" y="847" on="0"/>
        <pt x="233" y="859" on="0"/>
        <pt x="213" y="859" on="1"/>
        <pt x="193" y="859" on="0"/>
        <pt x="155" y="842" on="0"/>
        <pt x="135" y="822" on="1"/>
      </contour>
      <contour>
        <pt x="69" y="740" on="1"/>
        <pt x="520" y="740" on="1"/>
        <pt x="520" y="633" on="1"/>
        <pt x="197" y="633" on="1"/>
        <pt x="197" y="426" on="1"/>
        <pt x="488" y="426" on="1"/>
        <pt x="488" y="319" on="1"/>
        <pt x="197" y="319" on="1"/>
        <pt x="197" y="107" on="1"/>
        <pt x="529" y="107" on="1"/>
        <pt x="529" y="0" on="1"/>
        <pt x="69" y="0" on="1"/>
      </contour>
    </TTGlyph>
    <TTGlyph name="Etilde.sc" xMin="65" yMin="0" xMax="481" yMax="747">
      <contour>
        <pt x="104" y="660" on="1"/>
        <pt x="128" y="702" on="0"/>
        <pt x="192" y="747" on="0"/>
        <pt x="222" y="747" on="1"/>
        <pt x="241" y="747" on="0"/>
        <pt x="276" y="738" on="0"/>
        <pt x="310" y="726" on="0"/>
        <pt x="344" y="717" on="0"/>
        <pt x="362" y="717" on="1"/>
        <pt x="380" y="717" on="0"/>
        <pt x="413" y="729" on="0"/>
        <pt x="431" y="746" on="1"/>
        <pt x="453" y="726" on="1"/>
        <pt x="430" y="682" on="0"/>
        <pt x="366" y="638" on="0"/>
        <pt x="336" y="638" on="1"/>
        <pt x="317" y="638" on="0"/>
        <pt x="282" y="648" on="0"/>
        <pt x="247" y="659" on="0"/>
        <pt x="213" y="669" on="0"/>
        <pt x="195" y="669" on="1"/>
        <pt x="177" y="669" on="0"/>
        <pt x="143" y="656" on="0"/>
        <pt x="124" y="640" on="1"/>
      </contour>
      <contour>
        <pt x="65" y="577" on="1"/>
        <pt x="474" y="577" on="1"/>
        <pt x="474" y="480" on="1"/>
        <pt x="188" y="480" on="1"/>
        <pt x="188" y="336" on="1"/>
        <pt x="446" y="336" on="1"/>
        <pt x="446" y="245" on="1"/>
        <pt x="188" y="245" on="1"/>
        <pt x="188" y="97" on="1"/>
        <pt x="481" y="97" on="1"/>
        <pt x="481" y="0" on="1"/>
        <pt x="65" y="0" on="1"/>
      </contour>
    </TTGlyph>
    <TTGlyph name="Euro" xMin="34" yMin="-10" xMax="555" yMax="749">
      <contour>
        <pt x="34" y="491" on="1"/>
        <pt x="116" y="491" on="1"/>
        <pt x="139" y="623" on="0"/>
        <pt x="300" y="749" on="0"/>
        <pt x="444" y="749" on="1"/>
        <pt x="479" y="749" on="0"/>
        <pt x="533" y="742" on="0"/>
        <pt x="555" y="736" on="1"/>
        <pt x="527" y="634" on="1"/>
        <pt x="511" y="636" on="0"/>
        <pt x="479" y="639" on="0"/>
        <pt x="462" y="639" on="1"/>
        <pt x="412" y="639" on="0"/>
        <pt x="339" y="624" on="0"/>
        <pt x="287" y="589" on="0"/>
        <pt x="255" y="532" on="0"/>
        <pt x="247" y="491" on="1"/>
        <pt x="483" y="491" on="1"/>
        <pt x="464" y="416" on="1"/>
        <pt x="238" y="416" on="1"/>
        <pt x="237" y="405" on="0"/>
        <pt x="237" y="381" on="0"/>
        <pt x="237" y="369" on="1"/>
        <pt x="237" y="357" on="0"/>
        <pt x="237" y="334" on="0"/>
        <pt x="238" y="323" on="1"/>
        <pt x="450" y="323" on="1"/>
        <pt x="431" y="248" on="1"/>
        <pt x="247" y="248" on="1"/>
        <pt x="263" y="167" on="0"/>
        <pt x="363" y="99" on="0"/>
        <pt x="461" y="99" on="1"/>
        <pt x="482" y="99" on="0"/>
        <pt x="526" y="104" on="0"/>
        <pt x="548" y="109" on="1"/>
        <pt x="548" y="2" on="1"/>
        <pt x="509" y="-10" on="0"/>
        <pt x="446" y="-10" on="1"/>
        <pt x="302" y="-9" on="0"/>
        <pt x="140" y="117" on="0"/>
        <pt x="117" y="248" on="1"/>
        <pt x="34" y="248" on="1"/>
        <pt x="34" y="323" on="1"/>
        <pt x="108" y="323" on="1"/>
        <pt x="107" y="334" on="0"/>
        <pt x="107" y="357" on="0"/>
        <pt x="107" y="369" on="1"/>
        <pt x="107" y="381" on="0"/>
        <pt x="107" y="405" on="0"/>
        <pt x="108" y="416" on="1"/>
        <pt x="34" y="416" on="1"/>
      </contour>
    </TTGlyph>
    <TTGlyph name="Euro.tab" xMin="23" yMin="-10" xMax="539" yMax="749">
      <contour>
        <pt x="23" y="491" on="1"/>
        <pt x="106" y="491" on="1"/>
        <pt x="129" y="625" on="0"/>
        <pt x="286" y="749" on="0"/>
        <pt x="428" y="749" on="1"/>
        <pt x="463" y="749" on="0"/>
        <pt x="517" y="742" on="0"/>
        <pt x="539" y="736" on="1"/>
        <pt x="512" y="634" on="1"/>
        <pt x="496" y="636" on="0"/>
        <pt x="464" y="639" on="0"/>
        <pt x="447" y="639" on="1"/>
        <pt x="400" y="639" on="0"/>
        <pt x="328" y="623" on="0"/>
        <pt x="277" y="588" on="0"/>
        <pt x="245" y="532" on="0"/>
        <pt x="237" y="491" on="1"/>
        <pt x="468" y="491" on="1"/>
        <pt x="449" y="416" on="1"/>
        <pt x="225" y="416" on="1"/>
        <pt x="224" y="409" on="0"/>
        <pt x="224" y="377" on="0"/>
        <pt x="224" y="369" on="1"/>
        <pt x="224" y="361" on="0"/>
        <pt x="224" y="331" on="0"/>
        <pt x="225" y="323" on="1"/>
        <pt x="435" y="323" on="1"/>
        <pt x="416" y="248" on="1"/>
        <pt x="237" y="248" on="1"/>
        <pt x="254" y="168" on="0"/>
        <pt x="353" y="99" on="0"/>
        <pt x="446" y="99" on="1"/>
        <pt x="466" y="99" on="0"/>
        <pt x="511" y="104" on="0"/>
        <pt x="532" y="109" on="1"/>
        <pt x="532" y="2" on="1"/>
        <pt x="494" y="-10" on="0"/>
        <pt x="430" y="-10" on="1"/>
        <pt x="288" y="-9" on="0"/>
        <pt x="129" y="117" on="0"/>
        <pt x="106" y="248" on="1"/>
        <pt x="23" y="248" on="1"/>
        <pt x="23" y="323" on="1"/>
        <pt x="96" y="323" on="1"/>
        <pt x="95" y="334" on="0"/>
        <pt x="95" y="358" on="0"/>
        <pt x="95" y="369" on="1"/>
        <pt x="95" y="380" on="0"/>
        <pt x="95" y="405" on="0"/>
        <pt x="96" y="416" on="1"/>
        <pt x="23" y="416" on="1"/>
      </contour>
    </TTGlyph>
    <TTGlyph name="F" xMin="69" yMin="0" xMax="509" yMax="740">
      <contour>
        <pt x="69" y="740" on="1"/>
        <pt x="509" y="740" on="1"/>
        <pt x="509" y="633" on="1"/>
        <pt x="197" y="633" on="1"/>
        <pt x="197" y="414" on="1"/>
        <pt x="481" y="414" on="1"/>
        <pt x="481" y="307" on="1"/>
        <pt x="197" y="307" on="1"/>
        <pt x="197" y="0" on="1"/>
        <pt x="69" y="0" on="1"/>
      </contour>
    </TTGlyph>
    <TTGlyph name="F.sc" xMin="65" yMin="0" xMax="465" yMax="577">
      <contour>
        <pt x="65" y="577" on="1"/>
        <pt x="465" y="577" on="1"/>
        <pt x="465" y="478" on="1"/>
        <pt x="188" y="478" on="1"/>
        <pt x="188" y="326" on="1"/>
        <pt x="439" y="326" on="1"/>
        <pt x="439" y="229" on="1"/>
        <pt x="188" y="229" on="1"/>
        <pt x="188" y="0" on="1"/>
        <pt x="65" y="0" on="1"/>
      </contour>
    </TTGlyph>
    <TTGlyph name="F_B.sc" xMin="65" yMin="-8" xMax="1012" yMax="585">
      <contour>
        <pt x="65" y="577" on="1"/>
        <pt x="465" y="577" on="1"/>
        <pt x="465" y="478" on="1"/>
        <pt x="188" y="478" on="1"/>
        <pt x="188" y="326" on="1"/>
        <pt x="439" y="326" on="1"/>
        <pt x="439" y="229" on="1"/>
        <pt x="188" y="229" on="1"/>
        <pt x="188" y="0" on="1"/>
        <pt x="65" y="0" on="1"/>
      </contour>
      <contour>
        <pt x="749" y="-8" on="1"/>
        <pt x="701" y="-8" on="0"/>
        <pt x="597" y="-2" on="0"/>
        <pt x="549" y="4" on="1"/>
        <pt x="549" y="573" on="1"/>
        <pt x="610" y="579" on="0"/>
        <pt x="700" y="585" on="0"/>
        <pt x="742" y="585" on="1"/>
        <pt x="873" y="585" on="0"/>
        <pt x="993" y="508" on="0"/>
        <pt x="993" y="423" on="1"/>
        <pt x="993" y="321" on="0"/>
        <pt x="889" y="298" on="1"/>
        <pt x="889" y="295" on="1"/>
        <pt x="949" y="284" on="0"/>
        <pt x="1012" y="214" on="0"/>
        <pt x="1012" y="157" on="1"/>
        <pt x="1012" y="-8" on="0"/>
      </contour>
      <contour>
        <pt x="760" y="81" on="1"/>
        <pt x="892" y="81" on="0"/>
        <pt x="892" y="166" on="1"/>
        <pt x="892" y="212" on="0"/>
        <pt x="830" y="250" on="0"/>
        <pt x="757" y="250" on="1"/>
        <pt x="664" y="250" on="1"/>
        <pt x="664" y="86" on="1"/>
        <pt x="692" y="81" on="0"/>
      </contour>
      <contour>
        <pt x="753" y="331" on="1"/>
        <pt x="819" y="331" on="0"/>
        <pt x="872" y="368" on="0"/>
        <pt x="872" y="415" on="1"/>
        <pt x="872" y="458" on="0"/>
        <pt x="816" y="496" on="0"/>
        <pt x="754" y="496" on="1"/>
        <pt x="730" y="496" on="0"/>
        <pt x="686" y="493" on="0"/>
        <pt x="664" y="491" on="1"/>
        <pt x="664" y="331" on="1"/>
      </contour>
    </TTGlyph>
    <TTGlyph name="F_F.sc" xMin="65" yMin="0" xMax="948" yMax="577">
      <contour>
        <pt x="65" y="577" on="1"/>
        <pt x="465" y="577" on="1"/>
        <pt x="465" y="478" on="1"/>
        <pt x="188" y="478" on="1"/>
        <pt x="188" y="326" on="1"/>
        <pt x="439" y="326" on="1"/>
        <pt x="439" y="229" on="1"/>
        <pt x="188" y="229" on="1"/>
        <pt x="188" y="0" on="1"/>
        <pt x="65" y="0" on="1"/>
      </contour>
      <contour>
        <pt x="548" y="577" on="1"/>
        <pt x="948" y="577" on="1"/>
        <pt x="948" y="478" on="1"/>
        <pt x="671" y="478" on="1"/>
        <pt x="671" y="326" on="1"/>
        <pt x="922" y="326" on="1"/>
        <pt x="922" y="229" on="1"/>
        <pt x="671" y="229" on="1"/>
        <pt x="671" y="0" on="1"/>
        <pt x="548" y="0" on="1"/>
      </contour>
    </TTGlyph>
    <TTGlyph name="F_F_B.sc" xMin="65" yMin="-8" xMax="1495" yMax="585">
      <contour>
        <pt x="65" y="577" on="1"/>
        <pt x="465" y="577" on="1"/>
        <pt x="465" y="478" on="1"/>
        <pt x="188" y="478" on="1"/>
        <pt x="188" y="326" on="1"/>
        <pt x="439" y="326" on="1"/>
        <pt x="439" y="229" on="1"/>
        <pt x="188" y="229" on="1"/>
        <pt x="188" y="0" on="1"/>
        <pt x="65" y="0" on="1"/>
      </contour>
      <contour>
        <pt x="548" y="577" on="1"/>
        <pt x="948" y="577" on="1"/>
        <pt x="948" y="478" on="1"/>
        <pt x="671" y="478" on="1"/>
        <pt x="671" y="326" on="1"/>
        <pt x="922" y="326" on="1"/>
        <pt x="922" y="229" on="1"/>
        <pt x="671" y="229" on="1"/>
        <pt x="671" y="0" on="1"/>
        <pt x="548" y="0" on="1"/>
      </contour>
      <contour>
        <pt x="1232" y="-8" on="1"/>
        <pt x="1184" y="-8" on="0"/>
        <pt x="1080" y="-2" on="0"/>
        <pt x="1032" y="4" on="1"/>
        <pt x="1032" y="573" on="1"/>
        <pt x="1093" y="579" on="0"/>
        <pt x="1183" y="585" on="0"/>
        <pt x="1225" y="585" on="1"/>
        <pt x="1356" y="585" on="0"/>
        <pt x="1476" y="508" on="0"/>
        <pt x="1476" y="423" on="1"/>
        <pt x="1476" y="321" on="0"/>
        <pt x="1372" y="298" on="1"/>
        <pt x="1372" y="295" on="1"/>
        <pt x="1432" y="284" on="0"/>
        <pt x="1495" y="214" on="0"/>
        <pt x="1495" y="157" on="1"/>
        <pt x="1495" y="-8" on="0"/>
      </contour>
      <contour>
        <pt x="1243" y="81" on="1"/>
        <pt x="1375" y="81" on="0"/>
        <pt x="1375" y="166" on="1"/>
        <pt x="1375" y="212" on="0"/>
        <pt x="1313" y="250" on="0"/>
        <pt x="1240" y="250" on="1"/>
        <pt x="1147" y="250" on="1"/>
        <pt x="1147" y="86" on="1"/>
        <pt x="1175" y="81" on="0"/>
      </contour>
      <contour>
        <pt x="1236" y="331" on="1"/>
        <pt x="1302" y="331" on="0"/>
        <pt x="1355" y="368" on="0"/>
        <pt x="1355" y="415" on="1"/>
        <pt x="1355" y="458" on="0"/>
        <pt x="1299" y="496" on="0"/>
        <pt x="1237" y="496" on="1"/>
        <pt x="1213" y="496" on="0"/>
        <pt x="1169" y="493" on="0"/>
        <pt x="1147" y="491" on="1"/>
        <pt x="1147" y="331" on="1"/>
      </contour>
    </TTGlyph>
    <TTGlyph name="F_F_H.sc" xMin="65" yMin="0" xMax="1541" yMax="577">
      <contour>
        <pt x="65" y="577" on="1"/>
        <pt x="465" y="577" on="1"/>
        <pt x="465" y="478" on="1"/>
        <pt x="188" y="478" on="1"/>
        <pt x="188" y="326" on="1"/>
        <pt x="439" y="326" on="1"/>
        <pt x="439" y="229" on="1"/>
        <pt x="188" y="229" on="1"/>
        <pt x="188" y="0" on="1"/>
        <pt x="65" y="0" on="1"/>
      </contour>
      <contour>
        <pt x="548" y="577" on="1"/>
        <pt x="948" y="577" on="1"/>
        <pt x="948" y="478" on="1"/>
        <pt x="671" y="478" on="1"/>
        <pt x="671" y="326" on="1"/>
        <pt x="922" y="326" on="1"/>
        <pt x="922" y="229" on="1"/>
        <pt x="671" y="229" on="1"/>
        <pt x="671" y="0" on="1"/>
        <pt x="548" y="0" on="1"/>
      </contour>
      <contour>
        <pt x="1031" y="577" on="1"/>
        <pt x="1154" y="577" on="1"/>
        <pt x="1154" y="345" on="1"/>
        <pt x="1418" y="345" on="1"/>
        <pt x="1418" y="577" on="1"/>
        <pt x="1541" y="577" on="1"/>
        <pt x="1541" y="0" on="1"/>
        <pt x="1418" y="0" on="1"/>
        <pt x="1418" y="246" on="1"/>
        <pt x="1154" y="246" on="1"/>
        <pt x="1154" y="0" on="1"/>
        <pt x="1031" y="0" on="1"/>
      </contour>
    </TTGlyph>
    <TTGlyph name="F_F_I.sc" xMin="65" yMin="0" xMax="1154" yMax="577">
      <contour>
        <pt x="65" y="577" on="1"/>
        <pt x="465" y="577" on="1"/>
        <pt x="465" y="478" on="1"/>
        <pt x="188" y="478" on="1"/>
        <pt x="188" y="326" on="1"/>
        <pt x="439" y="326" on="1"/>
        <pt x="439" y="229" on="1"/>
        <pt x="188" y="229" on="1"/>
        <pt x="188" y="0" on="1"/>
        <pt x="65" y="0" on="1"/>
      </contour>
      <contour>
        <pt x="548" y="577" on="1"/>
        <pt x="948" y="577" on="1"/>
        <pt x="948" y="478" on="1"/>
        <pt x="671" y="478" on="1"/>
        <pt x="671" y="326" on="1"/>
        <pt x="922" y="326" on="1"/>
        <pt x="922" y="229" on="1"/>
        <pt x="671" y="229" on="1"/>
        <pt x="671" y="0" on="1"/>
        <pt x="548" y="0" on="1"/>
      </contour>
      <contour>
        <pt x="1031" y="577" on="1"/>
        <pt x="1154" y="577" on="1"/>
        <pt x="1154" y="0" on="1"/>
        <pt x="1031" y="0" on="1"/>
      </contour>
    </TTGlyph>
    <TTGlyph name="F_F_J.sc" xMin="65" yMin="-159" xMax="1165" yMax="577">
      <contour>
        <pt x="65" y="577" on="1"/>
        <pt x="465" y="577" on="1"/>
        <pt x="465" y="478" on="1"/>
        <pt x="188" y="478" on="1"/>
        <pt x="188" y="326" on="1"/>
        <pt x="439" y="326" on="1"/>
        <pt x="439" y="229" on="1"/>
        <pt x="188" y="229" on="1"/>
        <pt x="188" y="0" on="1"/>
        <pt x="65" y="0" on="1"/>
      </contour>
      <contour>
        <pt x="548" y="577" on="1"/>
        <pt x="948" y="577" on="1"/>
        <pt x="948" y="478" on="1"/>
        <pt x="671" y="478" on="1"/>
        <pt x="671" y="326" on="1"/>
        <pt x="922" y="326" on="1"/>
        <pt x="922" y="229" on="1"/>
        <pt x="671" y="229" on="1"/>
        <pt x="671" y="0" on="1"/>
        <pt x="548" y="0" on="1"/>
      </contour>
      <contour>
        <pt x="974" y="-124" on="1"/>
        <pt x="994" y="-85" on="0"/>
        <pt x="1021" y="-19" on="0"/>
        <pt x="1036" y="44" on="0"/>
        <pt x="1042" y="110" on="0"/>
        <pt x="1042" y="151" on="1"/>
        <pt x="1042" y="577" on="1"/>
        <pt x="1165" y="577" on="1"/>
        <pt x="1165" y="141" on="1"/>
        <pt x="1165" y="101" on="0"/>
        <pt x="1153" y="30" on="0"/>
        <pt x="1127" y="-42" on="0"/>
        <pt x="1084" y="-116" on="0"/>
        <pt x="1053" y="-159" on="1"/>
      </contour>
    </TTGlyph>
    <TTGlyph name="F_F_K.sc" xMin="65" yMin="0" xMax="1542" yMax="577">
      <contour>
        <pt x="65" y="577" on="1"/>
        <pt x="465" y="577" on="1"/>
        <pt x="465" y="478" on="1"/>
        <pt x="188" y="478" on="1"/>
        <pt x="188" y="326" on="1"/>
        <pt x="439" y="326" on="1"/>
        <pt x="439" y="229" on="1"/>
        <pt x="188" y="229" on="1"/>
        <pt x="188" y="0" on="1"/>
        <pt x="65" y="0" on="1"/>
      </contour>
      <contour>
        <pt x="548" y="577" on="1"/>
        <pt x="948" y="577" on="1"/>
        <pt x="948" y="478" on="1"/>
        <pt x="671" y="478" on="1"/>
        <pt x="671" y="326" on="1"/>
        <pt x="922" y="326" on="1"/>
        <pt x="922" y="229" on="1"/>
        <pt x="671" y="229" on="1"/>
        <pt x="671" y="0" on="1"/>
        <pt x="548" y="0" on="1"/>
      </contour>
      <contour>
        <pt x="1031" y="577" on="1"/>
        <pt x="1154" y="577" on="1"/>
        <pt x="1154" y="343" on="1"/>
        <pt x="1235" y="343" on="1"/>
        <pt x="1388" y="577" on="1"/>
        <pt x="1525" y="577" on="1"/>
        <pt x="1355" y="320" on="1"/>
        <pt x="1309" y="299" on="1"/>
        <pt x="1309" y="294" on="1"/>
        <pt x="1356" y="273" on="1"/>
        <pt x="1542" y="0" on="1"/>
        <pt x="1405" y="0" on="1"/>
        <pt x="1237" y="244" on="1"/>
        <pt x="1154" y="244" on="1"/>
        <pt x="1154" y="0" on="1"/>
        <pt x="1031" y="0" on="1"/>
      </contour>
    </TTGlyph>
    <TTGlyph name="F_F_L.sc" xMin="65" yMin="0" xMax="1393" yMax="577">
      <contour>
        <pt x="1031" y="577" on="1"/>
        <pt x="1154" y="577" on="1"/>
        <pt x="1154" y="100" on="1"/>
        <pt x="1393" y="100" on="1"/>
        <pt x="1393" y="0" on="1"/>
        <pt x="1031" y="0" on="1"/>
      </contour>
      <contour>
        <pt x="65" y="577" on="1"/>
        <pt x="465" y="577" on="1"/>
        <pt x="465" y="478" on="1"/>
        <pt x="188" y="478" on="1"/>
        <pt x="188" y="326" on="1"/>
        <pt x="439" y="326" on="1"/>
        <pt x="439" y="229" on="1"/>
        <pt x="188" y="229" on="1"/>
        <pt x="188" y="0" on="1"/>
        <pt x="65" y="0" on="1"/>
      </contour>
      <contour>
        <pt x="548" y="577" on="1"/>
        <pt x="948" y="577" on="1"/>
        <pt x="948" y="478" on="1"/>
        <pt x="671" y="478" on="1"/>
        <pt x="671" y="326" on="1"/>
        <pt x="922" y="326" on="1"/>
        <pt x="922" y="229" on="1"/>
        <pt x="671" y="229" on="1"/>
        <pt x="671" y="0" on="1"/>
        <pt x="548" y="0" on="1"/>
      </contour>
    </TTGlyph>
    <TTGlyph name="F_F_T.sc" xMin="65" yMin="0" xMax="1427" yMax="577">
      <contour>
        <pt x="1135" y="476" on="1"/>
        <pt x="964" y="476" on="1"/>
        <pt x="964" y="577" on="1"/>
        <pt x="1427" y="577" on="1"/>
        <pt x="1427" y="476" on="1"/>
        <pt x="1256" y="476" on="1"/>
        <pt x="1256" y="0" on="1"/>
        <pt x="1135" y="0" on="1"/>
      </contour>
      <contour>
        <pt x="65" y="577" on="1"/>
        <pt x="465" y="577" on="1"/>
        <pt x="465" y="478" on="1"/>
        <pt x="188" y="478" on="1"/>
        <pt x="188" y="326" on="1"/>
        <pt x="439" y="326" on="1"/>
        <pt x="439" y="229" on="1"/>
        <pt x="188" y="229" on="1"/>
        <pt x="188" y="0" on="1"/>
        <pt x="65" y="0" on="1"/>
      </contour>
      <contour>
        <pt x="548" y="577" on="1"/>
        <pt x="948" y="577" on="1"/>
        <pt x="948" y="478" on="1"/>
        <pt x="671" y="478" on="1"/>
        <pt x="671" y="326" on="1"/>
        <pt x="922" y="326" on="1"/>
        <pt x="922" y="229" on="1"/>
        <pt x="671" y="229" on="1"/>
        <pt x="671" y="0" on="1"/>
        <pt x="548" y="0" on="1"/>
      </contour>
    </TTGlyph>
    <TTGlyph name="F_H.sc" xMin="65" yMin="0" xMax="1058" yMax="577">
      <contour>
        <pt x="65" y="577" on="1"/>
        <pt x="465" y="577" on="1"/>
        <pt x="465" y="478" on="1"/>
        <pt x="188" y="478" on="1"/>
        <pt x="188" y="326" on="1"/>
        <pt x="439" y="326" on="1"/>
        <pt x="439" y="229" on="1"/>
        <pt x="188" y="229" on="1"/>
        <pt x="188" y="0" on="1"/>
        <pt x="65" y="0" on="1"/>
      </contour>
      <contour>
        <pt x="548" y="577" on="1"/>
        <pt x="671" y="577" on="1"/>
        <pt x="671" y="345" on="1"/>
        <pt x="935" y="345" on="1"/>
        <pt x="935" y="577" on="1"/>
        <pt x="1058" y="577" on="1"/>
        <pt x="1058" y="0" on="1"/>
        <pt x="935" y="0" on="1"/>
        <pt x="935" y="246" on="1"/>
        <pt x="671" y="246" on="1"/>
        <pt x="671" y="0" on="1"/>
        <pt x="548" y="0" on="1"/>
      </contour>
    </TTGlyph>
    <TTGlyph name="F_I.sc" xMin="65" yMin="0" xMax="671" yMax="577">
      <contour>
        <pt x="65" y="577" on="1"/>
        <pt x="465" y="577" on="1"/>
        <pt x="465" y="478" on="1"/>
        <pt x="188" y="478" on="1"/>
        <pt x="188" y="326" on="1"/>
        <pt x="439" y="326" on="1"/>
        <pt x="439" y="229" on="1"/>
        <pt x="188" y="229" on="1"/>
        <pt x="188" y="0" on="1"/>
        <pt x="65" y="0" on="1"/>
      </contour>
      <contour>
        <pt x="548" y="577" on="1"/>
        <pt x="671" y="577" on="1"/>
        <pt x="671" y="0" on="1"/>
        <pt x="548" y="0" on="1"/>
      </contour>
    </TTGlyph>
    <TTGlyph name="F_J.sc" xMin="65" yMin="-159" xMax="682" yMax="577">
      <contour>
        <pt x="65" y="577" on="1"/>
        <pt x="465" y="577" on="1"/>
        <pt x="465" y="478" on="1"/>
        <pt x="188" y="478" on="1"/>
        <pt x="188" y="326" on="1"/>
        <pt x="439" y="326" on="1"/>
        <pt x="439" y="229" on="1"/>
        <pt x="188" y="229" on="1"/>
        <pt x="188" y="0" on="1"/>
        <pt x="65" y="0" on="1"/>
      </contour>
      <contour>
        <pt x="491" y="-124" on="1"/>
        <pt x="511" y="-85" on="0"/>
        <pt x="538" y="-19" on="0"/>
        <pt x="553" y="44" on="0"/>
        <pt x="559" y="110" on="0"/>
        <pt x="559" y="151" on="1"/>
        <pt x="559" y="577" on="1"/>
        <pt x="682" y="577" on="1"/>
        <pt x="682" y="141" on="1"/>
        <pt x="682" y="101" on="0"/>
        <pt x="670" y="30" on="0"/>
        <pt x="644" y="-42" on="0"/>
        <pt x="601" y="-116" on="0"/>
        <pt x="570" y="-159" on="1"/>
      </contour>
    </TTGlyph>
    <TTGlyph name="F_K.sc" xMin="65" yMin="0" xMax="1059" yMax="577">
      <contour>
        <pt x="65" y="577" on="1"/>
        <pt x="465" y="577" on="1"/>
        <pt x="465" y="478" on="1"/>
        <pt x="188" y="478" on="1"/>
        <pt x="188" y="326" on="1"/>
        <pt x="439" y="326" on="1"/>
        <pt x="439" y="229" on="1"/>
        <pt x="188" y="229" on="1"/>
        <pt x="188" y="0" on="1"/>
        <pt x="65" y="0" on="1"/>
      </contour>
      <contour>
        <pt x="548" y="577" on="1"/>
        <pt x="671" y="577" on="1"/>
        <pt x="671" y="343" on="1"/>
        <pt x="752" y="343" on="1"/>
        <pt x="905" y="577" on="1"/>
        <pt x="1042" y="577" on="1"/>
        <pt x="872" y="320" on="1"/>
        <pt x="826" y="299" on="1"/>
        <pt x="826" y="294" on="1"/>
        <pt x="873" y="273" on="1"/>
        <pt x="1059" y="0" on="1"/>
        <pt x="922" y="0" on="1"/>
        <pt x="754" y="244" on="1"/>
        <pt x="671" y="244" on="1"/>
        <pt x="671" y="0" on="1"/>
        <pt x="548" y="0" on="1"/>
      </contour>
    </TTGlyph>
    <TTGlyph name="F_L.sc" xMin="65" yMin="0" xMax="910" yMax="577">
      <contour>
        <pt x="548" y="577" on="1"/>
        <pt x="671" y="577" on="1"/>
        <pt x="671" y="100" on="1"/>
        <pt x="910" y="100" on="1"/>
        <pt x="910" y="0" on="1"/>
        <pt x="548" y="0" on="1"/>
      </contour>
      <contour>
        <pt x="65" y="577" on="1"/>
        <pt x="465" y="577" on="1"/>
        <pt x="465" y="478" on="1"/>
        <pt x="188" y="478" on="1"/>
        <pt x="188" y="326" on="1"/>
        <pt x="439" y="326" on="1"/>
        <pt x="439" y="229" on="1"/>
        <pt x="188" y="229" on="1"/>
        <pt x="188" y="0" on="1"/>
        <pt x="65" y="0" on="1"/>
      </contour>
    </TTGlyph>
    <TTGlyph name="F_T.sc" xMin="65" yMin="0" xMax="944" yMax="577">
      <contour>
        <pt x="652" y="476" on="1"/>
        <pt x="481" y="476" on="1"/>
        <pt x="481" y="577" on="1"/>
        <pt x="944" y="577" on="1"/>
        <pt x="944" y="476" on="1"/>
        <pt x="773" y="476" on="1"/>
        <pt x="773" y="0" on="1"/>
        <pt x="652" y="0" on="1"/>
      </contour>
      <contour>
        <pt x="65" y="577" on="1"/>
        <pt x="465" y="577" on="1"/>
        <pt x="465" y="478" on="1"/>
        <pt x="188" y="478" on="1"/>
        <pt x="188" y="326" on="1"/>
        <pt x="439" y="326" on="1"/>
        <pt x="439" y="229" on="1"/>
        <pt x="188" y="229" on="1"/>
        <pt x="188" y="0" on="1"/>
        <pt x="65" y="0" on="1"/>
      </contour>
    </TTGlyph>
    <TTGlyph name="G" xMin="38" yMin="-10" xMax="560" yMax="749">
      <contour>
        <pt x="362" y="-10" on="1"/>
        <pt x="196" y="-9" on="0"/>
        <pt x="38" y="176" on="0"/>
        <pt x="38" y="369" on="1"/>
        <pt x="38" y="564" on="0"/>
        <pt x="207" y="749" on="0"/>
        <pt x="384" y="749" on="1"/>
        <pt x="422" y="749" on="0"/>
        <pt x="511" y="739" on="0"/>
        <pt x="553" y="729" on="1"/>
        <pt x="553" y="624" on="1"/>
        <pt x="504" y="634" on="0"/>
        <pt x="428" y="642" on="0"/>
        <pt x="396" y="642" on="1"/>
        <pt x="333" y="642" on="0"/>
        <pt x="247" y="613" on="0"/>
        <pt x="194" y="549" on="0"/>
        <pt x="171" y="444" on="0"/>
        <pt x="171" y="369" on="1"/>
        <pt x="171" y="294" on="0"/>
        <pt x="192" y="191" on="0"/>
        <pt x="240" y="127" on="0"/>
        <pt x="317" y="98" on="0"/>
        <pt x="373" y="98" on="1"/>
        <pt x="388" y="98" on="0"/>
        <pt x="424" y="100" on="0"/>
        <pt x="443" y="102" on="1"/>
        <pt x="443" y="376" on="1"/>
        <pt x="560" y="376" on="1"/>
        <pt x="560" y="12" on="1"/>
        <pt x="444" y="-10" on="0"/>
      </contour>
    </TTGlyph>
    <TTGlyph name="G.sc" xMin="38" yMin="-8" xMax="508" yMax="585">
      <contour>
        <pt x="327" y="-8" on="1"/>
        <pt x="179" y="-7" on="0"/>
        <pt x="38" y="137" on="0"/>
        <pt x="38" y="288" on="1"/>
        <pt x="38" y="439" on="0"/>
        <pt x="190" y="585" on="0"/>
        <pt x="348" y="585" on="1"/>
        <pt x="382" y="585" on="0"/>
        <pt x="464" y="576" on="0"/>
        <pt x="502" y="568" on="1"/>
        <pt x="502" y="471" on="1"/>
        <pt x="456" y="478" on="0"/>
        <pt x="387" y="485" on="0"/>
        <pt x="359" y="485" on="1"/>
        <pt x="304" y="485" on="0"/>
        <pt x="229" y="464" on="0"/>
        <pt x="184" y="418" on="0"/>
        <pt x="164" y="343" on="0"/>
        <pt x="164" y="288" on="1"/>
        <pt x="164" y="233" on="0"/>
        <pt x="182" y="159" on="0"/>
        <pt x="223" y="113" on="0"/>
        <pt x="289" y="93" on="0"/>
        <pt x="338" y="93" on="1"/>
        <pt x="341" y="93" on="0"/>
        <pt x="356" y="93" on="0"/>
        <pt x="374" y="94" on="0"/>
        <pt x="391" y="96" on="0"/>
        <pt x="397" y="97" on="1"/>
        <pt x="397" y="293" on="1"/>
        <pt x="508" y="293" on="1"/>
        <pt x="508" y="11" on="1"/>
        <pt x="454" y="2" on="0"/>
        <pt x="365" y="-8" on="0"/>
      </contour>
    </TTGlyph>
    <TTGlyph name="Gacute" xMin="38" yMin="-10" xMax="560" yMax="958">
      <contour>
        <pt x="291" y="799" on="1"/>
        <pt x="361" y="958" on="1"/>
        <pt x="491" y="958" on="1"/>
        <pt x="384" y="792" on="1"/>
      </contour>
      <contour>
        <pt x="362" y="-10" on="1"/>
        <pt x="196" y="-9" on="0"/>
        <pt x="38" y="176" on="0"/>
        <pt x="38" y="369" on="1"/>
        <pt x="38" y="564" on="0"/>
        <pt x="207" y="749" on="0"/>
        <pt x="384" y="749" on="1"/>
        <pt x="422" y="749" on="0"/>
        <pt x="511" y="739" on="0"/>
        <pt x="553" y="729" on="1"/>
        <pt x="553" y="624" on="1"/>
        <pt x="504" y="634" on="0"/>
        <pt x="428" y="642" on="0"/>
        <pt x="396" y="642" on="1"/>
        <pt x="333" y="642" on="0"/>
        <pt x="247" y="613" on="0"/>
        <pt x="194" y="549" on="0"/>
        <pt x="171" y="444" on="0"/>
        <pt x="171" y="369" on="1"/>
        <pt x="171" y="294" on="0"/>
        <pt x="192" y="191" on="0"/>
        <pt x="240" y="127" on="0"/>
        <pt x="317" y="98" on="0"/>
        <pt x="373" y="98" on="1"/>
        <pt x="388" y="98" on="0"/>
        <pt x="424" y="100" on="0"/>
        <pt x="443" y="102" on="1"/>
        <pt x="443" y="376" on="1"/>
        <pt x="560" y="376" on="1"/>
        <pt x="560" y="12" on="1"/>
        <pt x="444" y="-10" on="0"/>
      </contour>
    </TTGlyph>
    <TTGlyph name="Gacute.sc" xMin="38" yMin="-8" xMax="508" yMax="758">
      <contour>
        <pt x="327" y="-8" on="1"/>
        <pt x="179" y="-7" on="0"/>
        <pt x="38" y="137" on="0"/>
        <pt x="38" y="288" on="1"/>
        <pt x="38" y="439" on="0"/>
        <pt x="190" y="585" on="0"/>
        <pt x="348" y="585" on="1"/>
        <pt x="382" y="585" on="0"/>
        <pt x="464" y="576" on="0"/>
        <pt x="502" y="568" on="1"/>
        <pt x="502" y="470" on="1"/>
        <pt x="456" y="478" on="0"/>
        <pt x="387" y="485" on="0"/>
        <pt x="359" y="485" on="1"/>
        <pt x="304" y="485" on="0"/>
        <pt x="230" y="465" on="0"/>
        <pt x="184" y="418" on="0"/>
        <pt x="164" y="343" on="0"/>
        <pt x="164" y="288" on="1"/>
        <pt x="164" y="233" on="0"/>
        <pt x="182" y="158" on="0"/>
        <pt x="223" y="113" on="0"/>
        <pt x="290" y="93" on="0"/>
        <pt x="338" y="93" on="1"/>
        <pt x="341" y="93" on="0"/>
        <pt x="356" y="93" on="0"/>
        <pt x="374" y="94" on="0"/>
        <pt x="391" y="96" on="0"/>
        <pt x="397" y="97" on="1"/>
        <pt x="397" y="293" on="1"/>
        <pt x="508" y="293" on="1"/>
        <pt x="508" y="11" on="1"/>
        <pt x="455" y="2" on="0"/>
        <pt x="365" y="-8" on="0"/>
      </contour>
      <contour>
        <pt x="261" y="626" on="1"/>
        <pt x="321" y="758" on="1"/>
        <pt x="444" y="758" on="1"/>
        <pt x="348" y="619" on="1"/>
      </contour>
    </TTGlyph>
    <TTGlyph name="Gbreve" xMin="38" yMin="-10" xMax="560" yMax="967">
      <contour>
        <pt x="347" y="804" on="1"/>
        <pt x="257" y="804" on="0"/>
        <pt x="169" y="892" on="0"/>
        <pt x="169" y="967" on="1"/>
        <pt x="257" y="967" on="1"/>
        <pt x="257" y="917" on="0"/>
        <pt x="299" y="870" on="0"/>
        <pt x="347" y="870" on="1"/>
        <pt x="393" y="870" on="0"/>
        <pt x="435" y="917" on="0"/>
        <pt x="435" y="967" on="1"/>
        <pt x="524" y="967" on="1"/>
        <pt x="524" y="892" on="0"/>
        <pt x="435" y="804" on="0"/>
      </contour>
      <contour>
        <pt x="362" y="-10" on="1"/>
        <pt x="196" y="-9" on="0"/>
        <pt x="38" y="176" on="0"/>
        <pt x="38" y="369" on="1"/>
        <pt x="38" y="564" on="0"/>
        <pt x="207" y="749" on="0"/>
        <pt x="384" y="749" on="1"/>
        <pt x="422" y="749" on="0"/>
        <pt x="511" y="739" on="0"/>
        <pt x="553" y="729" on="1"/>
        <pt x="553" y="624" on="1"/>
        <pt x="504" y="634" on="0"/>
        <pt x="428" y="642" on="0"/>
        <pt x="396" y="642" on="1"/>
        <pt x="333" y="642" on="0"/>
        <pt x="247" y="613" on="0"/>
        <pt x="194" y="549" on="0"/>
        <pt x="171" y="444" on="0"/>
        <pt x="171" y="369" on="1"/>
        <pt x="171" y="294" on="0"/>
        <pt x="192" y="191" on="0"/>
        <pt x="240" y="127" on="0"/>
        <pt x="317" y="98" on="0"/>
        <pt x="373" y="98" on="1"/>
        <pt x="388" y="98" on="0"/>
        <pt x="424" y="100" on="0"/>
        <pt x="443" y="102" on="1"/>
        <pt x="443" y="376" on="1"/>
        <pt x="560" y="376" on="1"/>
        <pt x="560" y="12" on="1"/>
        <pt x="444" y="-10" on="0"/>
      </contour>
    </TTGlyph>
    <TTGlyph name="Gbreve.sc" xMin="38" yMin="-8" xMax="508" yMax="760">
      <contour>
        <pt x="327" y="-8" on="1"/>
        <pt x="179" y="-7" on="0"/>
        <pt x="38" y="137" on="0"/>
        <pt x="38" y="288" on="1"/>
        <pt x="38" y="439" on="0"/>
        <pt x="190" y="585" on="0"/>
        <pt x="348" y="585" on="1"/>
        <pt x="382" y="585" on="0"/>
        <pt x="464" y="576" on="0"/>
        <pt x="502" y="568" on="1"/>
        <pt x="502" y="470" on="1"/>
        <pt x="456" y="478" on="0"/>
        <pt x="387" y="485" on="0"/>
        <pt x="359" y="485" on="1"/>
        <pt x="304" y="485" on="0"/>
        <pt x="230" y="465" on="0"/>
        <pt x="184" y="418" on="0"/>
        <pt x="164" y="343" on="0"/>
        <pt x="164" y="288" on="1"/>
        <pt x="164" y="233" on="0"/>
        <pt x="182" y="158" on="0"/>
        <pt x="223" y="113" on="0"/>
        <pt x="290" y="93" on="0"/>
        <pt x="338" y="93" on="1"/>
        <pt x="341" y="93" on="0"/>
        <pt x="356" y="93" on="0"/>
        <pt x="374" y="94" on="0"/>
        <pt x="391" y="96" on="0"/>
        <pt x="397" y="97" on="1"/>
        <pt x="397" y="293" on="1"/>
        <pt x="508" y="293" on="1"/>
        <pt x="508" y="11" on="1"/>
        <pt x="455" y="2" on="0"/>
        <pt x="365" y="-8" on="0"/>
      </contour>
      <contour>
        <pt x="313" y="625" on="1"/>
        <pt x="231" y="625" on="0"/>
        <pt x="152" y="699" on="0"/>
        <pt x="152" y="760" on="1"/>
        <pt x="235" y="760" on="1"/>
        <pt x="235" y="720" on="0"/>
        <pt x="271" y="684" on="0"/>
        <pt x="313" y="684" on="1"/>
        <pt x="355" y="684" on="0"/>
        <pt x="391" y="720" on="0"/>
        <pt x="391" y="760" on="1"/>
        <pt x="475" y="760" on="1"/>
        <pt x="475" y="699" on="0"/>
        <pt x="395" y="625" on="0"/>
      </contour>
    </TTGlyph>
    <TTGlyph name="Gcircumflex" xMin="38" yMin="-10" xMax="560" yMax="966">
      <contour>
        <pt x="362" y="-10" on="1"/>
        <pt x="196" y="-9" on="0"/>
        <pt x="38" y="176" on="0"/>
        <pt x="38" y="369" on="1"/>
        <pt x="38" y="564" on="0"/>
        <pt x="207" y="749" on="0"/>
        <pt x="384" y="749" on="1"/>
        <pt x="422" y="749" on="0"/>
        <pt x="511" y="739" on="0"/>
        <pt x="553" y="729" on="1"/>
        <pt x="553" y="624" on="1"/>
        <pt x="504" y="634" on="0"/>
        <pt x="428" y="642" on="0"/>
        <pt x="396" y="642" on="1"/>
        <pt x="333" y="642" on="0"/>
        <pt x="247" y="613" on="0"/>
        <pt x="194" y="549" on="0"/>
        <pt x="171" y="444" on="0"/>
        <pt x="171" y="369" on="1"/>
        <pt x="171" y="294" on="0"/>
        <pt x="192" y="191" on="0"/>
        <pt x="240" y="127" on="0"/>
        <pt x="317" y="98" on="0"/>
        <pt x="373" y="98" on="1"/>
        <pt x="388" y="98" on="0"/>
        <pt x="424" y="100" on="0"/>
        <pt x="443" y="102" on="1"/>
        <pt x="443" y="376" on="1"/>
        <pt x="560" y="376" on="1"/>
        <pt x="560" y="12" on="1"/>
        <pt x="444" y="-10" on="0"/>
      </contour>
      <contour>
        <pt x="183" y="893" on="1"/>
        <pt x="344" y="966" on="1"/>
        <pt x="505" y="893" on="1"/>
        <pt x="505" y="802" on="1"/>
        <pt x="344" y="875" on="1"/>
        <pt x="183" y="802" on="1"/>
      </contour>
    </TTGlyph>
    <TTGlyph name="Gcircumflex.sc" xMin="38" yMin="-8" xMax="508" yMax="762">
      <contour>
        <pt x="327" y="-8" on="1"/>
        <pt x="179" y="-7" on="0"/>
        <pt x="38" y="137" on="0"/>
        <pt x="38" y="288" on="1"/>
        <pt x="38" y="439" on="0"/>
        <pt x="190" y="585" on="0"/>
        <pt x="348" y="585" on="1"/>
        <pt x="382" y="585" on="0"/>
        <pt x="464" y="576" on="0"/>
        <pt x="502" y="568" on="1"/>
        <pt x="502" y="470" on="1"/>
        <pt x="456" y="478" on="0"/>
        <pt x="387" y="485" on="0"/>
        <pt x="359" y="485" on="1"/>
        <pt x="304" y="485" on="0"/>
        <pt x="230" y="465" on="0"/>
        <pt x="184" y="418" on="0"/>
        <pt x="164" y="343" on="0"/>
        <pt x="164" y="288" on="1"/>
        <pt x="164" y="233" on="0"/>
        <pt x="182" y="158" on="0"/>
        <pt x="223" y="113" on="0"/>
        <pt x="290" y="93" on="0"/>
        <pt x="338" y="93" on="1"/>
        <pt x="341" y="93" on="0"/>
        <pt x="356" y="93" on="0"/>
        <pt x="374" y="94" on="0"/>
        <pt x="391" y="96" on="0"/>
        <pt x="397" y="97" on="1"/>
        <pt x="397" y="293" on="1"/>
        <pt x="508" y="293" on="1"/>
        <pt x="508" y="11" on="1"/>
        <pt x="455" y="2" on="0"/>
        <pt x="365" y="-8" on="0"/>
      </contour>
      <contour>
        <pt x="163" y="704" on="1"/>
        <pt x="310" y="762" on="1"/>
        <pt x="456" y="704" on="1"/>
        <pt x="456" y="622" on="1"/>
        <pt x="310" y="680" on="1"/>
        <pt x="163" y="622" on="1"/>
      </contour>
    </TTGlyph>
    <TTGlyph name="Gcommaaccent" xMin="38" yMin="-220" xMax="560" yMax="749">
      <contour>
        <pt x="290" y="-69" on="1"/>
        <pt x="419" y="-69" on="1"/>
        <pt x="342" y="-220" on="1"/>
        <pt x="245" y="-220" on="1"/>
      </contour>
      <contour>
        <pt x="362" y="-10" on="1"/>
        <pt x="196" y="-9" on="0"/>
        <pt x="38" y="176" on="0"/>
        <pt x="38" y="369" on="1"/>
        <pt x="38" y="564" on="0"/>
        <pt x="207" y="749" on="0"/>
        <pt x="384" y="749" on="1"/>
        <pt x="422" y="749" on="0"/>
        <pt x="511" y="739" on="0"/>
        <pt x="553" y="729" on="1"/>
        <pt x="553" y="624" on="1"/>
        <pt x="504" y="634" on="0"/>
        <pt x="428" y="642" on="0"/>
        <pt x="396" y="642" on="1"/>
        <pt x="333" y="642" on="0"/>
        <pt x="247" y="613" on="0"/>
        <pt x="194" y="549" on="0"/>
        <pt x="171" y="444" on="0"/>
        <pt x="171" y="369" on="1"/>
        <pt x="171" y="294" on="0"/>
        <pt x="192" y="191" on="0"/>
        <pt x="240" y="127" on="0"/>
        <pt x="317" y="98" on="0"/>
        <pt x="373" y="98" on="1"/>
        <pt x="388" y="98" on="0"/>
        <pt x="424" y="100" on="0"/>
        <pt x="443" y="102" on="1"/>
        <pt x="443" y="376" on="1"/>
        <pt x="560" y="376" on="1"/>
        <pt x="560" y="12" on="1"/>
        <pt x="444" y="-10" on="0"/>
      </contour>
    </TTGlyph>
    <TTGlyph name="Gcommaaccent.sc" xMin="38" yMin="-172" xMax="508" yMax="585">
      <contour>
        <pt x="327" y="-8" on="1"/>
        <pt x="179" y="-7" on="0"/>
        <pt x="38" y="137" on="0"/>
        <pt x="38" y="288" on="1"/>
        <pt x="38" y="439" on="0"/>
        <pt x="190" y="585" on="0"/>
        <pt x="348" y="585" on="1"/>
        <pt x="382" y="585" on="0"/>
        <pt x="464" y="576" on="0"/>
        <pt x="502" y="568" on="1"/>
        <pt x="502" y="470" on="1"/>
        <pt x="456" y="478" on="0"/>
        <pt x="387" y="485" on="0"/>
        <pt x="359" y="485" on="1"/>
        <pt x="304" y="485" on="0"/>
        <pt x="230" y="465" on="0"/>
        <pt x="184" y="418" on="0"/>
        <pt x="164" y="343" on="0"/>
        <pt x="164" y="288" on="1"/>
        <pt x="164" y="233" on="0"/>
        <pt x="182" y="158" on="0"/>
        <pt x="223" y="113" on="0"/>
        <pt x="290" y="93" on="0"/>
        <pt x="338" y="93" on="1"/>
        <pt x="341" y="93" on="0"/>
        <pt x="356" y="93" on="0"/>
        <pt x="374" y="94" on="0"/>
        <pt x="391" y="96" on="0"/>
        <pt x="397" y="97" on="1"/>
        <pt x="397" y="293" on="1"/>
        <pt x="508" y="293" on="1"/>
        <pt x="508" y="11" on="1"/>
        <pt x="455" y="2" on="0"/>
        <pt x="365" y="-8" on="0"/>
      </contour>
      <contour>
        <pt x="258" y="-54" on="1"/>
        <pt x="381" y="-54" on="1"/>
        <pt x="311" y="-172" on="1"/>
        <pt x="219" y="-172" on="1"/>
      </contour>
    </TTGlyph>
    <TTGlyph name="Gdotaccent" xMin="38" yMin="-10" xMax="560" yMax="944">
      <contour>
        <pt x="346" y="801" on="1"/>
        <pt x="273" y="801" on="0"/>
        <pt x="273" y="872" on="1"/>
        <pt x="273" y="910" on="0"/>
        <pt x="308" y="944" on="0"/>
        <pt x="346" y="944" on="1"/>
        <pt x="383" y="944" on="0"/>
        <pt x="419" y="910" on="0"/>
        <pt x="419" y="872" on="1"/>
        <pt x="419" y="801" on="0"/>
      </contour>
      <contour>
        <pt x="362" y="-10" on="1"/>
        <pt x="196" y="-9" on="0"/>
        <pt x="38" y="176" on="0"/>
        <pt x="38" y="369" on="1"/>
        <pt x="38" y="564" on="0"/>
        <pt x="207" y="749" on="0"/>
        <pt x="384" y="749" on="1"/>
        <pt x="422" y="749" on="0"/>
        <pt x="511" y="739" on="0"/>
        <pt x="553" y="729" on="1"/>
        <pt x="553" y="624" on="1"/>
        <pt x="504" y="634" on="0"/>
        <pt x="428" y="642" on="0"/>
        <pt x="396" y="642" on="1"/>
        <pt x="333" y="642" on="0"/>
        <pt x="247" y="613" on="0"/>
        <pt x="194" y="549" on="0"/>
        <pt x="171" y="444" on="0"/>
        <pt x="171" y="369" on="1"/>
        <pt x="171" y="294" on="0"/>
        <pt x="192" y="191" on="0"/>
        <pt x="240" y="127" on="0"/>
        <pt x="317" y="98" on="0"/>
        <pt x="373" y="98" on="1"/>
        <pt x="388" y="98" on="0"/>
        <pt x="424" y="100" on="0"/>
        <pt x="443" y="102" on="1"/>
        <pt x="443" y="376" on="1"/>
        <pt x="560" y="376" on="1"/>
        <pt x="560" y="12" on="1"/>
        <pt x="444" y="-10" on="0"/>
      </contour>
    </TTGlyph>
    <TTGlyph name="Gdotaccent.sc" xMin="38" yMin="-8" xMax="508" yMax="754">
      <contour>
        <pt x="327" y="-8" on="1"/>
        <pt x="179" y="-7" on="0"/>
        <pt x="38" y="137" on="0"/>
        <pt x="38" y="288" on="1"/>
        <pt x="38" y="439" on="0"/>
        <pt x="190" y="585" on="0"/>
        <pt x="348" y="585" on="1"/>
        <pt x="382" y="585" on="0"/>
        <pt x="464" y="576" on="0"/>
        <pt x="502" y="568" on="1"/>
        <pt x="502" y="470" on="1"/>
        <pt x="456" y="478" on="0"/>
        <pt x="387" y="485" on="0"/>
        <pt x="359" y="485" on="1"/>
        <pt x="304" y="485" on="0"/>
        <pt x="230" y="465" on="0"/>
        <pt x="184" y="418" on="0"/>
        <pt x="164" y="343" on="0"/>
        <pt x="164" y="288" on="1"/>
        <pt x="164" y="233" on="0"/>
        <pt x="182" y="158" on="0"/>
        <pt x="223" y="113" on="0"/>
        <pt x="290" y="93" on="0"/>
        <pt x="338" y="93" on="1"/>
        <pt x="341" y="93" on="0"/>
        <pt x="356" y="93" on="0"/>
        <pt x="374" y="94" on="0"/>
        <pt x="391" y="96" on="0"/>
        <pt x="397" y="97" on="1"/>
        <pt x="397" y="293" on="1"/>
        <pt x="508" y="293" on="1"/>
        <pt x="508" y="11" on="1"/>
        <pt x="455" y="2" on="0"/>
        <pt x="365" y="-8" on="0"/>
      </contour>
      <contour>
        <pt x="313" y="624" on="1"/>
        <pt x="278" y="624" on="0"/>
        <pt x="245" y="655" on="0"/>
        <pt x="245" y="690" on="1"/>
        <pt x="245" y="724" on="0"/>
        <pt x="278" y="754" on="0"/>
        <pt x="313" y="754" on="1"/>
        <pt x="348" y="754" on="0"/>
        <pt x="382" y="724" on="0"/>
        <pt x="382" y="690" on="1"/>
        <pt x="382" y="655" on="0"/>
        <pt x="348" y="624" on="0"/>
      </contour>
    </TTGlyph>
    <TTGlyph name="H" xMin="69" yMin="0" xMax="630" yMax="740">
      <contour>
        <pt x="69" y="740" on="1"/>
        <pt x="197" y="740" on="1"/>
        <pt x="197" y="432" on="1"/>
        <pt x="502" y="432" on="1"/>
        <pt x="502" y="740" on="1"/>
        <pt x="630" y="740" on="1"/>
        <pt x="630" y="0" on="1"/>
        <pt x="502" y="0" on="1"/>
        <pt x="502" y="325" on="1"/>
        <pt x="197" y="325" on="1"/>
        <pt x="197" y="0" on="1"/>
        <pt x="69" y="0" on="1"/>
      </contour>
    </TTGlyph>
    <TTGlyph name="H.sc" xMin="65" yMin="0" xMax="575" yMax="577">
      <contour>
        <pt x="65" y="577" on="1"/>
        <pt x="188" y="577" on="1"/>
        <pt x="188" y="345" on="1"/>
        <pt x="452" y="345" on="1"/>
        <pt x="452" y="577" on="1"/>
        <pt x="575" y="577" on="1"/>
        <pt x="575" y="0" on="1"/>
        <pt x="452" y="0" on="1"/>
        <pt x="452" y="246" on="1"/>
        <pt x="188" y="246" on="1"/>
        <pt x="188" y="0" on="1"/>
        <pt x="65" y="0" on="1"/>
      </contour>
    </TTGlyph>
    <TTGlyph name="Hbar" xMin="1" yMin="0" xMax="727" yMax="740">
      <contour>
        <pt x="1" y="605" on="1"/>
        <pt x="81" y="605" on="1"/>
        <pt x="81" y="740" on="1"/>
        <pt x="209" y="740" on="1"/>
        <pt x="209" y="605" on="1"/>
        <pt x="514" y="605" on="1"/>
        <pt x="514" y="740" on="1"/>
        <pt x="642" y="740" on="1"/>
        <pt x="642" y="605" on="1"/>
        <pt x="727" y="605" on="1"/>
        <pt x="727" y="542" on="1"/>
        <pt x="642" y="542" on="1"/>
        <pt x="642" y="0" on="1"/>
        <pt x="514" y="0" on="1"/>
        <pt x="514" y="325" on="1"/>
        <pt x="209" y="325" on="1"/>
        <pt x="209" y="0" on="1"/>
        <pt x="81" y="0" on="1"/>
        <pt x="81" y="542" on="1"/>
        <pt x="1" y="542" on="1"/>
      </contour>
      <contour>
        <pt x="514" y="432" on="1"/>
        <pt x="514" y="542" on="1"/>
        <pt x="209" y="542" on="1"/>
        <pt x="209" y="432" on="1"/>
      </contour>
    </TTGlyph>
    <TTGlyph name="Hbar.sc" xMin="7" yMin="0" xMax="657" yMax="577">
      <contour>
        <pt x="7" y="479" on="1"/>
        <pt x="76" y="479" on="1"/>
        <pt x="76" y="577" on="1"/>
        <pt x="198" y="577" on="1"/>
        <pt x="198" y="479" on="1"/>
        <pt x="462" y="479" on="1"/>
        <pt x="462" y="577" on="1"/>
        <pt x="584" y="577" on="1"/>
        <pt x="584" y="479" on="1"/>
        <pt x="657" y="479" on="1"/>
        <pt x="657" y="421" on="1"/>
        <pt x="584" y="421" on="1"/>
        <pt x="584" y="0" on="1"/>
        <pt x="462" y="0" on="1"/>
        <pt x="462" y="243" on="1"/>
        <pt x="198" y="243" on="1"/>
        <pt x="198" y="0" on="1"/>
        <pt x="76" y="0" on="1"/>
        <pt x="76" y="421" on="1"/>
        <pt x="7" y="421" on="1"/>
      </contour>
      <contour>
        <pt x="462" y="342" on="1"/>
        <pt x="462" y="421" on="1"/>
        <pt x="198" y="421" on="1"/>
        <pt x="198" y="342" on="1"/>
      </contour>
    </TTGlyph>
    <TTGlyph name="Hcircumflex" xMin="69" yMin="0" xMax="630" yMax="966">
      <contour>
        <pt x="69" y="740" on="1"/>
        <pt x="197" y="740" on="1"/>
        <pt x="197" y="432" on="1"/>
        <pt x="502" y="432" on="1"/>
        <pt x="502" y="740" on="1"/>
        <pt x="630" y="740" on="1"/>
        <pt x="630" y="0" on="1"/>
        <pt x="502" y="0" on="1"/>
        <pt x="502" y="325" on="1"/>
        <pt x="197" y="325" on="1"/>
        <pt x="197" y="0" on="1"/>
        <pt x="69" y="0" on="1"/>
      </contour>
      <contour>
        <pt x="184" y="893" on="1"/>
        <pt x="345" y="966" on="1"/>
        <pt x="506" y="893" on="1"/>
        <pt x="506" y="802" on="1"/>
        <pt x="345" y="875" on="1"/>
        <pt x="184" y="802" on="1"/>
      </contour>
    </TTGlyph>
    <TTGlyph name="Hcircumflex.sc" xMin="65" yMin="0" xMax="575" yMax="762">
      <contour>
        <pt x="65" y="577" on="1"/>
        <pt x="188" y="577" on="1"/>
        <pt x="188" y="345" on="1"/>
        <pt x="452" y="345" on="1"/>
        <pt x="452" y="577" on="1"/>
        <pt x="575" y="577" on="1"/>
        <pt x="575" y="0" on="1"/>
        <pt x="452" y="0" on="1"/>
        <pt x="452" y="246" on="1"/>
        <pt x="188" y="246" on="1"/>
        <pt x="188" y="0" on="1"/>
        <pt x="65" y="0" on="1"/>
      </contour>
      <contour>
        <pt x="170" y="704" on="1"/>
        <pt x="316" y="762" on="1"/>
        <pt x="463" y="704" on="1"/>
        <pt x="463" y="622" on="1"/>
        <pt x="317" y="680" on="1"/>
        <pt x="170" y="622" on="1"/>
      </contour>
    </TTGlyph>
    <TTGlyph name="Hdotbelow" xMin="69" yMin="-194" xMax="630" yMax="740">
      <contour>
        <pt x="69" y="740" on="1"/>
        <pt x="197" y="740" on="1"/>
        <pt x="197" y="432" on="1"/>
        <pt x="502" y="432" on="1"/>
        <pt x="502" y="740" on="1"/>
        <pt x="630" y="740" on="1"/>
        <pt x="630" y="0" on="1"/>
        <pt x="502" y="0" on="1"/>
        <pt x="502" y="325" on="1"/>
        <pt x="197" y="325" on="1"/>
        <pt x="197" y="0" on="1"/>
        <pt x="69" y="0" on="1"/>
      </contour>
      <contour>
        <pt x="353" y="-194" on="1"/>
        <pt x="321" y="-194" on="0"/>
        <pt x="292" y="-166" on="0"/>
        <pt x="292" y="-134" on="1"/>
        <pt x="292" y="-102" on="0"/>
        <pt x="321" y="-75" on="0"/>
        <pt x="353" y="-75" on="1"/>
        <pt x="385" y="-75" on="0"/>
        <pt x="414" y="-102" on="0"/>
        <pt x="414" y="-134" on="1"/>
        <pt x="414" y="-166" on="0"/>
        <pt x="385" y="-194" on="0"/>
      </contour>
    </TTGlyph>
    <TTGlyph name="Hdotbelow.sc" xMin="65" yMin="-158" xMax="575" yMax="577">
      <contour>
        <pt x="65" y="577" on="1"/>
        <pt x="188" y="577" on="1"/>
        <pt x="188" y="345" on="1"/>
        <pt x="452" y="345" on="1"/>
        <pt x="452" y="577" on="1"/>
        <pt x="575" y="577" on="1"/>
        <pt x="575" y="0" on="1"/>
        <pt x="452" y="0" on="1"/>
        <pt x="452" y="246" on="1"/>
        <pt x="188" y="246" on="1"/>
        <pt x="188" y="0" on="1"/>
        <pt x="65" y="0" on="1"/>
      </contour>
      <contour>
        <pt x="323" y="-158" on="1"/>
        <pt x="294" y="-158" on="0"/>
        <pt x="266" y="-134" on="0"/>
        <pt x="266" y="-107" on="1"/>
        <pt x="266" y="-78" on="0"/>
        <pt x="294" y="-54" on="0"/>
        <pt x="323" y="-54" on="1"/>
        <pt x="379" y="-54" on="0"/>
        <pt x="379" y="-107" on="1"/>
        <pt x="379" y="-134" on="0"/>
        <pt x="352" y="-158" on="0"/>
      </contour>
    </TTGlyph>
    <TTGlyph name="I" xMin="69" yMin="0" xMax="197" yMax="740">
      <contour>
        <pt x="69" y="740" on="1"/>
        <pt x="197" y="740" on="1"/>
        <pt x="197" y="0" on="1"/>
        <pt x="69" y="0" on="1"/>
      </contour>
    </TTGlyph>
    <TTGlyph name="I.sc" xMin="65" yMin="0" xMax="188" yMax="577">
      <contour>
        <pt x="65" y="577" on="1"/>
        <pt x="188" y="577" on="1"/>
        <pt x="188" y="0" on="1"/>
        <pt x="65" y="0" on="1"/>
      </contour>
    </TTGlyph>
    <TTGlyph name="IJ" xMin="69" yMin="-198" xMax="466" yMax="740">
      <contour>
        <pt x="69" y="740" on="1"/>
        <pt x="197" y="740" on="1"/>
        <pt x="197" y="0" on="1"/>
        <pt x="69" y="0" on="1"/>
      </contour>
      <contour>
        <pt x="258" y="-159" on="1"/>
        <pt x="281" y="-108" on="0"/>
        <pt x="311" y="-24" on="0"/>
        <pt x="329" y="55" on="0"/>
        <pt x="337" y="139" on="0"/>
        <pt x="337" y="190" on="1"/>
        <pt x="337" y="740" on="1"/>
        <pt x="466" y="740" on="1"/>
        <pt x="466" y="181" on="1"/>
        <pt x="466" y="131" on="0"/>
        <pt x="453" y="40" on="0"/>
        <pt x="423" y="-50" on="0"/>
        <pt x="375" y="-144" on="0"/>
        <pt x="341" y="-198" on="1"/>
      </contour>
    </TTGlyph>
    <TTGlyph name="Iacute" xMin="69" yMin="0" xMax="283" yMax="958">
      <contour>
        <pt x="69" y="740" on="1"/>
        <pt x="197" y="740" on="1"/>
        <pt x="197" y="0" on="1"/>
        <pt x="69" y="0" on="1"/>
      </contour>
      <contour>
        <pt x="83" y="799" on="1"/>
        <pt x="153" y="958" on="1"/>
        <pt x="283" y="958" on="1"/>
        <pt x="176" y="792" on="1"/>
      </contour>
    </TTGlyph>
    <TTGlyph name="Iacute.sc" xMin="65" yMin="0" xMax="263" yMax="758">
      <contour>
        <pt x="65" y="577" on="1"/>
        <pt x="188" y="577" on="1"/>
        <pt x="188" y="0" on="1"/>
        <pt x="65" y="0" on="1"/>
      </contour>
      <contour>
        <pt x="79" y="626" on="1"/>
        <pt x="140" y="758" on="1"/>
        <pt x="263" y="758" on="1"/>
        <pt x="167" y="619" on="1"/>
      </contour>
    </TTGlyph>
    <TTGlyph name="Ibreve" xMin="-43" yMin="0" xMax="312" yMax="967">
      <contour>
        <pt x="69" y="740" on="1"/>
        <pt x="197" y="740" on="1"/>
        <pt x="197" y="0" on="1"/>
        <pt x="69" y="0" on="1"/>
      </contour>
      <contour>
        <pt x="135" y="804" on="1"/>
        <pt x="45" y="804" on="0"/>
        <pt x="-43" y="892" on="0"/>
        <pt x="-43" y="967" on="1"/>
        <pt x="45" y="967" on="1"/>
        <pt x="45" y="917" on="0"/>
        <pt x="87" y="870" on="0"/>
        <pt x="135" y="870" on="1"/>
        <pt x="181" y="870" on="0"/>
        <pt x="223" y="917" on="0"/>
        <pt x="223" y="967" on="1"/>
        <pt x="312" y="967" on="1"/>
        <pt x="312" y="892" on="0"/>
        <pt x="223" y="804" on="0"/>
      </contour>
    </TTGlyph>
    <TTGlyph name="Ibreve.sc" xMin="-34" yMin="0" xMax="289" yMax="760">
      <contour>
        <pt x="65" y="577" on="1"/>
        <pt x="188" y="577" on="1"/>
        <pt x="188" y="0" on="1"/>
        <pt x="65" y="0" on="1"/>
      </contour>
      <contour>
        <pt x="128" y="625" on="1"/>
        <pt x="45" y="625" on="0"/>
        <pt x="-34" y="699" on="0"/>
        <pt x="-34" y="760" on="1"/>
        <pt x="49" y="760" on="1"/>
        <pt x="49" y="720" on="0"/>
        <pt x="86" y="684" on="0"/>
        <pt x="128" y="684" on="1"/>
        <pt x="170" y="684" on="0"/>
        <pt x="206" y="720" on="0"/>
        <pt x="206" y="760" on="1"/>
        <pt x="289" y="760" on="1"/>
        <pt x="289" y="699" on="0"/>
        <pt x="209" y="625" on="0"/>
      </contour>
    </TTGlyph>
    <TTGlyph name="Icircumflex" xMin="-26" yMin="0" xMax="296" yMax="966">
      <contour>
        <pt x="69" y="740" on="1"/>
        <pt x="197" y="740" on="1"/>
        <pt x="197" y="0" on="1"/>
        <pt x="69" y="0" on="1"/>
      </contour>
      <contour>
        <pt x="-26" y="893" on="1"/>
        <pt x="135" y="966" on="1"/>
        <pt x="296" y="893" on="1"/>
        <pt x="296" y="802" on="1"/>
        <pt x="135" y="875" on="1"/>
        <pt x="-26" y="802" on="1"/>
      </contour>
    </TTGlyph>
    <TTGlyph name="Icircumflex.sc" xMin="-18" yMin="0" xMax="275" yMax="762">
      <contour>
        <pt x="65" y="577" on="1"/>
        <pt x="188" y="577" on="1"/>
        <pt x="188" y="0" on="1"/>
        <pt x="65" y="0" on="1"/>
      </contour>
      <contour>
        <pt x="-18" y="704" on="1"/>
        <pt x="128" y="762" on="1"/>
        <pt x="275" y="704" on="1"/>
        <pt x="275" y="622" on="1"/>
        <pt x="128" y="680" on="1"/>
        <pt x="-18" y="622" on="1"/>
      </contour>
    </TTGlyph>
    <TTGlyph name="Idblgrave" xMin="-90" yMin="0" xMax="268" yMax="957">
      <contour>
        <pt x="69" y="740" on="1"/>
        <pt x="197" y="740" on="1"/>
        <pt x="197" y="0" on="1"/>
        <pt x="69" y="0" on="1"/>
      </contour>
      <contour>
        <pt x="17" y="791" on="1"/>
        <pt x="-90" y="957" on="1"/>
        <pt x="24" y="957" on="1"/>
        <pt x="94" y="803" on="1"/>
      </contour>
      <contour>
        <pt x="191" y="791" on="1"/>
        <pt x="83" y="957" on="1"/>
        <pt x="198" y="957" on="1"/>
        <pt x="268" y="803" on="1"/>
      </contour>
    </TTGlyph>
    <TTGlyph name="Idblgrave.sc" xMin="-77" yMin="0" xMax="251" yMax="757">
      <contour>
        <pt x="65" y="577" on="1"/>
        <pt x="188" y="577" on="1"/>
        <pt x="188" y="0" on="1"/>
        <pt x="65" y="0" on="1"/>
      </contour>
      <contour>
        <pt x="20" y="618" on="1"/>
        <pt x="-77" y="757" on="1"/>
        <pt x="32" y="757" on="1"/>
        <pt x="92" y="627" on="1"/>
      </contour>
      <contour>
        <pt x="178" y="618" on="1"/>
        <pt x="81" y="757" on="1"/>
        <pt x="190" y="757" on="1"/>
        <pt x="251" y="627" on="1"/>
      </contour>
    </TTGlyph>
    <TTGlyph name="Idieresis" xMin="-58" yMin="0" xMax="327" yMax="949">
      <contour>
        <pt x="69" y="740" on="1"/>
        <pt x="197" y="740" on="1"/>
        <pt x="197" y="0" on="1"/>
        <pt x="69" y="0" on="1"/>
      </contour>
      <contour>
        <pt x="14" y="807" on="1"/>
        <pt x="-58" y="807" on="0"/>
        <pt x="-58" y="878" on="1"/>
        <pt x="-58" y="916" on="0"/>
        <pt x="-23" y="949" on="0"/>
        <pt x="14" y="949" on="1"/>
        <pt x="52" y="949" on="0"/>
        <pt x="88" y="916" on="0"/>
        <pt x="88" y="878" on="1"/>
        <pt x="88" y="840" on="0"/>
        <pt x="52" y="807" on="0"/>
      </contour>
      <contour>
        <pt x="254" y="807" on="1"/>
        <pt x="181" y="807" on="0"/>
        <pt x="181" y="878" on="1"/>
        <pt x="181" y="916" on="0"/>
        <pt x="216" y="949" on="0"/>
        <pt x="254" y="949" on="1"/>
        <pt x="291" y="949" on="0"/>
        <pt x="327" y="916" on="0"/>
        <pt x="327" y="878" on="1"/>
        <pt x="327" y="840" on="0"/>
        <pt x="291" y="807" on="0"/>
      </contour>
    </TTGlyph>
    <TTGlyph name="Idieresis.sc" xMin="-49" yMin="0" xMax="306" yMax="757">
      <contour>
        <pt x="65" y="577" on="1"/>
        <pt x="188" y="577" on="1"/>
        <pt x="188" y="0" on="1"/>
        <pt x="65" y="0" on="1"/>
      </contour>
      <contour>
        <pt x="19" y="627" on="1"/>
        <pt x="-49" y="627" on="0"/>
        <pt x="-49" y="692" on="1"/>
        <pt x="-49" y="727" on="0"/>
        <pt x="-16" y="757" on="0"/>
        <pt x="19" y="757" on="1"/>
        <pt x="88" y="757" on="0"/>
        <pt x="88" y="692" on="1"/>
        <pt x="88" y="627" on="0"/>
      </contour>
      <contour>
        <pt x="237" y="627" on="1"/>
        <pt x="169" y="627" on="0"/>
        <pt x="169" y="692" on="1"/>
        <pt x="169" y="727" on="0"/>
        <pt x="202" y="757" on="0"/>
        <pt x="237" y="757" on="1"/>
        <pt x="306" y="757" on="0"/>
        <pt x="306" y="692" on="1"/>
        <pt x="306" y="627" on="0"/>
      </contour>
    </TTGlyph>
    <TTGlyph name="Idotaccent" xMin="62" yMin="0" xMax="208" yMax="944">
      <contour>
        <pt x="69" y="740" on="1"/>
        <pt x="197" y="740" on="1"/>
        <pt x="197" y="0" on="1"/>
        <pt x="69" y="0" on="1"/>
      </contour>
      <contour>
        <pt x="135" y="801" on="1"/>
        <pt x="62" y="801" on="0"/>
        <pt x="62" y="872" on="1"/>
        <pt x="62" y="910" on="0"/>
        <pt x="97" y="944" on="0"/>
        <pt x="135" y="944" on="1"/>
        <pt x="172" y="944" on="0"/>
        <pt x="208" y="910" on="0"/>
        <pt x="208" y="872" on="1"/>
        <pt x="208" y="801" on="0"/>
      </contour>
    </TTGlyph>
    <TTGlyph name="Idotaccent.sc" xMin="60" yMin="0" xMax="196" yMax="754">
      <contour>
        <pt x="65" y="577" on="1"/>
        <pt x="188" y="577" on="1"/>
        <pt x="188" y="0" on="1"/>
        <pt x="65" y="0" on="1"/>
      </contour>
      <contour>
        <pt x="128" y="624" on="1"/>
        <pt x="93" y="624" on="0"/>
        <pt x="60" y="655" on="0"/>
        <pt x="60" y="690" on="1"/>
        <pt x="60" y="724" on="0"/>
        <pt x="93" y="754" on="0"/>
        <pt x="128" y="754" on="1"/>
        <pt x="163" y="754" on="0"/>
        <pt x="196" y="724" on="0"/>
        <pt x="196" y="690" on="1"/>
        <pt x="196" y="655" on="0"/>
        <pt x="163" y="624" on="0"/>
      </contour>
    </TTGlyph>
    <TTGlyph name="Idotbelow" xMin="69" yMin="-194" xMax="197" yMax="740">
      <contour>
        <pt x="69" y="740" on="1"/>
        <pt x="197" y="740" on="1"/>
        <pt x="197" y="0" on="1"/>
        <pt x="69" y="0" on="1"/>
      </contour>
      <contour>
        <pt x="134" y="-194" on="1"/>
        <pt x="102" y="-194" on="0"/>
        <pt x="73" y="-166" on="0"/>
        <pt x="73" y="-134" on="1"/>
        <pt x="73" y="-102" on="0"/>
        <pt x="102" y="-75" on="0"/>
        <pt x="134" y="-75" on="1"/>
        <pt x="166" y="-75" on="0"/>
        <pt x="195" y="-102" on="0"/>
        <pt x="195" y="-134" on="1"/>
        <pt x="195" y="-166" on="0"/>
        <pt x="166" y="-194" on="0"/>
      </contour>
    </TTGlyph>
    <TTGlyph name="Idotbelow.sc" xMin="65" yMin="-158" xMax="188" yMax="577">
      <contour>
        <pt x="65" y="577" on="1"/>
        <pt x="188" y="577" on="1"/>
        <pt x="188" y="0" on="1"/>
        <pt x="65" y="0" on="1"/>
      </contour>
      <contour>
        <pt x="128" y="-158" on="1"/>
        <pt x="99" y="-158" on="0"/>
        <pt x="72" y="-134" on="0"/>
        <pt x="72" y="-107" on="1"/>
        <pt x="72" y="-78" on="0"/>
        <pt x="99" y="-54" on="0"/>
        <pt x="128" y="-54" on="1"/>
        <pt x="185" y="-54" on="0"/>
        <pt x="185" y="-107" on="1"/>
        <pt x="185" y="-134" on="0"/>
        <pt x="157" y="-158" on="0"/>
      </contour>
    </TTGlyph>
    <TTGlyph name="Igrave" xMin="-18" yMin="0" xMax="197" yMax="958">
      <contour>
        <pt x="69" y="740" on="1"/>
        <pt x="197" y="740" on="1"/>
        <pt x="197" y="0" on="1"/>
        <pt x="69" y="0" on="1"/>
      </contour>
      <contour>
        <pt x="89" y="792" on="1"/>
        <pt x="-18" y="958" on="1"/>
        <pt x="112" y="958" on="1"/>
        <pt x="182" y="804" on="1"/>
      </contour>
    </TTGlyph>
    <TTGlyph name="Igrave.sc" xMin="-11" yMin="0" xMax="188" yMax="758">
      <contour>
        <pt x="65" y="577" on="1"/>
        <pt x="188" y="577" on="1"/>
        <pt x="188" y="0" on="1"/>
        <pt x="65" y="0" on="1"/>
      </contour>
      <contour>
        <pt x="86" y="619" on="1"/>
        <pt x="-11" y="758" on="1"/>
        <pt x="112" y="758" on="1"/>
        <pt x="173" y="628" on="1"/>
      </contour>
    </TTGlyph>
    <TTGlyph name="Iinvertedbreve" xMin="-43" yMin="0" xMax="313" yMax="976">
      <contour>
        <pt x="69" y="740" on="1"/>
        <pt x="197" y="740" on="1"/>
        <pt x="197" y="0" on="1"/>
        <pt x="69" y="0" on="1"/>
      </contour>
      <contour>
        <pt x="224" y="813" on="1"/>
        <pt x="224" y="864" on="0"/>
        <pt x="182" y="911" on="0"/>
        <pt x="135" y="911" on="1"/>
        <pt x="87" y="911" on="0"/>
        <pt x="46" y="864" on="0"/>
        <pt x="46" y="813" on="1"/>
        <pt x="-43" y="813" on="1"/>
        <pt x="-43" y="888" on="0"/>
        <pt x="46" y="976" on="0"/>
        <pt x="135" y="976" on="1"/>
        <pt x="223" y="976" on="0"/>
        <pt x="313" y="888" on="0"/>
        <pt x="313" y="813" on="1"/>
      </contour>
    </TTGlyph>
    <TTGlyph name="Iinvertedbreve.sc" xMin="-33" yMin="0" xMax="290" yMax="767">
      <contour>
        <pt x="65" y="577" on="1"/>
        <pt x="188" y="577" on="1"/>
        <pt x="188" y="0" on="1"/>
        <pt x="65" y="0" on="1"/>
      </contour>
      <contour>
        <pt x="207" y="633" on="1"/>
        <pt x="207" y="672" on="0"/>
        <pt x="171" y="708" on="0"/>
        <pt x="129" y="708" on="1"/>
        <pt x="86" y="708" on="0"/>
        <pt x="50" y="672" on="0"/>
        <pt x="50" y="633" on="1"/>
        <pt x="-33" y="633" on="1"/>
        <pt x="-33" y="694" on="0"/>
        <pt x="46" y="767" on="0"/>
        <pt x="129" y="767" on="1"/>
        <pt x="210" y="767" on="0"/>
        <pt x="290" y="695" on="0"/>
        <pt x="290" y="633" on="1"/>
      </contour>
    </TTGlyph>
    <TTGlyph name="Imacron" xMin="-23" yMin="0" xMax="287" yMax="927">
      <contour>
        <pt x="69" y="740" on="1"/>
        <pt x="197" y="740" on="1"/>
        <pt x="197" y="0" on="1"/>
        <pt x="69" y="0" on="1"/>
      </contour>
      <contour>
        <pt x="-23" y="927" on="1"/>
        <pt x="287" y="927" on="1"/>
        <pt x="287" y="840" on="1"/>
        <pt x="-23" y="840" on="1"/>
      </contour>
    </TTGlyph>
    <TTGlyph name="Imacron.sc" xMin="-16" yMin="0" xMax="268" yMax="735">
      <contour>
        <pt x="65" y="577" on="1"/>
        <pt x="188" y="577" on="1"/>
        <pt x="188" y="0" on="1"/>
        <pt x="65" y="0" on="1"/>
      </contour>
      <contour>
        <pt x="-16" y="735" on="1"/>
        <pt x="268" y="735" on="1"/>
        <pt x="268" y="655" on="1"/>
        <pt x="-16" y="655" on="1"/>
      </contour>
    </TTGlyph>
    <TTGlyph name="Iogonek" xMin="6" yMin="-220" xMax="197" yMax="740">
      <contour>
        <pt x="69" y="740" on="1"/>
        <pt x="197" y="740" on="1"/>
        <pt x="197" y="-12" on="1"/>
        <pt x="140" y="-35" on="0"/>
        <pt x="91" y="-90" on="0"/>
        <pt x="91" y="-114" on="1"/>
        <pt x="91" y="-145" on="0"/>
        <pt x="131" y="-145" on="1"/>
        <pt x="146" y="-145" on="0"/>
        <pt x="182" y="-138" on="0"/>
        <pt x="197" y="-133" on="1"/>
        <pt x="197" y="-208" on="1"/>
        <pt x="178" y="-214" on="0"/>
        <pt x="142" y="-220" on="0"/>
        <pt x="122" y="-220" on="1"/>
        <pt x="6" y="-220" on="0"/>
        <pt x="6" y="-127" on="1"/>
        <pt x="6" y="-92" on="0"/>
        <pt x="48" y="-30" on="0"/>
        <pt x="93" y="0" on="1"/>
        <pt x="69" y="0" on="1"/>
      </contour>
    </TTGlyph>
    <TTGlyph name="Iogonek.sc" xMin="13" yMin="-172" xMax="188" yMax="577">
      <contour>
        <pt x="66" y="577" on="1"/>
        <pt x="188" y="577" on="1"/>
        <pt x="188" y="-7" on="1"/>
        <pt x="134" y="-27" on="0"/>
        <pt x="93" y="-67" on="0"/>
        <pt x="93" y="-83" on="1"/>
        <pt x="93" y="-103" on="0"/>
        <pt x="127" y="-103" on="1"/>
        <pt x="141" y="-103" on="0"/>
        <pt x="175" y="-98" on="0"/>
        <pt x="188" y="-94" on="1"/>
        <pt x="188" y="-162" on="1"/>
        <pt x="171" y="-167" on="0"/>
        <pt x="137" y="-172" on="0"/>
        <pt x="119" y="-172" on="1"/>
        <pt x="67" y="-172" on="0"/>
        <pt x="13" y="-133" on="0"/>
        <pt x="13" y="-97" on="1"/>
        <pt x="13" y="-69" on="0"/>
        <pt x="49" y="-23" on="0"/>
        <pt x="87" y="0" on="1"/>
        <pt x="66" y="0" on="1"/>
      </contour>
    </TTGlyph>
    <TTGlyph name="Itilde" xMin="-49" yMin="0" xMax="334" yMax="944">
      <contour>
        <pt x="69" y="740" on="1"/>
        <pt x="197" y="740" on="1"/>
        <pt x="197" y="0" on="1"/>
        <pt x="69" y="0" on="1"/>
      </contour>
      <contour>
        <pt x="-49" y="847" on="1"/>
        <pt x="-23" y="894" on="0"/>
        <pt x="46" y="944" on="0"/>
        <pt x="79" y="944" on="1"/>
        <pt x="100" y="944" on="0"/>
        <pt x="139" y="931" on="0"/>
        <pt x="176" y="916" on="0"/>
        <pt x="214" y="903" on="0"/>
        <pt x="234" y="903" on="1"/>
        <pt x="271" y="903" on="0"/>
        <pt x="309" y="942" on="1"/>
        <pt x="334" y="918" on="1"/>
        <pt x="309" y="870" on="0"/>
        <pt x="240" y="820" on="0"/>
        <pt x="206" y="820" on="1"/>
        <pt x="185" y="820" on="0"/>
        <pt x="147" y="832" on="0"/>
        <pt x="109" y="847" on="0"/>
        <pt x="72" y="859" on="0"/>
        <pt x="52" y="859" on="1"/>
        <pt x="32" y="859" on="0"/>
        <pt x="-6" y="842" on="0"/>
        <pt x="-26" y="822" on="1"/>
      </contour>
    </TTGlyph>
    <TTGlyph name="Itilde.sc" xMin="-40" yMin="0" xMax="309" yMax="747">
      <contour>
        <pt x="65" y="577" on="1"/>
        <pt x="188" y="577" on="1"/>
        <pt x="188" y="0" on="1"/>
        <pt x="65" y="0" on="1"/>
      </contour>
      <contour>
        <pt x="-40" y="660" on="1"/>
        <pt x="-16" y="702" on="0"/>
        <pt x="47" y="747" on="0"/>
        <pt x="78" y="747" on="1"/>
        <pt x="97" y="747" on="0"/>
        <pt x="132" y="738" on="0"/>
        <pt x="166" y="726" on="0"/>
        <pt x="201" y="717" on="0"/>
        <pt x="219" y="717" on="1"/>
        <pt x="236" y="717" on="0"/>
        <pt x="269" y="729" on="0"/>
        <pt x="287" y="746" on="1"/>
        <pt x="309" y="726" on="1"/>
        <pt x="286" y="682" on="0"/>
        <pt x="223" y="638" on="0"/>
        <pt x="192" y="638" on="1"/>
        <pt x="173" y="638" on="0"/>
        <pt x="138" y="648" on="0"/>
        <pt x="103" y="659" on="0"/>
        <pt x="69" y="669" on="0"/>
        <pt x="51" y="669" on="1"/>
        <pt x="33" y="669" on="0"/>
        <pt x="-1" y="656" on="0"/>
        <pt x="-20" y="640" on="1"/>
      </contour>
    </TTGlyph>
    <TTGlyph name="J" xMin="-8" yMin="-198" xMax="200" yMax="740">
      <contour>
        <pt x="-8" y="-159" on="1"/>
        <pt x="15" y="-108" on="0"/>
        <pt x="45" y="-24" on="0"/>
        <pt x="63" y="55" on="0"/>
        <pt x="71" y="139" on="0"/>
        <pt x="71" y="190" on="1"/>
        <pt x="71" y="740" on="1"/>
        <pt x="200" y="740" on="1"/>
        <pt x="200" y="181" on="1"/>
        <pt x="200" y="131" on="0"/>
        <pt x="187" y="40" on="0"/>
        <pt x="157" y="-50" on="0"/>
        <pt x="109" y="-144" on="0"/>
        <pt x="75" y="-198" on="1"/>
      </contour>
    </TTGlyph>
    <TTGlyph name="J.sc" xMin="-1" yMin="-159" xMax="190" yMax="577">
      <contour>
        <pt x="-1" y="-124" on="1"/>
        <pt x="19" y="-85" on="0"/>
        <pt x="46" y="-19" on="0"/>
        <pt x="61" y="44" on="0"/>
        <pt x="67" y="110" on="0"/>
        <pt x="67" y="151" on="1"/>
        <pt x="67" y="577" on="1"/>
        <pt x="190" y="577" on="1"/>
        <pt x="190" y="141" on="1"/>
        <pt x="190" y="101" on="0"/>
        <pt x="178" y="30" on="0"/>
        <pt x="152" y="-42" on="0"/>
        <pt x="109" y="-116" on="0"/>
        <pt x="78" y="-159" on="1"/>
      </contour>
    </TTGlyph>
    <TTGlyph name="Jcircumflex" xMin="-25" yMin="-198" xMax="297" yMax="966">
      <contour>
        <pt x="-8" y="-159" on="1"/>
        <pt x="15" y="-108" on="0"/>
        <pt x="45" y="-24" on="0"/>
        <pt x="63" y="55" on="0"/>
        <pt x="71" y="139" on="0"/>
        <pt x="71" y="190" on="1"/>
        <pt x="71" y="740" on="1"/>
        <pt x="200" y="740" on="1"/>
        <pt x="200" y="181" on="1"/>
        <pt x="200" y="131" on="0"/>
        <pt x="187" y="40" on="0"/>
        <pt x="157" y="-50" on="0"/>
        <pt x="109" y="-144" on="0"/>
        <pt x="75" y="-198" on="1"/>
      </contour>
      <contour>
        <pt x="-25" y="893" on="1"/>
        <pt x="136" y="966" on="1"/>
        <pt x="297" y="893" on="1"/>
        <pt x="297" y="802" on="1"/>
        <pt x="136" y="875" on="1"/>
        <pt x="-25" y="802" on="1"/>
      </contour>
    </TTGlyph>
    <TTGlyph name="Jcircumflex.sc" xMin="-17" yMin="-159" xMax="276" yMax="762">
      <contour>
        <pt x="0" y="-124" on="1"/>
        <pt x="19" y="-85" on="0"/>
        <pt x="45" y="-19" on="0"/>
        <pt x="61" y="44" on="0"/>
        <pt x="67" y="110" on="0"/>
        <pt x="67" y="151" on="1"/>
        <pt x="67" y="577" on="1"/>
        <pt x="190" y="577" on="1"/>
        <pt x="190" y="141" on="1"/>
        <pt x="190" y="101" on="0"/>
        <pt x="178" y="30" on="0"/>
        <pt x="152" y="-42" on="0"/>
        <pt x="108" y="-116" on="0"/>
        <pt x="77" y="-159" on="1"/>
      </contour>
      <contour>
        <pt x="-17" y="704" on="1"/>
        <pt x="130" y="762" on="1"/>
        <pt x="276" y="704" on="1"/>
        <pt x="276" y="622" on="1"/>
        <pt x="130" y="680" on="1"/>
        <pt x="-17" y="622" on="1"/>
      </contour>
    </TTGlyph>
    <TTGlyph name="K" xMin="69" yMin="0" xMax="634" yMax="740">
      <contour>
        <pt x="69" y="740" on="1"/>
        <pt x="197" y="740" on="1"/>
        <pt x="197" y="430" on="1"/>
        <pt x="289" y="430" on="1"/>
        <pt x="470" y="740" on="1"/>
        <pt x="614" y="740" on="1"/>
        <pt x="417" y="409" on="1"/>
        <pt x="373" y="382" on="1"/>
        <pt x="373" y="376" on="1"/>
        <pt x="419" y="350" on="1"/>
        <pt x="634" y="0" on="1"/>
        <pt x="489" y="0" on="1"/>
        <pt x="292" y="323" on="1"/>
        <pt x="197" y="323" on="1"/>
        <pt x="197" y="0" on="1"/>
        <pt x="69" y="0" on="1"/>
      </contour>
    </TTGlyph>
    <TTGlyph name="K.sc" xMin="65" yMin="0" xMax="576" yMax="577">
      <contour>
        <pt x="65" y="577" on="1"/>
        <pt x="188" y="577" on="1"/>
        <pt x="188" y="343" on="1"/>
        <pt x="269" y="343" on="1"/>
        <pt x="422" y="577" on="1"/>
        <pt x="559" y="577" on="1"/>
        <pt x="389" y="320" on="1"/>
        <pt x="343" y="299" on="1"/>
        <pt x="343" y="294" on="1"/>
        <pt x="390" y="273" on="1"/>
        <pt x="576" y="0" on="1"/>
        <pt x="439" y="0" on="1"/>
        <pt x="271" y="244" on="1"/>
        <pt x="188" y="244" on="1"/>
        <pt x="188" y="0" on="1"/>
        <pt x="65" y="0" on="1"/>
      </contour>
    </TTGlyph>
    <TTGlyph name="Kcommaaccent" xMin="69" yMin="-220" xMax="634" yMax="740">
      <contour>
        <pt x="259" y="-69" on="1"/>
        <pt x="388" y="-69" on="1"/>
        <pt x="311" y="-220" on="1"/>
        <pt x="214" y="-220" on="1"/>
      </contour>
      <contour>
        <pt x="69" y="740" on="1"/>
        <pt x="197" y="740" on="1"/>
        <pt x="197" y="430" on="1"/>
        <pt x="289" y="430" on="1"/>
        <pt x="470" y="740" on="1"/>
        <pt x="614" y="740" on="1"/>
        <pt x="417" y="409" on="1"/>
        <pt x="373" y="382" on="1"/>
        <pt x="373" y="376" on="1"/>
        <pt x="419" y="350" on="1"/>
        <pt x="634" y="0" on="1"/>
        <pt x="489" y="0" on="1"/>
        <pt x="292" y="323" on="1"/>
        <pt x="197" y="323" on="1"/>
        <pt x="197" y="0" on="1"/>
        <pt x="69" y="0" on="1"/>
      </contour>
    </TTGlyph>
    <TTGlyph name="Kcommaaccent.sc" xMin="65" yMin="-172" xMax="576" yMax="577">
      <contour>
        <pt x="65" y="577" on="1"/>
        <pt x="188" y="577" on="1"/>
        <pt x="188" y="343" on="1"/>
        <pt x="269" y="343" on="1"/>
        <pt x="422" y="577" on="1"/>
        <pt x="559" y="577" on="1"/>
        <pt x="389" y="320" on="1"/>
        <pt x="343" y="299" on="1"/>
        <pt x="343" y="294" on="1"/>
        <pt x="390" y="273" on="1"/>
        <pt x="576" y="0" on="1"/>
        <pt x="439" y="0" on="1"/>
        <pt x="271" y="244" on="1"/>
        <pt x="188" y="244" on="1"/>
        <pt x="188" y="0" on="1"/>
        <pt x="65" y="0" on="1"/>
      </contour>
      <contour>
        <pt x="240" y="-54" on="1"/>
        <pt x="363" y="-54" on="1"/>
        <pt x="293" y="-172" on="1"/>
        <pt x="201" y="-172" on="1"/>
      </contour>
    </TTGlyph>
    <TTGlyph name="L" xMin="69" yMin="0" xMax="465" yMax="740">
      <contour>
        <pt x="69" y="740" on="1"/>
        <pt x="197" y="740" on="1"/>
        <pt x="197" y="106" on="1"/>
        <pt x="465" y="106" on="1"/>
        <pt x="465" y="0" on="1"/>
        <pt x="69" y="0" on="1"/>
      </contour>
    </TTGlyph>
    <TTGlyph name="L.sc" xMin="65" yMin="0" xMax="427" yMax="577">
      <contour>
        <pt x="65" y="577" on="1"/>
        <pt x="188" y="577" on="1"/>
        <pt x="188" y="100" on="1"/>
        <pt x="427" y="100" on="1"/>
        <pt x="427" y="0" on="1"/>
        <pt x="65" y="0" on="1"/>
      </contour>
    </TTGlyph>
    <TTGlyph name="Lacute" xMin="69" yMin="0" xMax="465" yMax="958">
      <contour>
        <pt x="90" y="799" on="1"/>
        <pt x="160" y="958" on="1"/>
        <pt x="290" y="958" on="1"/>
        <pt x="183" y="792" on="1"/>
      </contour>
      <contour>
        <pt x="69" y="740" on="1"/>
        <pt x="197" y="740" on="1"/>
        <pt x="197" y="106" on="1"/>
        <pt x="465" y="106" on="1"/>
        <pt x="465" y="0" on="1"/>
        <pt x="69" y="0" on="1"/>
      </contour>
    </TTGlyph>
    <TTGlyph name="Lacute.sc" xMin="65" yMin="0" xMax="427" yMax="758">
      <contour>
        <pt x="65" y="577" on="1"/>
        <pt x="188" y="577" on="1"/>
        <pt x="188" y="100" on="1"/>
        <pt x="427" y="100" on="1"/>
        <pt x="427" y="0" on="1"/>
        <pt x="65" y="0" on="1"/>
      </contour>
      <contour>
        <pt x="85" y="626" on="1"/>
        <pt x="146" y="758" on="1"/>
        <pt x="269" y="758" on="1"/>
        <pt x="173" y="619" on="1"/>
      </contour>
    </TTGlyph>
    <TTGlyph name="Lcaron" xMin="69" yMin="0" xMax="472" yMax="777">
      <contour>
        <pt x="370" y="777" on="1"/>
        <pt x="472" y="777" on="1"/>
        <pt x="436" y="549" on="1"/>
        <pt x="370" y="549" on="1"/>
      </contour>
      <contour>
        <pt x="69" y="740" on="1"/>
        <pt x="197" y="740" on="1"/>
        <pt x="197" y="106" on="1"/>
        <pt x="465" y="106" on="1"/>
        <pt x="465" y="0" on="1"/>
        <pt x="69" y="0" on="1"/>
      </contour>
    </TTGlyph>
    <TTGlyph name="Lcaron.sc" xMin="66" yMin="0" xMax="434" yMax="615">
      <contour>
        <pt x="66" y="577" on="1"/>
        <pt x="188" y="577" on="1"/>
        <pt x="188" y="100" on="1"/>
        <pt x="427" y="100" on="1"/>
        <pt x="427" y="0" on="1"/>
        <pt x="66" y="0" on="1"/>
      </contour>
      <contour>
        <pt x="338" y="615" on="1"/>
        <pt x="434" y="615" on="1"/>
        <pt x="401" y="437" on="1"/>
        <pt x="338" y="437" on="1"/>
      </contour>
    </TTGlyph>
    <TTGlyph name="Lcommaaccent" xMin="69" yMin="-220" xMax="465" yMax="740">
      <contour>
        <pt x="206" y="-69" on="1"/>
        <pt x="335" y="-69" on="1"/>
        <pt x="258" y="-220" on="1"/>
        <pt x="161" y="-220" on="1"/>
      </contour>
      <contour>
        <pt x="69" y="740" on="1"/>
        <pt x="197" y="740" on="1"/>
        <pt x="197" y="106" on="1"/>
        <pt x="465" y="106" on="1"/>
        <pt x="465" y="0" on="1"/>
        <pt x="69" y="0" on="1"/>
      </contour>
    </TTGlyph>
    <TTGlyph name="Lcommaaccent.sc" xMin="65" yMin="-172" xMax="427" yMax="577">
      <contour>
        <pt x="65" y="577" on="1"/>
        <pt x="188" y="577" on="1"/>
        <pt x="188" y="100" on="1"/>
        <pt x="427" y="100" on="1"/>
        <pt x="427" y="0" on="1"/>
        <pt x="65" y="0" on="1"/>
      </contour>
      <contour>
        <pt x="186" y="-54" on="1"/>
        <pt x="308" y="-54" on="1"/>
        <pt x="239" y="-172" on="1"/>
        <pt x="147" y="-172" on="1"/>
      </contour>
    </TTGlyph>
    <TTGlyph name="Ldot" xMin="69" yMin="0" xMax="465" yMax="740">
      <contour>
        <pt x="69" y="740" on="1"/>
        <pt x="197" y="740" on="1"/>
        <pt x="197" y="106" on="1"/>
        <pt x="465" y="106" on="1"/>
        <pt x="465" y="0" on="1"/>
        <pt x="69" y="0" on="1"/>
      </contour>
      <contour>
        <pt x="384" y="304" on="1"/>
        <pt x="346" y="304" on="0"/>
        <pt x="311" y="337" on="0"/>
        <pt x="311" y="375" on="1"/>
        <pt x="311" y="413" on="0"/>
        <pt x="346" y="447" on="0"/>
        <pt x="384" y="447" on="1"/>
        <pt x="422" y="447" on="0"/>
        <pt x="457" y="413" on="0"/>
        <pt x="457" y="375" on="1"/>
        <pt x="457" y="337" on="0"/>
        <pt x="422" y="304" on="0"/>
      </contour>
    </TTGlyph>
    <TTGlyph name="Ldot.sc" xMin="65" yMin="0" xMax="427" yMax="577">
      <contour>
        <pt x="65" y="577" on="1"/>
        <pt x="188" y="577" on="1"/>
        <pt x="188" y="100" on="1"/>
        <pt x="427" y="100" on="1"/>
        <pt x="427" y="0" on="1"/>
        <pt x="65" y="0" on="1"/>
      </contour>
      <contour>
        <pt x="355" y="229" on="1"/>
        <pt x="320" y="229" on="0"/>
        <pt x="288" y="260" on="0"/>
        <pt x="288" y="295" on="1"/>
        <pt x="288" y="329" on="0"/>
        <pt x="320" y="360" on="0"/>
        <pt x="355" y="360" on="1"/>
        <pt x="424" y="360" on="0"/>
        <pt x="424" y="295" on="1"/>
        <pt x="424" y="260" on="0"/>
        <pt x="390" y="229" on="0"/>
      </contour>
    </TTGlyph>
    <TTGlyph name="Lslash" xMin="10" yMin="0" xMax="485" yMax="740">
      <contour>
        <pt x="10" y="324" on="1"/>
        <pt x="89" y="374" on="1"/>
        <pt x="89" y="740" on="1"/>
        <pt x="217" y="740" on="1"/>
        <pt x="217" y="455" on="1"/>
        <pt x="332" y="528" on="1"/>
        <pt x="332" y="428" on="1"/>
        <pt x="217" y="355" on="1"/>
        <pt x="217" y="106" on="1"/>
        <pt x="485" y="106" on="1"/>
        <pt x="485" y="0" on="1"/>
        <pt x="89" y="0" on="1"/>
        <pt x="89" y="274" on="1"/>
        <pt x="10" y="224" on="1"/>
      </contour>
    </TTGlyph>
    <TTGlyph name="Lslash.sc" xMin="15" yMin="0" xMax="444" yMax="577">
      <contour>
        <pt x="15" y="266" on="1"/>
        <pt x="83" y="307" on="1"/>
        <pt x="83" y="577" on="1"/>
        <pt x="205" y="577" on="1"/>
        <pt x="205" y="363" on="1"/>
        <pt x="308" y="421" on="1"/>
        <pt x="308" y="331" on="1"/>
        <pt x="205" y="272" on="1"/>
        <pt x="205" y="100" on="1"/>
        <pt x="444" y="100" on="1"/>
        <pt x="444" y="0" on="1"/>
        <pt x="83" y="0" on="1"/>
        <pt x="83" y="216" on="1"/>
        <pt x="15" y="175" on="1"/>
      </contour>
    </TTGlyph>
    <TTGlyph name="M" xMin="69" yMin="0" xMax="813" yMax="740">
      <contour>
        <pt x="69" y="740" on="1"/>
        <pt x="248" y="740" on="1"/>
        <pt x="402" y="316" on="1"/>
        <pt x="437" y="189" on="1"/>
        <pt x="444" y="189" on="1"/>
        <pt x="479" y="316" on="1"/>
        <pt x="633" y="740" on="1"/>
        <pt x="813" y="740" on="1"/>
        <pt x="813" y="0" on="1"/>
        <pt x="693" y="0" on="1"/>
        <pt x="693" y="575" on="1"/>
        <pt x="687" y="575" on="1"/>
        <pt x="640" y="430" on="1"/>
        <pt x="496" y="34" on="1"/>
        <pt x="384" y="34" on="1"/>
        <pt x="240" y="430" on="1"/>
        <pt x="192" y="575" on="1"/>
        <pt x="186" y="575" on="1"/>
        <pt x="186" y="0" on="1"/>
        <pt x="69" y="0" on="1"/>
      </contour>
    </TTGlyph>
    <TTGlyph name="M.sc" xMin="65" yMin="0" xMax="736" yMax="577">
      <contour>
        <pt x="65" y="577" on="1"/>
        <pt x="233" y="577" on="1"/>
        <pt x="366" y="262" on="1"/>
        <pt x="397" y="172" on="1"/>
        <pt x="404" y="172" on="1"/>
        <pt x="435" y="262" on="1"/>
        <pt x="568" y="577" on="1"/>
        <pt x="736" y="577" on="1"/>
        <pt x="736" y="0" on="1"/>
        <pt x="624" y="0" on="1"/>
        <pt x="624" y="433" on="1"/>
        <pt x="617" y="433" on="1"/>
        <pt x="569" y="309" on="1"/>
        <pt x="452" y="27" on="1"/>
        <pt x="349" y="27" on="1"/>
        <pt x="232" y="309" on="1"/>
        <pt x="184" y="433" on="1"/>
        <pt x="178" y="433" on="1"/>
        <pt x="178" y="0" on="1"/>
        <pt x="65" y="0" on="1"/>
      </contour>
    </TTGlyph>
    <TTGlyph name="N" xMin="69" yMin="0" xMax="643" yMax="740">
      <contour>
        <pt x="69" y="740" on="1"/>
        <pt x="178" y="740" on="1"/>
        <pt x="474" y="296" on="1"/>
        <pt x="520" y="214" on="1"/>
        <pt x="528" y="214" on="1"/>
        <pt x="528" y="740" on="1"/>
        <pt x="643" y="740" on="1"/>
        <pt x="643" y="0" on="1"/>
        <pt x="534" y="0" on="1"/>
        <pt x="239" y="443" on="1"/>
        <pt x="191" y="527" on="1"/>
        <pt x="183" y="527" on="1"/>
        <pt x="183" y="0" on="1"/>
        <pt x="69" y="0" on="1"/>
      </contour>
    </TTGlyph>
    <TTGlyph name="N.sc" xMin="65" yMin="0" xMax="578" yMax="577">
      <contour>
        <pt x="65" y="577" on="1"/>
        <pt x="166" y="577" on="1"/>
        <pt x="416" y="254" on="1"/>
        <pt x="462" y="188" on="1"/>
        <pt x="469" y="189" on="1"/>
        <pt x="469" y="577" on="1"/>
        <pt x="578" y="577" on="1"/>
        <pt x="578" y="0" on="1"/>
        <pt x="478" y="0" on="1"/>
        <pt x="230" y="323" on="1"/>
        <pt x="182" y="390" on="1"/>
        <pt x="175" y="390" on="1"/>
        <pt x="175" y="0" on="1"/>
        <pt x="65" y="0" on="1"/>
      </contour>
    </TTGlyph>
    <TTGlyph name="Nacute" xMin="69" yMin="0" xMax="643" yMax="958">
      <contour>
        <pt x="297" y="799" on="1"/>
        <pt x="367" y="958" on="1"/>
        <pt x="497" y="958" on="1"/>
        <pt x="390" y="792" on="1"/>
      </contour>
      <contour>
        <pt x="69" y="740" on="1"/>
        <pt x="178" y="740" on="1"/>
        <pt x="474" y="296" on="1"/>
        <pt x="520" y="214" on="1"/>
        <pt x="528" y="214" on="1"/>
        <pt x="528" y="740" on="1"/>
        <pt x="643" y="740" on="1"/>
        <pt x="643" y="0" on="1"/>
        <pt x="534" y="0" on="1"/>
        <pt x="239" y="443" on="1"/>
        <pt x="191" y="527" on="1"/>
        <pt x="183" y="527" on="1"/>
        <pt x="183" y="0" on="1"/>
        <pt x="69" y="0" on="1"/>
      </contour>
    </TTGlyph>
    <TTGlyph name="Nacute.sc" xMin="65" yMin="0" xMax="578" yMax="758">
      <contour>
        <pt x="65" y="577" on="1"/>
        <pt x="166" y="577" on="1"/>
        <pt x="416" y="254" on="1"/>
        <pt x="462" y="188" on="1"/>
        <pt x="469" y="189" on="1"/>
        <pt x="469" y="577" on="1"/>
        <pt x="578" y="577" on="1"/>
        <pt x="578" y="0" on="1"/>
        <pt x="478" y="0" on="1"/>
        <pt x="230" y="323" on="1"/>
        <pt x="182" y="390" on="1"/>
        <pt x="175" y="390" on="1"/>
        <pt x="175" y="0" on="1"/>
        <pt x="65" y="0" on="1"/>
      </contour>
      <contour>
        <pt x="266" y="626" on="1"/>
        <pt x="327" y="758" on="1"/>
        <pt x="450" y="758" on="1"/>
        <pt x="353" y="619" on="1"/>
      </contour>
    </TTGlyph>
    <TTGlyph name="Ncaron" xMin="69" yMin="0" xMax="643" yMax="959">
      <contour>
        <pt x="198" y="959" on="1"/>
        <pt x="359" y="886" on="1"/>
        <pt x="520" y="959" on="1"/>
        <pt x="520" y="868" on="1"/>
        <pt x="359" y="795" on="1"/>
        <pt x="198" y="868" on="1"/>
      </contour>
      <contour>
        <pt x="69" y="740" on="1"/>
        <pt x="178" y="740" on="1"/>
        <pt x="474" y="296" on="1"/>
        <pt x="520" y="214" on="1"/>
        <pt x="528" y="214" on="1"/>
        <pt x="528" y="740" on="1"/>
        <pt x="643" y="740" on="1"/>
        <pt x="643" y="0" on="1"/>
        <pt x="534" y="0" on="1"/>
        <pt x="239" y="443" on="1"/>
        <pt x="191" y="527" on="1"/>
        <pt x="183" y="527" on="1"/>
        <pt x="183" y="0" on="1"/>
        <pt x="69" y="0" on="1"/>
      </contour>
    </TTGlyph>
    <TTGlyph name="Ncaron.sc" xMin="65" yMin="0" xMax="578" yMax="759">
      <contour>
        <pt x="65" y="577" on="1"/>
        <pt x="166" y="577" on="1"/>
        <pt x="416" y="254" on="1"/>
        <pt x="462" y="188" on="1"/>
        <pt x="469" y="189" on="1"/>
        <pt x="469" y="577" on="1"/>
        <pt x="578" y="577" on="1"/>
        <pt x="578" y="0" on="1"/>
        <pt x="478" y="0" on="1"/>
        <pt x="230" y="323" on="1"/>
        <pt x="182" y="390" on="1"/>
        <pt x="175" y="390" on="1"/>
        <pt x="175" y="0" on="1"/>
        <pt x="65" y="0" on="1"/>
      </contour>
      <contour>
        <pt x="177" y="677" on="1"/>
        <pt x="177" y="759" on="1"/>
        <pt x="324" y="701" on="1"/>
        <pt x="471" y="759" on="1"/>
        <pt x="471" y="677" on="1"/>
        <pt x="324" y="619" on="1"/>
      </contour>
    </TTGlyph>
    <TTGlyph name="Ncommaaccent" xMin="69" yMin="-220" xMax="643" yMax="740">
      <contour>
        <pt x="309" y="-69" on="1"/>
        <pt x="438" y="-69" on="1"/>
        <pt x="361" y="-220" on="1"/>
        <pt x="264" y="-220" on="1"/>
      </contour>
      <contour>
        <pt x="69" y="740" on="1"/>
        <pt x="178" y="740" on="1"/>
        <pt x="474" y="296" on="1"/>
        <pt x="520" y="214" on="1"/>
        <pt x="528" y="214" on="1"/>
        <pt x="528" y="740" on="1"/>
        <pt x="643" y="740" on="1"/>
        <pt x="643" y="0" on="1"/>
        <pt x="534" y="0" on="1"/>
        <pt x="239" y="443" on="1"/>
        <pt x="191" y="527" on="1"/>
        <pt x="183" y="527" on="1"/>
        <pt x="183" y="0" on="1"/>
        <pt x="69" y="0" on="1"/>
      </contour>
    </TTGlyph>
    <TTGlyph name="Ncommaaccent.sc" xMin="65" yMin="-172" xMax="578" yMax="577">
      <contour>
        <pt x="65" y="577" on="1"/>
        <pt x="166" y="577" on="1"/>
        <pt x="416" y="254" on="1"/>
        <pt x="462" y="188" on="1"/>
        <pt x="469" y="189" on="1"/>
        <pt x="469" y="577" on="1"/>
        <pt x="578" y="577" on="1"/>
        <pt x="578" y="0" on="1"/>
        <pt x="478" y="0" on="1"/>
        <pt x="230" y="323" on="1"/>
        <pt x="182" y="390" on="1"/>
        <pt x="175" y="390" on="1"/>
        <pt x="175" y="0" on="1"/>
        <pt x="65" y="0" on="1"/>
      </contour>
      <contour>
        <pt x="275" y="-54" on="1"/>
        <pt x="397" y="-54" on="1"/>
        <pt x="328" y="-172" on="1"/>
        <pt x="235" y="-172" on="1"/>
      </contour>
    </TTGlyph>
    <TTGlyph name="Ndotaccent" xMin="69" yMin="0" xMax="643" yMax="944">
      <contour>
        <pt x="354" y="801" on="1"/>
        <pt x="281" y="801" on="0"/>
        <pt x="281" y="872" on="1"/>
        <pt x="281" y="910" on="0"/>
        <pt x="316" y="944" on="0"/>
        <pt x="354" y="944" on="1"/>
        <pt x="391" y="944" on="0"/>
        <pt x="427" y="910" on="0"/>
        <pt x="427" y="872" on="1"/>
        <pt x="427" y="801" on="0"/>
      </contour>
      <contour>
        <pt x="69" y="740" on="1"/>
        <pt x="178" y="740" on="1"/>
        <pt x="474" y="296" on="1"/>
        <pt x="520" y="214" on="1"/>
        <pt x="528" y="214" on="1"/>
        <pt x="528" y="740" on="1"/>
        <pt x="643" y="740" on="1"/>
        <pt x="643" y="0" on="1"/>
        <pt x="534" y="0" on="1"/>
        <pt x="239" y="443" on="1"/>
        <pt x="191" y="527" on="1"/>
        <pt x="183" y="527" on="1"/>
        <pt x="183" y="0" on="1"/>
        <pt x="69" y="0" on="1"/>
      </contour>
    </TTGlyph>
    <TTGlyph name="Ndotaccent.sc" xMin="65" yMin="0" xMax="578" yMax="754">
      <contour>
        <pt x="65" y="577" on="1"/>
        <pt x="166" y="577" on="1"/>
        <pt x="416" y="254" on="1"/>
        <pt x="462" y="188" on="1"/>
        <pt x="469" y="189" on="1"/>
        <pt x="469" y="577" on="1"/>
        <pt x="578" y="577" on="1"/>
        <pt x="578" y="0" on="1"/>
        <pt x="478" y="0" on="1"/>
        <pt x="230" y="323" on="1"/>
        <pt x="182" y="390" on="1"/>
        <pt x="175" y="390" on="1"/>
        <pt x="175" y="0" on="1"/>
        <pt x="65" y="0" on="1"/>
      </contour>
      <contour>
        <pt x="320" y="624" on="1"/>
        <pt x="285" y="624" on="0"/>
        <pt x="252" y="655" on="0"/>
        <pt x="252" y="690" on="1"/>
        <pt x="252" y="724" on="0"/>
        <pt x="285" y="754" on="0"/>
        <pt x="320" y="754" on="1"/>
        <pt x="355" y="754" on="0"/>
        <pt x="388" y="724" on="0"/>
        <pt x="388" y="690" on="1"/>
        <pt x="388" y="655" on="0"/>
        <pt x="355" y="624" on="0"/>
      </contour>
    </TTGlyph>
    <TTGlyph name="Ntilde" xMin="69" yMin="0" xMax="643" yMax="944">
      <contour>
        <pt x="169" y="847" on="1"/>
        <pt x="195" y="894" on="0"/>
        <pt x="264" y="944" on="0"/>
        <pt x="297" y="944" on="1"/>
        <pt x="318" y="944" on="0"/>
        <pt x="357" y="931" on="0"/>
        <pt x="394" y="916" on="0"/>
        <pt x="432" y="903" on="0"/>
        <pt x="452" y="903" on="1"/>
        <pt x="489" y="903" on="0"/>
        <pt x="527" y="942" on="1"/>
        <pt x="552" y="918" on="1"/>
        <pt x="527" y="870" on="0"/>
        <pt x="458" y="820" on="0"/>
        <pt x="424" y="820" on="1"/>
        <pt x="403" y="820" on="0"/>
        <pt x="365" y="832" on="0"/>
        <pt x="327" y="847" on="0"/>
        <pt x="290" y="859" on="0"/>
        <pt x="270" y="859" on="1"/>
        <pt x="250" y="859" on="0"/>
        <pt x="212" y="842" on="0"/>
        <pt x="192" y="822" on="1"/>
      </contour>
      <contour>
        <pt x="69" y="740" on="1"/>
        <pt x="178" y="740" on="1"/>
        <pt x="474" y="296" on="1"/>
        <pt x="520" y="214" on="1"/>
        <pt x="528" y="214" on="1"/>
        <pt x="528" y="740" on="1"/>
        <pt x="643" y="740" on="1"/>
        <pt x="643" y="0" on="1"/>
        <pt x="534" y="0" on="1"/>
        <pt x="239" y="443" on="1"/>
        <pt x="191" y="527" on="1"/>
        <pt x="183" y="527" on="1"/>
        <pt x="183" y="0" on="1"/>
        <pt x="69" y="0" on="1"/>
      </contour>
    </TTGlyph>
    <TTGlyph name="Ntilde.sc" xMin="65" yMin="0" xMax="578" yMax="747">
      <contour>
        <pt x="152" y="660" on="1"/>
        <pt x="176" y="702" on="0"/>
        <pt x="239" y="747" on="0"/>
        <pt x="270" y="747" on="1"/>
        <pt x="289" y="747" on="0"/>
        <pt x="324" y="738" on="0"/>
        <pt x="358" y="726" on="0"/>
        <pt x="393" y="717" on="0"/>
        <pt x="411" y="717" on="1"/>
        <pt x="428" y="717" on="0"/>
        <pt x="461" y="729" on="0"/>
        <pt x="480" y="746" on="1"/>
        <pt x="501" y="726" on="1"/>
        <pt x="478" y="682" on="0"/>
        <pt x="415" y="638" on="0"/>
        <pt x="384" y="638" on="1"/>
        <pt x="365" y="638" on="0"/>
        <pt x="330" y="648" on="0"/>
        <pt x="295" y="659" on="0"/>
        <pt x="261" y="669" on="0"/>
        <pt x="243" y="669" on="1"/>
        <pt x="225" y="669" on="0"/>
        <pt x="191" y="656" on="0"/>
        <pt x="173" y="640" on="1"/>
      </contour>
      <contour>
        <pt x="65" y="577" on="1"/>
        <pt x="166" y="577" on="1"/>
        <pt x="416" y="254" on="1"/>
        <pt x="462" y="188" on="1"/>
        <pt x="469" y="189" on="1"/>
        <pt x="469" y="577" on="1"/>
        <pt x="578" y="577" on="1"/>
        <pt x="578" y="0" on="1"/>
        <pt x="478" y="0" on="1"/>
        <pt x="230" y="323" on="1"/>
        <pt x="182" y="390" on="1"/>
        <pt x="175" y="390" on="1"/>
        <pt x="175" y="0" on="1"/>
        <pt x="65" y="0" on="1"/>
      </contour>
    </TTGlyph>
    <TTGlyph name="O" xMin="39" yMin="-10" xMax="648" yMax="750">
      <contour>
        <pt x="343" y="-10" on="1"/>
        <pt x="39" y="-10" on="0"/>
        <pt x="39" y="369" on="1"/>
        <pt x="39" y="750" on="0"/>
        <pt x="343" y="750" on="1"/>
        <pt x="648" y="750" on="0"/>
        <pt x="648" y="369" on="1"/>
        <pt x="648" y="-10" on="0"/>
      </contour>
      <contour>
        <pt x="343" y="97" on="1"/>
        <pt x="389" y="97" on="0"/>
        <pt x="455" y="127" on="0"/>
        <pt x="497" y="192" on="0"/>
        <pt x="517" y="295" on="0"/>
        <pt x="517" y="369" on="1"/>
        <pt x="517" y="516" on="0"/>
        <pt x="435" y="644" on="0"/>
        <pt x="343" y="644" on="1"/>
        <pt x="297" y="644" on="0"/>
        <pt x="231" y="613" on="0"/>
        <pt x="189" y="547" on="0"/>
        <pt x="170" y="443" on="0"/>
        <pt x="170" y="369" on="1"/>
        <pt x="170" y="296" on="0"/>
        <pt x="189" y="193" on="0"/>
        <pt x="231" y="127" on="0"/>
        <pt x="297" y="97" on="0"/>
      </contour>
    </TTGlyph>
    <TTGlyph name="O.sc" xMin="38" yMin="-8" xMax="587" yMax="585">
      <contour>
        <pt x="313" y="-8" on="1"/>
        <pt x="38" y="-8" on="0"/>
        <pt x="38" y="288" on="1"/>
        <pt x="38" y="585" on="0"/>
        <pt x="313" y="585" on="1"/>
        <pt x="587" y="585" on="0"/>
        <pt x="587" y="288" on="1"/>
        <pt x="587" y="-8" on="0"/>
      </contour>
      <contour>
        <pt x="313" y="92" on="1"/>
        <pt x="353" y="92" on="0"/>
        <pt x="410" y="113" on="0"/>
        <pt x="446" y="160" on="0"/>
        <pt x="463" y="234" on="0"/>
        <pt x="463" y="288" on="1"/>
        <pt x="463" y="395" on="0"/>
        <pt x="394" y="485" on="0"/>
        <pt x="313" y="485" on="1"/>
        <pt x="232" y="485" on="0"/>
        <pt x="162" y="396" on="0"/>
        <pt x="162" y="288" on="1"/>
        <pt x="162" y="234" on="0"/>
        <pt x="179" y="160" on="0"/>
        <pt x="215" y="113" on="0"/>
        <pt x="272" y="92" on="0"/>
      </contour>
    </TTGlyph>
</ttFont>
